<svg width="29" height="24" viewBox="0 0 29 24" fill="none" xmlns="http://www.w3.org/2000/svg">
<path d="M28.9583 21.7235C28.8507 22.2341 28.6864 22.7164 28.3287 23.1165C27.8818 23.6165 27.3301 23.9069 26.6651 23.977C26.5065 23.994 26.345 23.9954 26.185 23.9954C18.3818 23.9961 10.5794 23.9933 2.77632 23.9997C1.86201 24.0004 1.09714 23.7171 0.527025 22.982C0.167252 22.5174 0.0100282 21.9813 0.00790358 21.402C0.00223786 19.8942 -0.00909358 18.3864 0.0107364 16.8786C0.0411897 14.6385 1.75295 12.8205 3.99232 12.7051C5.16584 12.6449 6.34926 12.6626 7.52207 12.7419C8.01357 12.7752 8.26782 12.7114 8.56456 12.2808C9.35493 11.1335 10.5022 10.5401 11.9031 10.5238C13.6743 10.5032 15.447 10.4841 17.2175 10.5379C18.6842 10.5825 19.8117 11.3035 20.5872 12.5471C20.7232 12.7653 20.8422 12.8566 21.095 12.7759C21.2537 12.7256 21.4286 12.7065 21.5964 12.7072C22.8202 12.7093 24.0511 12.6413 25.2671 12.7454C27.1085 12.9027 28.6205 14.4253 28.9003 16.249C28.9116 16.3219 28.9378 16.3927 28.9569 16.465C28.9583 18.2178 28.9583 19.9706 28.9583 21.7235ZM19.515 22.2865C19.5199 22.1895 19.5256 22.1243 19.5256 22.0592C19.5263 19.6576 19.5327 17.2561 19.5235 14.8545C19.5178 13.2858 18.4449 12.2214 16.8705 12.2129C15.2792 12.2044 13.6871 12.2072 12.0957 12.215C11.8344 12.2164 11.5639 12.2376 11.3146 12.3092C10.1233 12.6527 9.44204 13.591 9.43991 14.8807C9.43496 17.2631 9.4385 19.6463 9.43921 22.0287C9.43921 22.1102 9.44912 22.1923 9.4555 22.2858C12.8124 22.2865 16.151 22.2865 19.515 22.2865ZM7.74232 22.2844C7.74232 22.1534 7.74232 22.0429 7.74232 21.9324C7.74232 19.635 7.74232 17.3375 7.74232 15.0401C7.74232 14.3984 7.74232 14.3885 7.07872 14.3814C6.15592 14.3715 5.23312 14.3729 4.31031 14.3821C4.08652 14.3842 3.85635 14.409 3.64176 14.4685C2.42858 14.8014 1.71045 15.7497 1.70479 17.0245C1.69841 18.4466 1.70266 19.868 1.70337 21.2901C1.70408 21.9905 2.01499 22.3 2.7232 22.3007C4.29544 22.3021 5.86838 22.3014 7.44062 22.3007C7.53127 22.2993 7.62263 22.2908 7.74232 22.2844ZM21.2225 22.2589C21.277 22.278 21.3025 22.295 21.328 22.295C23.0419 22.2957 24.7551 22.3021 26.469 22.2901C26.9201 22.2872 27.2558 21.9246 27.2579 21.4572C27.2657 19.9317 27.2869 18.4055 27.2508 16.8814C27.2197 15.5372 26.3004 14.5493 24.9612 14.4197C24.2147 14.3474 23.4569 14.3807 22.7041 14.3807C22.2905 14.3807 21.8776 14.4105 21.464 14.4225C21.2777 14.4282 21.2154 14.5039 21.2161 14.7022C21.2246 17.113 21.2225 19.5231 21.2225 21.9338C21.2225 22.0436 21.2225 22.1541 21.2225 22.2589Z" fill="url(#paint0_linear_294_190)"/>
<path d="M19.5152 5.03969C19.5088 7.80668 17.2283 10.0793 14.472 10.0666C11.7007 10.0531 9.44221 7.78261 9.45071 5.01844C9.4585 2.24365 11.7227 -0.00917868 14.4932 2.81193e-05C17.2708 0.00923492 19.5215 2.26773 19.5152 5.03969ZM14.4875 1.6962C12.6419 1.69408 11.1462 3.187 11.1469 5.03119C11.1476 6.86901 12.6596 8.37821 14.4925 8.37042C16.3197 8.36263 17.814 6.86617 17.819 5.0411C17.8232 3.1955 16.3331 1.69904 14.4875 1.6962Z" fill="url(#paint1_linear_294_190)"/>
<path d="M5.65401 4.67877C7.72554 4.66673 9.44154 6.37566 9.43659 8.44648C9.43163 10.5102 7.74183 12.2029 5.67596 12.2135C3.60727 12.2241 1.89339 10.5131 1.89551 8.44011C1.89763 6.37283 3.57823 4.69081 5.65401 4.67877ZM3.59523 8.45002C3.60231 9.58175 4.55061 10.5244 5.67171 10.5152C6.80203 10.506 7.74749 9.55484 7.73758 8.43727C7.72766 7.302 6.78999 6.37353 5.65826 6.37849C4.52157 6.38345 3.58814 7.32042 3.59523 8.45002Z" fill="url(#paint2_linear_294_190)"/>
<path d="M23.2992 4.67871C25.3686 4.6773 27.0492 6.34798 27.0705 8.428C27.091 10.4896 25.3764 12.2127 23.3027 12.2141C21.2319 12.2155 19.5159 10.4953 19.5294 8.43155C19.5421 6.36002 21.2305 4.68084 23.2992 4.67871ZM23.3374 6.37914C22.2135 6.34656 21.2815 7.24245 21.2291 8.40676C21.1795 9.50166 22.1122 10.467 23.2638 10.5144C24.3672 10.5597 25.324 9.6348 25.3686 8.48041C25.4111 7.36851 24.4869 6.41242 23.3374 6.37914Z" fill="url(#paint3_linear_294_190)"/>
<defs>
<linearGradient id="paint0_linear_294_190" x1="-4.5" y1="12.7525" x2="13.4819" y2="36.099" gradientUnits="userSpaceOnUse">
<stop stop-color="#20D4FE"/>
<stop offset="1" stop-color="#B722FF"/>
</linearGradient>
<linearGradient id="paint1_linear_294_190" x1="7.8869" y1="1.67782" x2="20.174" y2="9.11129" gradientUnits="userSpaceOnUse">
<stop stop-color="#20D4FE"/>
<stop offset="1" stop-color="#B722FF"/>
</linearGradient>
<linearGradient id="paint2_linear_294_190" x1="0.723802" y1="5.93455" x2="9.92507" y2="11.507" gradientUnits="userSpaceOnUse">
<stop stop-color="#20D4FE"/>
<stop offset="1" stop-color="#B722FF"/>
</linearGradient>
<linearGradient id="paint3_linear_294_190" x1="18.3576" y1="5.93465" x2="27.5594" y2="11.5071" gradientUnits="userSpaceOnUse">
<stop stop-color="#20D4FE"/>
<stop offset="1" stop-color="#B722FF"/>
</linearGradient>
</defs>
</svg>
