<svg width="29" height="14" viewBox="0 0 29 14" fill="none" xmlns="http://www.w3.org/2000/svg">
<path d="M29 7.2225C28.8112 7.48636 28.6602 7.78793 28.4336 8.0141C26.5682 9.88378 24.6953 11.7308 22.8224 13.5854C22.324 14.083 21.6745 14.1283 21.1987 13.7061C20.6927 13.2613 20.6776 12.53 21.176 12.0324C22.3995 10.8186 23.6229 9.60484 24.8464 8.39105C24.9219 8.3232 25.0125 8.27042 25.0956 8.21011C25.0805 8.17996 25.0654 8.1498 25.0503 8.11964C24.9445 8.11964 24.8388 8.11964 24.7255 8.11964C16.9544 8.11964 9.17578 8.11211 1.40469 8.12718C0.709896 8.13472 0.226562 7.90101 0 7.2225C0 7.07172 0 6.92094 0 6.77016C0.226562 6.09164 0.709896 5.85793 1.41224 5.85793C9.17578 5.87301 16.9393 5.86547 24.7104 5.86547C24.8237 5.86547 24.937 5.86547 25.1182 5.86547C25.0049 5.74485 24.937 5.66946 24.8615 5.59406C23.638 4.38028 22.4146 3.16649 21.1911 1.95271C20.8589 1.62099 20.7531 1.22896 20.8815 0.791695C21.0023 0.384587 21.2893 0.120721 21.7122 0.0227132C22.1427 -0.0752944 22.5052 0.0679474 22.8148 0.377048C24.1818 1.73408 25.5562 3.09864 26.9307 4.45567C27.4367 4.96078 27.9578 5.45082 28.4487 5.97102C28.6677 6.20473 28.8263 6.49875 29.0151 6.76262C29 6.92094 29 7.07172 29 7.2225Z" fill="url(#paint0_linear_216_541)"/>
<defs>
<linearGradient id="paint0_linear_216_541" x1="14.5076" y1="-0.0078125" x2="14.5076" y2="13.9935" gradientUnits="userSpaceOnUse">
<stop stop-color="#20D4FE"/>
<stop offset="1" stop-color="#B722FF"/>
</linearGradient>
</defs>
</svg>
