<svg width="25" height="25" viewBox="0 0 25 25" fill="none" xmlns="http://www.w3.org/2000/svg">
<path d="M13.2732 0C13.6832 0.0488878 14.0951 0.0849426 14.5033 0.147886C17.6706 0.63493 20.379 1.99462 22.4732 4.45185C24.2143 6.49413 25.0777 8.8713 24.9714 11.5687C24.9164 12.9681 24.5363 14.2911 23.913 15.542C23.66 16.0505 23.1045 16.2393 22.6132 16.0071C22.139 15.7822 21.9257 15.2353 22.153 14.7268C22.4793 13.9978 22.7684 13.259 22.9071 12.4688C23.2182 10.6936 22.9548 9.00086 22.1188 7.41078C20.8294 4.95783 18.7779 3.41604 16.1881 2.54461C14.6249 2.01846 13.0134 1.85163 11.3775 2.00807C9.01931 2.23356 6.89025 3.05671 5.0869 4.6144C3.39721 6.07309 2.29663 7.88682 2.01674 10.1302C1.77475 12.0741 2.21352 13.8774 3.27194 15.5237C3.51271 15.8983 3.79321 16.2497 4.07614 16.595C4.39269 16.9812 4.45136 17.3796 4.25153 17.8404C3.80909 18.8609 3.38377 19.8888 2.95172 20.9136C2.912 21.0077 2.87595 21.1036 2.82339 21.2356C2.94745 21.188 3.03606 21.1568 3.12222 21.1208C4.43852 20.5653 5.75727 20.0153 7.0693 19.4494C7.43596 19.2911 7.77878 19.2765 8.15033 19.4243C9.68235 20.033 11.2767 20.2829 12.9218 20.2304C13.7034 20.2053 14.2136 20.803 14.0053 21.4899C13.8794 21.9048 13.539 22.1541 13.0458 22.1755C11.6641 22.2366 10.3032 22.0906 8.96492 21.7404C8.65876 21.6604 8.3471 21.5864 8.05744 21.4636C7.77267 21.3426 7.53251 21.3664 7.25263 21.4868C5.32828 22.313 3.3966 23.1239 1.46676 23.9373C0.910047 24.172 0.43278 24.043 0.146175 23.5829C0.0875098 23.4881 0.0477884 23.3812 -0.000488281 23.2804C-0.000488281 23.1502 -0.000488281 23.02 -0.000488281 22.8899C0.0545105 22.7573 0.108287 22.6241 0.164508 22.4921C0.822049 20.9362 1.47287 19.3779 2.14446 17.8282C2.25446 17.5752 2.2233 17.4102 2.06258 17.1987C1.18993 16.0523 0.575777 14.7782 0.26595 13.369C0.146786 12.8239 0.0875098 12.2659 0.000122816 11.7135C0.000122816 11.2906 0.000122816 10.8678 0.000122816 10.4443C0.0141781 10.3905 0.0367887 10.3373 0.0416774 10.2829C0.234173 8.03043 1.10621 6.0627 2.58262 4.36935C4.68357 1.95857 7.36935 0.620264 10.5073 0.145441C10.907 0.0849426 11.3103 0.0482767 11.7118 0C12.2318 0 12.7525 0 13.2732 0Z" fill="url(#paint0_linear_300_252)"/>
<path d="M24.9853 22.1709C24.9199 23.2983 24.3711 24.229 23.2381 24.7271C22.1101 25.2227 21.0461 25.0339 20.1032 24.2333C19.9242 24.0812 19.7628 23.9076 19.5954 23.7408C17.9949 22.1446 16.3963 20.546 14.7922 18.9522C14.5667 18.7286 14.4096 18.4792 14.3186 18.1731C13.9672 16.99 13.6005 15.8118 13.2473 14.6299C13.0456 13.9547 13.3964 13.3613 14.043 13.291C14.2067 13.2733 14.384 13.3063 14.5459 13.3503C15.7681 13.6821 16.9909 14.0115 18.2051 14.369C18.4502 14.4411 18.7001 14.5896 18.8829 14.7699C20.608 16.4718 22.316 18.1908 24.0356 19.8982C24.6443 20.5007 24.9706 21.2151 24.9853 22.1709ZM21.1372 19.7894C20.0372 18.6827 18.9348 17.5785 17.8403 16.4669C17.6692 16.2927 17.4847 16.1772 17.2476 16.1173C16.7098 15.9817 16.1763 15.8271 15.6043 15.6706C15.7846 16.2695 15.9471 16.8287 16.1256 17.3829C16.1659 17.5076 16.2441 17.6323 16.3364 17.7257C17.1883 18.5862 18.0481 19.4387 18.9042 20.2948C19.1963 20.5869 19.4848 20.8833 19.7653 21.1681C20.234 20.6975 20.6856 20.2435 21.1372 19.7894ZM21.2069 22.5815C21.7055 23.1291 22.3398 23.1871 22.7682 22.7227C23.188 22.2674 23.1 21.6343 22.5696 21.2157C22.1174 21.6685 21.667 22.1202 21.2069 22.5815Z" fill="url(#paint1_linear_300_252)"/>
<path d="M8.04751 9.86036C8.58406 9.85792 9.0271 10.3004 9.02588 10.8369C9.02466 11.3734 8.58039 11.814 8.04385 11.8092C7.51708 11.8049 7.0832 11.3722 7.0777 10.8448C7.07159 10.3083 7.51097 9.86281 8.04751 9.86036Z" fill="url(#paint2_linear_300_252)"/>
<path d="M12.4421 11.8092C11.9056 11.8086 11.465 11.3644 11.4693 10.8272C11.4735 10.2907 11.9203 9.85311 12.4568 9.86044C12.9836 9.86778 13.415 10.3029 13.4174 10.8303C13.4205 11.3662 12.9787 11.8098 12.4421 11.8092Z" fill="url(#paint3_linear_300_252)"/>
<path d="M17.8095 10.8284C17.8132 11.3649 17.3726 11.8092 16.836 11.8092C16.2995 11.8092 15.8583 11.3656 15.8613 10.829C15.8644 10.3023 16.2958 9.86715 16.8226 9.86043C17.3591 9.85371 17.8059 10.2919 17.8095 10.8284Z" fill="url(#paint4_linear_300_252)"/>
<defs>
<linearGradient id="paint0_linear_300_252" x1="-5.20721" y1="4.00864" x2="28.4122" y2="25.7121" gradientUnits="userSpaceOnUse">
<stop stop-color="#20D4FE"/>
<stop offset="1" stop-color="#B722FF"/>
</linearGradient>
<linearGradient id="paint1_linear_300_252" x1="10.732" y1="15.2384" x2="26.8913" y2="25.352" gradientUnits="userSpaceOnUse">
<stop stop-color="#20D4FE"/>
<stop offset="1" stop-color="#B722FF"/>
</linearGradient>
<linearGradient id="paint2_linear_300_252" x1="6.67156" y1="10.1852" x2="9.35151" y2="11.8504" gradientUnits="userSpaceOnUse">
<stop stop-color="#20D4FE"/>
<stop offset="1" stop-color="#B722FF"/>
</linearGradient>
<linearGradient id="paint3_linear_300_252" x1="11.0632" y1="10.1852" x2="13.7431" y2="11.8504" gradientUnits="userSpaceOnUse">
<stop stop-color="#20D4FE"/>
<stop offset="1" stop-color="#B722FF"/>
</linearGradient>
<linearGradient id="paint4_linear_300_252" x1="15.4553" y1="10.1852" x2="18.1352" y2="11.8504" gradientUnits="userSpaceOnUse">
<stop stop-color="#20D4FE"/>
<stop offset="1" stop-color="#B722FF"/>
</linearGradient>
</defs>
</svg>
