<svg width="28" height="28" viewBox="0 0 28 28" fill="none" xmlns="http://www.w3.org/2000/svg">
<path d="M0.202637 12.9797C1.45185 11.2821 2.70039 9.58454 3.94961 7.88696C4.28454 7.43116 4.61676 6.97334 4.95439 6.51957C5.22584 6.15561 5.53645 6.15494 5.80318 6.51755C7.32857 8.59462 8.85262 10.6724 10.3773 12.7501C10.5023 12.921 10.6164 13.0938 10.505 13.3173C10.3895 13.5476 10.1829 13.5733 9.95665 13.5712C9.44684 13.5665 8.93702 13.5699 8.40627 13.5699C8.40627 14.5787 8.40627 15.5632 8.40627 16.5687C8.11389 16.5687 7.84176 16.5687 7.55073 16.5687C7.546 16.4917 7.53655 16.414 7.53655 16.3364C7.53588 15.3215 7.5352 14.3059 7.53655 13.291C7.53723 12.8507 7.67835 12.7096 8.11592 12.7076C8.48123 12.7062 8.84654 12.7069 9.27465 12.7069C7.96128 10.9161 6.68101 9.17061 5.3798 7.39605C4.08061 9.16791 2.80371 10.9101 1.4971 12.692C2.80708 12.692 4.07453 12.692 5.36021 12.692C5.36021 12.9932 5.36021 13.266 5.36021 13.5591C4.6593 13.5591 3.96244 13.5591 3.23519 13.5591C3.23519 16.152 3.23519 18.7241 3.23519 21.315C2.93336 21.315 2.66123 21.315 2.36817 21.315C2.36817 18.7423 2.36817 16.177 2.36817 13.5699C2.0481 13.5699 1.74694 13.5699 1.44578 13.5699C1.23037 13.5699 1.01429 13.5611 0.798884 13.5719C0.530134 13.5854 0.325533 13.4976 0.203312 13.2491C0.202637 13.1593 0.202637 13.0695 0.202637 12.9797Z" fill="url(#paint0_linear_294_232)"/>
<path d="M3.43703 21.5187H2.16486V13.7736H1.44504C1.37819 13.7736 1.31066 13.7729 1.24381 13.7715C1.09323 13.7695 0.95143 13.7682 0.808952 13.7749C0.438239 13.7945 0.172865 13.6473 0.0209328 13.3387L0 13.2968V12.914L3.78614 7.76786C3.90566 7.6058 4.0245 7.44307 4.14335 7.28033C4.3547 6.99065 4.57416 6.69151 4.79226 6.39913C5.01105 6.10607 5.2332 6.04395 5.38176 6.04395C5.38243 6.04395 5.38311 6.04395 5.38379 6.04395C5.53167 6.04462 5.75247 6.10607 5.9672 6.39845C7.10163 7.94275 8.2347 9.48773 9.36845 11.0327L10.5414 12.6317C10.6602 12.7938 10.8594 13.0645 10.6865 13.4096C10.5008 13.781 10.1328 13.7776 9.95524 13.7756C9.59601 13.7722 9.24218 13.7729 8.86809 13.7736C8.78233 13.7736 8.69657 13.7736 8.61014 13.7742V16.773H7.36025L7.34809 16.584C7.34674 16.561 7.34472 16.538 7.34269 16.5144C7.33797 16.4584 7.33324 16.3996 7.33324 16.3382C7.33256 15.3226 7.33189 14.3077 7.33324 13.2928C7.33391 12.7445 7.56755 12.5095 8.11383 12.5075C8.36097 12.5061 8.60744 12.5068 8.87349 12.5068L5.37906 7.74153L1.89611 12.4919H5.56205V13.7641H3.43703V21.5187ZM2.57001 21.1135H3.03188V13.3576H5.1569V12.8957H1.09593L5.37838 7.0548L9.67299 12.9106H8.88159C8.61284 12.9106 8.36435 12.9099 8.11518 12.9113C7.78768 12.9126 7.73839 12.9626 7.73771 13.2921C7.73636 14.307 7.73704 15.3219 7.73771 16.3368C7.73771 16.3469 7.73771 16.3564 7.73839 16.3665H8.20296V13.3677H8.40554C8.56017 13.3677 8.71345 13.3677 8.86539 13.3671C9.24083 13.3664 9.59533 13.3657 9.95727 13.3691C10.1855 13.3711 10.2665 13.3394 10.3226 13.2273C10.3719 13.128 10.3509 13.0585 10.2132 12.8707L9.04028 11.2717C7.9072 9.72677 6.77345 8.18179 5.63971 6.63749C5.55057 6.51595 5.45874 6.44842 5.38176 6.44842C5.38176 6.44842 5.38176 6.44842 5.38108 6.44842C5.30276 6.44842 5.20889 6.51662 5.11639 6.64019C4.89963 6.93123 4.68085 7.22969 4.47017 7.5187C4.35132 7.68143 4.23181 7.84417 4.11229 8.0069L0.405151 13.0463V13.1982C0.483481 13.3292 0.597598 13.3799 0.788019 13.3698C0.943327 13.3617 1.09864 13.3637 1.24854 13.3657C1.31404 13.3664 1.37954 13.3671 1.44504 13.3671H2.57001V21.1135Z" fill="url(#paint1_linear_294_232)"/>
<path d="M14.1128 0.202148C14.2404 0.323694 14.3897 0.429708 14.493 0.570161C15.9839 2.59389 17.4688 4.62235 18.955 6.64945C18.9922 6.7001 19.0496 6.74669 19.061 6.80341C19.0941 6.96074 19.1752 7.15859 19.113 7.27136C19.0428 7.39763 18.8409 7.50972 18.6883 7.52053C18.2325 7.55294 17.7733 7.53201 17.3148 7.53201C17.2271 7.53201 17.14 7.53201 17.0319 7.53201C17.0319 8.11002 17.0319 8.66373 17.0319 9.23702C16.7395 9.23702 16.4674 9.23702 16.1716 9.23702C16.1716 8.50302 16.1561 7.76902 16.1797 7.03705C16.1885 6.7764 16.4039 6.66836 16.6612 6.66904C17.0535 6.67039 17.4452 6.66971 17.8996 6.66971C16.5862 4.87827 15.306 3.13274 14.0048 1.35885C12.7056 3.13004 11.428 4.87151 10.1092 6.66971C10.5036 6.66971 10.8459 6.66971 11.1883 6.66971C11.7339 6.67039 11.8473 6.7845 11.848 7.33483C11.848 7.96282 11.848 8.5908 11.848 9.23769C11.5617 9.23769 11.2896 9.23769 10.9958 9.23769C10.9958 8.68196 10.9958 8.12825 10.9958 7.53201C10.6663 7.53201 10.3564 7.53201 10.0464 7.53201C9.83103 7.53201 9.61562 7.52931 9.39954 7.53268C9.18076 7.53606 8.98629 7.49554 8.87757 7.27811C8.77223 7.06743 8.86879 6.90065 8.99101 6.73386C10.2612 5.00454 11.5293 3.27387 12.7981 1.54387C13.0371 1.2184 13.2687 0.886179 13.5179 0.56881C13.6253 0.431734 13.7698 0.323694 13.8967 0.202148C13.969 0.202148 14.0405 0.202148 14.1128 0.202148Z" fill="url(#paint2_linear_294_232)"/>
<path d="M12.0506 9.4407H10.7932V7.73501H10.0464C9.98024 7.73501 9.91406 7.73501 9.84721 7.73434C9.69866 7.73366 9.55078 7.73299 9.4029 7.73569C9.18007 7.73906 8.86472 7.7053 8.69658 7.3697C8.52507 7.02735 8.72967 6.74847 8.82758 6.61477C9.85667 5.21295 10.8851 3.81112 11.9135 2.40862L12.6347 1.42478C12.7042 1.32957 12.7738 1.23369 12.8426 1.1378C13.0081 0.908889 13.1796 0.671876 13.3579 0.444316C13.4429 0.3356 13.5429 0.247142 13.6394 0.16206C13.6793 0.126947 13.7184 0.0918343 13.7569 0.0560459L13.8157 0H14.1938L14.2526 0.0560459C14.291 0.0925095 14.3309 0.127623 14.3714 0.162736C14.47 0.248493 14.572 0.336951 14.6557 0.450393C15.8792 2.11151 17.1197 3.80369 18.3189 5.43983L19.1184 6.53036C19.1265 6.54117 19.136 6.55129 19.1454 6.5621C19.1853 6.60802 19.2406 6.67081 19.2596 6.7613C19.267 6.79506 19.2764 6.83017 19.2859 6.86664C19.3291 7.0287 19.3777 7.21169 19.2906 7.3697C19.1778 7.57228 18.9037 7.70868 18.7025 7.72286C18.3662 7.74649 18.0272 7.74244 17.6984 7.73839C17.5714 7.73704 17.4452 7.73501 17.3182 7.73501C17.3169 7.73501 17.3162 7.73501 17.3148 7.73501H17.2345V9.44002H15.9691V9.23745C15.9691 9.03015 15.9677 8.82284 15.9664 8.61622C15.963 8.09695 15.9603 7.56012 15.9772 7.03072C15.9886 6.6877 16.2554 6.46689 16.6578 6.46689C16.6592 6.46689 16.6605 6.46689 16.6619 6.46689C16.934 6.46824 17.2068 6.46756 17.4998 6.46756H17.5005L14.0047 1.70164L10.509 6.46756H11.1883C11.8487 6.46824 12.0499 6.67081 12.0499 7.33526V8.59258L12.0506 9.4407ZM11.1984 9.03555H11.6454V8.59191V7.33459C11.6454 6.89365 11.6238 6.87204 11.1883 6.87204H10.4793H9.70946L14.0047 1.01625L18.2993 6.87271H17.4998C17.2054 6.87271 16.9326 6.87339 16.6598 6.87204C16.6585 6.87204 16.6578 6.87204 16.6565 6.87204C16.387 6.87204 16.383 7.00169 16.3816 7.04423C16.3647 7.56552 16.3675 8.0983 16.3708 8.61351C16.3715 8.75397 16.3729 8.89442 16.3729 9.03487H16.828V7.32986H17.3135C17.3148 7.32986 17.3155 7.32986 17.3169 7.32986C17.4452 7.32986 17.5735 7.33121 17.7024 7.33324C18.0225 7.33729 18.3534 7.34134 18.6728 7.31906C18.7659 7.3123 18.8963 7.23465 18.9321 7.1786C18.9381 7.14079 18.9104 7.03478 18.8929 6.9713C18.8828 6.93349 18.8726 6.89567 18.8652 6.85988C18.8591 6.85178 18.847 6.83828 18.8389 6.82882C18.822 6.80924 18.8051 6.78966 18.7903 6.77008L17.9921 5.67887C16.7929 4.04273 15.5531 2.35123 14.3295 0.690108C14.2721 0.612454 14.1911 0.542227 14.1054 0.46795C14.081 0.447017 14.0574 0.426084 14.0331 0.404476H13.9757C13.9534 0.424733 13.9305 0.444991 13.9075 0.465249C13.8211 0.542227 13.7387 0.614479 13.6766 0.694159C13.503 0.915642 13.3342 1.14928 13.1708 1.37481C13.1013 1.47137 13.031 1.56794 12.9608 1.66382L12.2396 2.64766C11.2112 4.05016 10.1828 5.45266 9.15373 6.85448C9.03151 7.02127 9.01058 7.09285 9.05852 7.18806C9.10511 7.28124 9.17601 7.33391 9.39615 7.33054C9.5474 7.32783 9.70068 7.32851 9.84857 7.32919C9.91406 7.32919 9.98024 7.32986 10.0457 7.32986H11.1977V9.03555H11.1984Z" fill="url(#paint3_linear_294_232)"/>
<path d="M19.6121 27.7977C19.3117 27.7977 19.0524 27.7977 18.7492 27.7977C18.7492 27.6911 18.7492 27.5877 18.7492 27.4851C18.7492 25.5444 18.7586 23.6031 18.7417 21.6624C18.7377 21.2201 18.5709 20.84 18.1003 20.6502C17.4014 20.3693 16.7126 20.0621 16.0245 19.7555C15.8868 19.694 15.8024 19.7055 15.6977 19.8142C15.329 20.1951 14.9441 20.5604 14.5808 20.946C14.5005 21.0317 14.4444 21.1762 14.4424 21.2944C14.4296 22.0122 14.4363 22.7307 14.4363 23.4701C14.1521 23.4701 13.8799 23.4701 13.5734 23.4701C13.5734 22.9798 13.5288 22.4835 13.5842 21.9994C13.6612 21.3309 13.4599 20.8264 12.9251 20.4233C12.6908 20.2464 12.5092 20.0013 12.287 19.8055C12.2256 19.7514 12.0885 19.7224 12.0156 19.7528C11.2458 20.0742 10.4713 20.3875 9.72106 20.7508C9.38951 20.9115 9.26661 21.2768 9.26526 21.632C9.25446 23.5815 9.25986 25.5316 9.25986 27.4817C9.25986 27.579 9.25986 27.6755 9.25986 27.7883C8.9722 27.7883 8.70615 27.7883 8.39689 27.7883C8.39689 27.6985 8.39689 27.6046 8.39689 27.5101C8.39689 25.5154 8.36312 23.5194 8.41579 21.526C8.43403 20.8467 8.70143 20.2086 9.44758 19.9128C10.2228 19.6056 10.975 19.241 11.7488 18.9297C12.0061 18.8263 11.9919 18.6062 12.0844 18.4246C12.1979 18.2017 12.1263 18.0694 11.9555 17.8999C11.3187 17.2685 11.0283 16.4663 11.0027 15.5905C10.9669 14.3602 10.9811 13.1286 10.9953 11.8983C10.9973 11.7524 11.0999 11.5647 11.2161 11.4702C11.9575 10.8658 12.8164 10.5802 13.7746 10.5478C14.8719 10.5099 15.874 10.7497 16.7572 11.4269C16.9469 11.5728 17.0273 11.743 17.0259 11.9779C17.0205 13.0469 17.0232 14.1165 17.0232 15.1854C17.0232 16.2773 16.7545 17.2645 15.9219 18.0343C15.8902 18.0633 15.8544 18.1011 15.8463 18.1403C15.8058 18.3334 16.0961 18.8507 16.2865 18.933C17.1016 19.2862 17.9146 19.6434 18.733 19.9878C18.9612 20.0837 19.105 20.2336 19.232 20.4456C19.5372 20.9574 19.6297 21.4956 19.6216 22.0892C19.5959 23.886 19.6121 25.6835 19.6121 27.4804C19.6121 27.5783 19.6121 27.6749 19.6121 27.7977ZM16.1562 14.8262C15.6633 14.739 15.2642 14.5122 14.9948 14.0807C14.9637 14.0307 14.8584 14.0064 14.7868 14.0057C14.2662 13.9996 13.7449 13.9996 13.2243 14.0057C13.1527 14.0064 13.0473 14.03 13.0163 14.08C12.7462 14.5108 12.3485 14.739 11.8576 14.8248C11.8191 15.5797 11.894 16.2901 12.2789 16.9451C12.9326 18.0552 14.6612 18.2166 15.5019 17.2442C16.1049 16.5467 16.1866 15.7121 16.1562 14.8262ZM11.8481 13.9247C12.0878 13.8687 12.235 13.7768 12.285 13.5472C12.3525 13.238 12.4768 13.1428 12.7914 13.1414C13.5984 13.138 14.406 13.138 15.2129 13.1414C15.5316 13.1428 15.6552 13.2366 15.724 13.5432C15.7767 13.7788 15.9172 13.8828 16.1609 13.9065C16.1609 13.3156 16.1657 12.7423 16.1549 12.1697C16.1535 12.1008 16.0867 12.005 16.0232 11.9692C14.6808 11.2088 13.3323 11.2075 11.9899 11.9678C11.9224 12.0063 11.8555 12.1143 11.8542 12.192C11.8434 12.7552 11.8481 13.3197 11.8481 13.9247ZM12.9028 18.5427C12.8806 18.775 12.7799 19.0228 12.8603 19.1174C13.2114 19.53 13.6152 19.898 14.0109 20.293C14.3459 19.9554 14.6544 19.6427 14.9651 19.3308C15.2642 19.0303 15.2703 18.9715 15.0184 18.5644C14.3425 18.8034 13.6544 18.7858 12.9028 18.5427Z" fill="url(#paint4_linear_294_232)"/>
<path d="M19.8146 28.0005H18.5471V27.4852C18.5471 26.9694 18.5478 26.4535 18.5485 25.9376C18.5505 24.5371 18.5519 23.0887 18.5397 21.6646C18.5363 21.2412 18.3723 20.9785 18.0252 20.8387C17.3384 20.5626 16.6524 20.2573 15.9886 19.9616L15.9427 19.9413C15.9015 19.9231 15.8853 19.9217 15.8826 19.9217C15.8826 19.9224 15.8698 19.9292 15.8434 19.9555C15.6821 20.1223 15.5159 20.2877 15.3552 20.4484C15.1473 20.6557 14.9325 20.8698 14.7286 21.0859C14.684 21.1332 14.6462 21.229 14.6449 21.2993C14.6354 21.8347 14.6368 22.3608 14.6381 22.9172C14.6388 23.1008 14.6388 23.2852 14.6388 23.4715V23.6741H13.3713V23.4715C13.3713 23.323 13.3673 23.1704 13.3626 23.0225C13.3531 22.6808 13.343 22.327 13.3835 21.9772C13.4537 21.3702 13.2748 20.9407 12.8041 20.5855C12.6556 20.4734 12.5306 20.3411 12.4091 20.2128C12.3227 20.1216 12.241 20.0352 12.1539 19.9575C12.1431 19.9508 12.1059 19.942 12.087 19.9434L11.7831 20.0696C11.1302 20.3411 10.4549 20.6213 9.81073 20.9333C9.51565 21.0764 9.46973 21.433 9.46906 21.6335C9.46095 23.0853 9.4623 24.5614 9.46298 25.9889C9.46298 26.4865 9.46365 26.9842 9.46365 27.4819V27.991H8.19621V27.5102C8.19621 26.9491 8.1935 26.388 8.1908 25.8268C8.18405 24.4155 8.1773 22.957 8.21511 21.5214C8.23807 20.6375 8.63917 20.017 9.37452 19.7252C9.77157 19.5679 10.1706 19.3917 10.5569 19.2208C10.9208 19.0601 11.2976 18.894 11.6744 18.7421C11.7683 18.7043 11.7879 18.6557 11.8324 18.5192C11.8513 18.4625 11.8723 18.3977 11.9047 18.3329C11.956 18.2323 11.9648 18.1938 11.8135 18.0439C11.1707 17.4058 10.8297 16.5826 10.8007 15.5968C10.7642 14.3577 10.779 13.1064 10.7932 11.8957C10.7959 11.6958 10.9195 11.4507 11.0883 11.313C11.8338 10.7059 12.7352 10.3798 13.7684 10.3446C15.0007 10.3028 16.0183 10.6039 16.8813 11.2657C17.1203 11.4487 17.2304 11.6756 17.2291 11.9788C17.225 12.7654 17.2257 13.5656 17.2264 14.3394L17.227 15.1855C17.227 16.4766 16.8455 17.4571 16.0602 18.183C16.0534 18.1891 16.0487 18.1938 16.0447 18.1978C16.0528 18.3322 16.2614 18.6962 16.3674 18.7475C16.5808 18.84 16.7949 18.9332 17.0089 19.0257C17.5991 19.2823 18.2088 19.5477 18.8118 19.8009C19.063 19.9062 19.246 20.073 19.4061 20.3418C19.7012 20.8374 19.8342 21.3931 19.824 22.092C19.8058 23.3838 19.8092 24.6978 19.8119 25.9686C19.8132 26.4724 19.8146 26.9761 19.8146 27.4798V28.0005ZM18.9516 27.5953H19.4088V27.4812C19.4088 26.9775 19.4074 26.4744 19.4061 25.9707C19.4027 24.6978 19.3993 23.3817 19.4182 22.0866C19.427 21.4579 19.3156 20.9839 19.057 20.5497C18.9408 20.3553 18.824 20.2465 18.6538 20.175C18.0488 19.9204 17.4377 19.655 16.8469 19.3978C16.6335 19.3046 16.4194 19.2121 16.2054 19.1195C15.9427 19.0061 15.5828 18.4078 15.6476 18.0992C15.6679 18.0034 15.7313 17.9352 15.784 17.8859C16.491 17.2322 16.8205 16.374 16.8205 15.1855L16.8198 14.3394C16.8192 13.5649 16.8185 12.7641 16.8226 11.9767C16.8232 11.8018 16.7706 11.6925 16.6335 11.5871C15.8482 10.9848 14.9136 10.7106 13.7812 10.7491C12.8251 10.7815 12.0283 11.0685 11.3436 11.6263C11.2693 11.6864 11.1984 11.8194 11.1977 11.8991C11.1835 13.1051 11.1687 14.3523 11.2045 15.5833C11.2301 16.4618 11.5306 17.1924 12.0978 17.7549C12.2801 17.9352 12.4422 18.1668 12.2646 18.5152C12.2464 18.5517 12.2315 18.5962 12.216 18.6435C12.166 18.7968 12.0978 19.0068 11.8237 19.1168C11.4529 19.2661 11.0795 19.4308 10.7189 19.5902C10.3293 19.7624 9.9262 19.94 9.52173 20.1007C8.94101 20.331 8.63714 20.8124 8.61824 21.5309C8.58042 22.9597 8.58718 24.4156 8.59393 25.8235C8.59663 26.3853 8.59933 26.9471 8.59933 27.5089V27.5845H9.05648V27.4805C9.05648 26.9829 9.0558 26.4852 9.0558 25.9882C9.05445 24.5601 9.05378 23.0833 9.06188 21.6301C9.06458 21.1291 9.27256 20.7415 9.63247 20.5673C10.2868 20.2506 10.9674 19.9677 11.6258 19.6942L11.9371 19.5645C12.0924 19.4997 12.3125 19.5571 12.4199 19.6516C12.5212 19.7415 12.613 19.838 12.7022 19.9326C12.817 20.0541 12.925 20.1689 13.0465 20.26C13.6293 20.6996 13.8703 21.2756 13.7846 22.0211C13.7475 22.3418 13.7569 22.6653 13.7664 23.0083C13.7691 23.0927 13.7711 23.1792 13.7731 23.2663H14.2323C14.2323 23.1488 14.2316 23.032 14.2316 22.9158C14.2303 22.3574 14.2296 21.8293 14.2384 21.2898C14.2417 21.1176 14.3174 20.9279 14.4322 20.8063C14.6401 20.5855 14.8576 20.3694 15.0676 20.1594C15.2269 20.0008 15.3924 19.836 15.5511 19.6719C15.7124 19.5051 15.8887 19.4727 16.1054 19.5686L16.1514 19.5888C16.8117 19.8826 17.4944 20.1864 18.1744 20.4599C18.6721 20.6598 18.9381 21.0744 18.9435 21.6578C18.9557 23.084 18.9536 24.533 18.9523 25.9349C18.9516 26.4508 18.9509 26.9667 18.9509 27.4825V27.5953H18.9516ZM14.0115 20.5801L13.8676 20.4363C13.7623 20.331 13.6563 20.2283 13.5516 20.1257C13.2653 19.8468 12.9696 19.5585 12.7062 19.2492C12.5887 19.1114 12.6279 18.9197 12.6657 18.734C12.6799 18.6638 12.6947 18.5908 12.7015 18.5233L12.7258 18.2728L12.9655 18.3504C13.6867 18.5841 14.3356 18.5915 14.9508 18.3741L15.1047 18.32L15.1905 18.4592C15.4896 18.9433 15.4768 19.1047 15.1088 19.4747C14.8994 19.6854 14.6901 19.8961 14.4733 20.1149L14.0115 20.5801ZM13.0317 19.0068C13.2782 19.2938 13.5483 19.5571 13.8339 19.836C13.892 19.8927 13.9507 19.9501 14.0088 20.0075L14.1843 19.8299C14.4011 19.6105 14.6104 19.3998 14.8204 19.1891C14.8717 19.1378 14.9919 19.0162 14.9953 18.9744C14.9973 18.944 14.9643 18.8758 14.9264 18.8083C14.3383 18.9825 13.7258 18.9811 13.0648 18.8029C13.0641 18.8069 13.0634 18.811 13.0621 18.815C13.0499 18.8758 13.0317 18.9649 13.0317 19.0068ZM14.0243 18.0878C13.9521 18.0878 13.8798 18.0844 13.8069 18.0776C13.0817 18.0121 12.4449 17.6272 12.1039 17.0479C11.7453 16.4395 11.6069 15.7507 11.6542 14.8148L11.6623 14.6534L11.8216 14.6257C12.2849 14.5447 12.6191 14.3313 12.844 13.9728C12.9426 13.8148 13.1755 13.804 13.2214 13.8033C13.7421 13.7972 14.2694 13.7972 14.7887 13.8033C14.8339 13.804 15.0662 13.8141 15.1662 13.9735C15.3897 14.33 15.7253 14.544 16.1912 14.6264L16.3526 14.6548L16.358 14.8189C16.3877 15.6899 16.3235 16.6029 15.6544 17.376C15.2627 17.8298 14.6651 18.0878 14.0243 18.0878ZM12.0532 14.9911C12.0316 15.7635 12.1572 16.3395 12.453 16.8426C12.7278 17.3099 13.2478 17.6205 13.8433 17.6745C14.4355 17.7285 14.9973 17.5179 15.3485 17.112C15.8873 16.4888 15.9711 15.7311 15.9576 14.9917C15.472 14.8709 15.0966 14.6109 14.8407 14.2179C14.8258 14.2138 14.8035 14.2098 14.784 14.2091C14.2681 14.203 13.7441 14.203 13.2262 14.2091C13.2059 14.2091 13.1836 14.2132 13.1688 14.2179C12.9115 14.6116 12.5367 14.8715 12.0532 14.9911ZM14.8225 14.1882C14.8225 14.1889 14.8225 14.1889 14.8225 14.1882C14.8225 14.1889 14.8225 14.1889 14.8225 14.1882ZM13.1877 14.1875C13.1877 14.1882 13.1877 14.1882 13.1877 14.1875C13.1877 14.1882 13.1877 14.1882 13.1877 14.1875ZM11.6454 14.1801V13.9248C11.6454 13.7783 11.6454 13.6345 11.6447 13.492C11.644 13.0423 11.6427 12.6169 11.6515 12.1874C11.6542 12.0395 11.7588 11.8653 11.8898 11.791C13.293 10.9963 14.7171 10.9963 16.123 11.7924C16.2358 11.8565 16.3546 12.0132 16.3573 12.1651C16.3654 12.6061 16.3647 13.0382 16.3641 13.4947C16.3641 13.6311 16.3634 13.7675 16.3634 13.9053V14.1281L16.1412 14.1065C15.8029 14.0741 15.5956 13.8985 15.5261 13.5859C15.4788 13.3752 15.4383 13.3434 15.2121 13.3428C14.3896 13.3394 13.5753 13.3394 12.7926 13.3428C12.5705 13.3434 12.53 13.3759 12.4827 13.5899C12.4024 13.9572 12.1255 14.0666 11.8939 14.1213L11.6454 14.1801ZM14.0027 12.9363C14.4024 12.9363 14.8076 12.9369 15.2141 12.939C15.628 12.941 15.8333 13.1031 15.9218 13.4988C15.9305 13.5393 15.942 13.5737 15.9589 13.6014C15.9589 13.5656 15.9589 13.5298 15.9589 13.494C15.9596 13.043 15.9603 12.6169 15.9528 12.1834C15.9467 12.1705 15.9319 12.1503 15.9218 12.1435C14.6509 11.4244 13.3605 11.4237 12.0897 12.1435C12.0796 12.1516 12.0593 12.1847 12.0559 12.2009C12.0478 12.6202 12.0485 13.043 12.0499 13.4906C12.0499 13.5271 12.0499 13.5636 12.0499 13.6C12.0681 13.573 12.0782 13.5413 12.0863 13.5042C12.1741 13.1044 12.378 12.941 12.7899 12.939C13.1877 12.9369 13.5928 12.9363 14.0027 12.9363Z" fill="url(#paint5_linear_294_232)"/>
<path d="M25.6555 13.5702C25.6555 16.1632 25.6555 18.7291 25.6555 21.314C25.3637 21.314 25.0916 21.314 24.7986 21.314C24.7986 18.7453 24.7986 16.1801 24.7986 13.5837C24.0754 13.5837 23.3718 13.5837 22.6499 13.5837C22.6499 13.2812 22.6499 13.0091 22.6499 12.7093C23.9241 12.7093 25.1929 12.7093 26.5252 12.7093C25.2138 10.9198 23.9376 9.17837 22.6317 7.39638C21.3365 9.16149 20.0563 10.907 18.7355 12.7072C19.1413 12.7072 19.4938 12.7066 19.8463 12.7072C20.3432 12.7079 20.4742 12.8355 20.4742 13.3231C20.4749 14.3994 20.4742 15.4764 20.4742 16.571C20.1846 16.571 19.9124 16.571 19.6187 16.571C19.6187 15.5791 19.6187 14.5946 19.6187 13.5702C19.2527 13.5702 18.9063 13.5702 18.5606 13.5702C18.3627 13.5702 18.1656 13.5702 17.9677 13.5702C17.7651 13.5695 17.5599 13.5155 17.5139 13.3102C17.4802 13.1576 17.5079 12.9443 17.5956 12.8187C18.0987 12.0968 18.6274 11.3939 19.1481 10.6842C20.1461 9.32288 21.1448 7.96224 22.1435 6.60094C22.4946 6.12286 22.7674 6.12488 23.1226 6.60904C24.6095 8.63615 26.0964 10.6633 27.5833 12.6904C27.6258 12.7484 27.6704 12.8052 27.7075 12.8659C27.9176 13.2096 27.742 13.5547 27.3375 13.5668C26.8797 13.5803 26.4212 13.5702 25.9634 13.5709C25.8682 13.5702 25.7716 13.5702 25.6555 13.5702Z" fill="url(#paint6_linear_294_232)"/>
<path d="M25.8582 21.5174H24.5962V13.7871H22.4475V12.5075H26.1256L22.6318 7.74025L19.1361 12.5055C19.3832 12.5055 19.6155 12.5055 19.8471 12.5055C20.4596 12.5062 20.677 12.7209 20.6777 13.3239C20.6783 14.0856 20.6783 14.8473 20.6777 15.615V16.7744H19.417V13.7736H18.4426C18.2846 13.7736 18.1259 13.7736 17.9679 13.7736C17.4824 13.7723 17.3514 13.511 17.3169 13.355C17.2683 13.1369 17.3149 12.8688 17.4304 12.7034C17.8099 12.1591 18.2089 11.6175 18.5959 11.0942C18.7262 10.918 18.8558 10.7417 18.9855 10.5648L19.1914 10.2839C20.1213 9.01648 21.0504 7.74903 21.9802 6.48158C22.1187 6.29319 22.3368 6.04199 22.6285 6.04199C22.9229 6.04199 23.1444 6.29791 23.2855 6.48968L27.7732 12.6068C27.809 12.6547 27.8461 12.7047 27.8806 12.7607C28.021 12.991 28.0386 13.2395 27.9285 13.4428C27.8205 13.6426 27.6071 13.7615 27.3438 13.7696C27.021 13.779 26.6942 13.777 26.3775 13.775C26.2397 13.7743 26.102 13.7736 25.9635 13.7736H25.8575V21.5174H25.8582ZM25.0013 21.1123H25.453V13.3678H25.9635C26.1026 13.3678 26.2411 13.3685 26.3802 13.3692C26.6928 13.3712 27.0163 13.3732 27.3316 13.3637C27.4464 13.3604 27.5342 13.3185 27.572 13.249C27.6112 13.176 27.5976 13.0747 27.5348 12.9714C27.5105 12.9309 27.4802 12.8904 27.4484 12.8479L27.4201 12.8094L22.9593 6.72805C22.779 6.48226 22.6751 6.44579 22.6291 6.44579C22.5839 6.44579 22.4819 6.48158 22.307 6.71994C21.3772 7.98739 20.4474 9.25417 19.5183 10.5216L19.3123 10.8039C19.1827 10.9808 19.0523 11.1577 18.922 11.3339C18.5371 11.8552 18.1387 12.3948 17.7626 12.9343C17.7126 13.0059 17.689 13.1612 17.7126 13.2665C17.7275 13.3334 17.8139 13.3678 17.9686 13.3678C18.1266 13.3678 18.2846 13.3678 18.4426 13.3678H19.8221V16.3686H20.2725V15.6144C20.2725 14.8466 20.2725 14.0849 20.2725 13.3239C20.2725 12.9498 20.2327 12.9113 19.8464 12.9107C19.6094 12.9107 19.3731 12.9107 19.1199 12.9107H18.3359L22.6318 7.05487L26.9251 12.9127H22.8526V13.382H25.0013V21.1123Z" fill="url(#paint7_linear_294_232)"/>
<path d="M11.4019 27.796C11.1122 27.796 10.8536 27.796 10.5747 27.796C10.5747 26.9431 10.5747 26.0977 10.5747 25.2334C10.8435 25.2334 11.1149 25.2334 11.4019 25.2334C11.4019 26.0842 11.4019 26.9296 11.4019 27.796Z" fill="url(#paint8_linear_294_232)"/>
<path d="M11.6044 27.999H10.3721V25.0312H11.6044V27.999ZM10.7772 27.5938H11.1993V25.4364H10.7772V27.5938Z" fill="url(#paint9_linear_294_232)"/>
<path d="M16.5938 27.7856C16.5938 26.9557 16.5937 26.1502 16.5944 25.3439C16.5944 25.3101 16.6025 25.2764 16.6086 25.2305C16.8841 25.2305 17.1502 25.2305 17.4358 25.2305C17.4358 26.0752 17.4358 26.9213 17.4358 27.7863C17.1677 27.7856 16.8963 27.7856 16.5938 27.7856Z" fill="url(#paint10_linear_294_232)"/>
<path d="M17.6378 27.9883H16.3906V27.3468C16.3906 26.6702 16.3906 26.0071 16.3913 25.3434C16.3913 25.3049 16.3967 25.2711 16.4014 25.2414C16.4035 25.2299 16.4055 25.2178 16.4068 25.2043L16.4298 25.0273H17.6378V27.9883ZM16.7965 27.5832H17.2333V25.4325H16.7971C16.7965 26.0659 16.7965 26.7006 16.7965 27.3468V27.5832Z" fill="url(#paint11_linear_294_232)"/>
<defs>
<linearGradient id="paint0_linear_294_232" x1="-1.46037" y1="10.8206" x2="14.4029" y2="17.2975" gradientUnits="userSpaceOnUse">
<stop stop-color="#20D4FE"/>
<stop offset="1" stop-color="#B722FF"/>
</linearGradient>
<linearGradient id="paint1_linear_294_232" x1="-1.72835" y1="10.7416" x2="14.7014" y2="17.5306" gradientUnits="userSpaceOnUse">
<stop stop-color="#20D4FE"/>
<stop offset="1" stop-color="#B722FF"/>
</linearGradient>
<linearGradient id="paint2_linear_294_232" x1="7.17663" y1="2.94508" x2="19.8014" y2="11.505" gradientUnits="userSpaceOnUse">
<stop stop-color="#20D4FE"/>
<stop offset="1" stop-color="#B722FF"/>
</linearGradient>
<linearGradient id="paint3_linear_294_232" x1="6.90934" y1="2.86593" x2="20.0744" y2="11.7451" gradientUnits="userSpaceOnUse">
<stop stop-color="#20D4FE"/>
<stop offset="1" stop-color="#B722FF"/>
</linearGradient>
<linearGradient id="paint4_linear_294_232" x1="6.58047" y1="15.7817" x2="24.0568" y2="22.5487" gradientUnits="userSpaceOnUse">
<stop stop-color="#20D4FE"/>
<stop offset="1" stop-color="#B722FF"/>
</linearGradient>
<linearGradient id="paint5_linear_294_232" x1="6.31499" y1="15.7018" x2="24.3613" y2="22.7738" gradientUnits="userSpaceOnUse">
<stop stop-color="#20D4FE"/>
<stop offset="1" stop-color="#B722FF"/>
</linearGradient>
<linearGradient id="paint6_linear_294_232" x1="15.8452" y1="10.8189" x2="31.653" y2="17.2411" gradientUnits="userSpaceOnUse">
<stop stop-color="#20D4FE"/>
<stop offset="1" stop-color="#B722FF"/>
</linearGradient>
<linearGradient id="paint7_linear_294_232" x1="15.5778" y1="10.7399" x2="31.9515" y2="17.4727" gradientUnits="userSpaceOnUse">
<stop stop-color="#20D4FE"/>
<stop offset="1" stop-color="#B722FF"/>
</linearGradient>
<linearGradient id="paint8_linear_294_232" x1="10.4418" y1="26.0113" x2="11.8687" y2="26.2852" gradientUnits="userSpaceOnUse">
<stop stop-color="#20D4FE"/>
<stop offset="1" stop-color="#B722FF"/>
</linearGradient>
<linearGradient id="paint9_linear_294_232" x1="10.174" y1="25.9322" x2="12.2515" y2="26.4451" gradientUnits="userSpaceOnUse">
<stop stop-color="#20D4FE"/>
<stop offset="1" stop-color="#B722FF"/>
</linearGradient>
<linearGradient id="paint10_linear_294_232" x1="16.4584" y1="26.0063" x2="17.9088" y2="26.2905" gradientUnits="userSpaceOnUse">
<stop stop-color="#20D4FE"/>
<stop offset="1" stop-color="#B722FF"/>
</linearGradient>
<linearGradient id="paint11_linear_294_232" x1="16.1902" y1="25.9262" x2="18.2893" y2="26.4519" gradientUnits="userSpaceOnUse">
<stop stop-color="#20D4FE"/>
<stop offset="1" stop-color="#B722FF"/>
</linearGradient>
</defs>
</svg>
