<svg width="200" height="57" viewBox="0 0 200 57" fill="none" xmlns="http://www.w3.org/2000/svg">
<g clip-path="url(#clip0_350_140)">
<path d="M35.9249 32.4078L23.5641 39.702C23.1273 39.9641 22.5813 39.9641 22.1664 39.7457L11.7275 34.1112C10.8539 33.6526 10.3516 32.7354 10.3516 31.7963L10.4826 20.6149C10.4826 19.7195 10.9849 18.8459 11.793 18.4091L23.3675 11.5736C23.4986 11.5081 23.6733 11.5081 23.8043 11.5736L33.2169 16.662C33.3697 16.7275 33.5226 16.7275 33.6536 16.662L43.1098 11.0494C43.4156 10.8529 43.4156 10.4161 43.1098 10.2851L24.6342 0.30474C23.8043 -0.132037 22.8653 -0.132037 22.1009 0.348417L1.55056 12.469C0.786198 12.9276 0.305744 13.7793 0.240227 14.6747L0 37.9112C0 38.894 0.502293 39.7893 1.37585 40.2261L21.817 51.2329C22.6469 51.6697 23.6296 51.6697 24.394 51.1674L44.988 38.61C45.2937 38.4135 45.4903 38.1078 45.4903 37.7365L45.6213 26.9918C45.6213 26.686 45.2501 26.4895 44.988 26.6205L35.9249 32.4078Z" fill="white"/>
<path d="M24.3942 24.1955L23.8482 24.5012C23.0838 24.9598 22.0793 24.9598 21.3149 24.5667L13.4529 20.3955C13.0598 20.199 12.623 20.461 12.623 20.8978V30.8345C12.623 31.3805 12.8851 31.8391 13.3656 32.1448L21.5333 36.9057C22.1011 37.2114 22.8436 37.2114 23.3678 36.9057L44.4641 24.4576C44.7261 24.3047 44.9008 23.9989 44.9227 23.6277L45.1192 12.7519C45.1192 12.4899 44.8135 12.2933 44.5733 12.4462L24.3942 24.1955Z" fill="white"/>
<path d="M22.9108 22.8626L29.9429 18.7132C30.3141 18.5167 30.3141 17.9707 29.9429 17.7742L23.0418 14.0179C22.8889 13.9524 22.6705 13.9524 22.4958 14.0179L15.42 18.2109C15.0488 18.4075 15.0488 18.9535 15.42 19.15L22.343 22.9063C22.5395 22.9718 22.7579 22.9718 22.9108 22.8626Z" fill="white"/>
<path d="M54.7285 27.0157C54.7285 25.1376 55.0343 23.4342 55.6239 21.7307C56.1917 20.0928 57.1089 18.6515 58.2446 17.4503C59.3802 16.2492 60.7779 15.2665 62.3939 14.5021C64.0319 13.8033 65.8663 13.4102 67.9847 13.4102C69.3605 13.4102 70.6053 13.5412 71.741 13.7814C72.8766 14.0216 74.0122 14.3492 75.0605 14.8515L73.5317 20.6825C72.8329 20.4204 72.0904 20.1802 71.2605 19.9836C70.4306 19.7871 69.5571 19.6779 68.5088 19.6779C66.3686 19.6779 64.7525 20.3549 63.6824 21.6871C62.6123 23.0192 62.0664 24.7663 62.0664 26.9721C62.0664 29.287 62.5687 31.0778 63.5514 32.3663C64.5341 33.6548 66.3031 34.2662 68.749 34.2662C69.6444 34.2662 70.5835 34.2007 71.5881 34.026C72.5927 33.8513 73.5317 33.5892 74.3616 33.2617L75.3662 39.2455C74.4927 39.6168 73.4662 39.9225 72.1996 40.1846C70.8892 40.4466 69.5571 40.5777 67.9847 40.5777C65.6479 40.5777 63.5951 40.2064 61.9353 39.5076C60.2537 38.8087 58.8561 37.8696 57.7423 36.6685C56.6285 35.4674 55.8641 34.0479 55.3618 32.3881C54.9906 30.7283 54.7285 28.9594 54.7285 27.0157Z" fill="white"/>
<path d="M100.852 26.9502C100.852 28.9812 100.546 30.8375 99.9567 32.4973C99.3889 34.1789 98.5154 35.6202 97.4234 36.7777C96.3315 37.957 94.9993 38.8961 93.4488 39.5512C91.8764 40.2282 90.1729 40.534 88.2511 40.534C86.373 40.534 84.6696 40.2282 83.0972 39.5512C81.5248 38.8742 80.2144 37.9788 79.1225 36.7777C78.0306 35.5984 77.1133 34.157 76.5455 32.4973C75.9122 30.8157 75.6064 28.9812 75.6064 26.9502C75.6064 24.9192 75.9122 23.0629 76.5455 21.4032C77.1788 19.7434 78.0742 18.3239 79.188 17.1446C80.3018 15.9653 81.6558 15.0699 83.2064 14.3929C84.7788 13.7159 86.4603 13.4102 88.2948 13.4102C90.1729 13.4102 91.8545 13.7159 93.4269 14.3929C94.9993 15.0699 96.3097 15.9653 97.4016 17.1446C98.4935 18.3239 99.4108 19.7216 99.9786 21.4032C100.525 23.1066 100.852 24.9411 100.852 26.9502ZM93.4051 26.9502C93.4051 24.679 92.9683 22.9319 92.0729 21.6216C91.1775 20.3112 89.889 19.7216 88.2511 19.7216C86.6132 19.7216 85.281 20.3549 84.3638 21.6216C83.4684 22.9319 82.988 24.679 82.988 26.9502C82.988 29.2215 83.4466 30.9686 84.3638 32.3007C85.2592 33.6329 86.5477 34.3099 88.2511 34.3099C89.9546 34.3099 91.1994 33.6329 92.0729 32.3007C92.9465 30.9904 93.4051 29.2215 93.4051 26.9502Z" fill="white"/>
<path d="M126.23 36.6699C126.23 40.8848 125.16 44.0078 123.019 46.0388C120.879 48.0698 117.603 49.0962 113.083 49.0962C111.51 49.0962 109.96 48.9434 108.387 48.6595C106.815 48.3974 105.374 48.0261 104.041 47.5675L105.352 41.4308C106.487 41.8894 107.689 42.2607 108.933 42.5227C110.178 42.7848 111.641 42.9158 113.214 42.9158C115.288 42.9158 116.773 42.4572 117.625 41.54C118.499 40.6446 118.936 39.4653 118.936 38.0239V37.0849C118.171 37.4561 117.319 37.7182 116.511 37.9147C115.682 38.1113 114.808 38.1768 113.76 38.1768C110.2 38.1768 107.47 37.1067 105.592 35.0102C103.714 32.9137 102.753 29.9654 102.753 26.1655C102.753 24.2873 103.059 22.5839 103.648 21.0115C104.216 19.4391 105.09 18.1288 106.225 17.0368C107.361 15.9449 108.737 15.0932 110.375 14.4598C112.013 13.892 113.847 13.5645 115.922 13.5645C116.817 13.5645 117.734 13.6081 118.673 13.6955C119.613 13.7828 120.508 13.892 121.447 14.0012C122.342 14.1323 123.26 14.2633 124.068 14.4598C124.898 14.6564 125.64 14.8311 126.273 15.0058V36.6699H126.23ZM110.222 26.1873C110.222 30.2493 111.86 32.324 115.136 32.324C115.878 32.324 116.577 32.2585 117.254 32.0183C117.931 31.8217 118.455 31.5815 118.936 31.3194V19.7012C118.564 19.6356 118.171 19.5701 117.625 19.5483C117.123 19.5046 116.555 19.4828 115.922 19.4828C114.022 19.4828 112.559 20.1161 111.641 21.3828C110.68 22.6276 110.222 24.2436 110.222 26.1873Z" fill="white"/>
<path d="M129.396 27.2112C129.396 24.94 129.767 22.9308 130.466 21.2274C131.164 19.524 132.104 18.1044 133.239 16.947C134.375 15.8114 135.707 14.9378 137.192 14.37C138.677 13.8022 140.206 13.4746 141.778 13.4746C145.425 13.4746 148.308 14.6102 150.448 16.8378C152.567 19.0435 153.615 22.363 153.615 26.6871C153.615 27.1239 153.615 27.5825 153.571 28.0848C153.527 28.5871 153.506 29.0239 153.506 29.417H136.974C137.126 30.902 137.847 32.125 139.092 32.9767C140.337 33.8721 141.975 34.3089 144.093 34.3089C145.425 34.3089 146.736 34.1778 148.046 33.9376C149.356 33.6974 150.383 33.3916 151.213 33.0422L152.195 38.9824C151.802 39.1789 151.3 39.3755 150.623 39.5502C149.946 39.7249 149.247 39.9214 148.439 40.0525C147.675 40.2053 146.801 40.3145 145.862 40.4237C144.967 40.5548 144.028 40.5766 143.11 40.5766C140.795 40.5766 138.764 40.2053 137.061 39.572C135.358 38.8732 133.938 37.9341 132.802 36.7548C131.667 35.5755 130.859 34.1341 130.291 32.5399C129.679 30.8802 129.396 29.133 129.396 27.2112ZM146.583 24.4377C146.539 23.8044 146.43 23.2366 146.277 22.6251C146.124 22.0573 145.818 21.5331 145.447 21.0527C145.054 20.5941 144.574 20.2228 144.049 19.9171C143.482 19.6113 142.739 19.4803 141.931 19.4803C141.101 19.4803 140.402 19.6332 139.813 19.9171C139.245 20.1791 138.721 20.5504 138.328 21.009C137.934 21.4676 137.629 21.9918 137.432 22.6251C137.236 23.1929 137.061 23.8262 136.974 24.4595H146.583V24.4377Z" fill="white"/>
<path d="M156.76 15.0687C158.005 14.6974 159.599 14.3698 161.586 14.0641C163.53 13.7583 165.604 13.6055 167.745 13.6055C169.929 13.6055 171.719 13.8675 173.204 14.479C174.646 15.0468 175.825 15.8549 176.655 16.9031C177.528 17.9732 178.096 19.1744 178.468 20.6157C178.839 22.0571 179.014 23.6732 179.014 25.4421V39.9649H171.719V26.3375C171.719 24.0008 171.414 22.3192 170.78 21.3364C170.147 20.3537 168.968 19.8514 167.308 19.8514C166.806 19.8514 166.216 19.8951 165.626 19.9169C165.037 19.9387 164.534 20.0479 164.054 20.0698V39.8776H156.76V15.0687Z" fill="white"/>
<path d="M182.901 7.73203L190.196 6.55273V14.1526H198.931V20.202H190.196V29.2651C190.196 30.7938 190.458 32.0386 191.025 32.934C191.593 33.8294 192.663 34.3099 194.279 34.3099C195.044 34.3099 195.896 34.2444 196.704 34.0697C197.533 33.9168 198.32 33.6984 198.975 33.4363L199.979 39.0926C199.084 39.4638 198.101 39.7696 197.031 40.0317C195.939 40.2937 194.651 40.4248 193.078 40.4248C191.069 40.4248 189.431 40.1627 188.165 39.5949C186.854 39.0489 185.828 38.2846 185.042 37.3236C184.277 36.3409 183.709 35.2053 183.404 33.8076C183.098 32.4317 182.945 30.9249 182.945 29.287V7.71019H182.901V7.73203Z" fill="white"/>
<path d="M136.362 55.5151H140.381V56.6508H134.921V45.3164H136.362V55.5151Z" fill="white"/>
<path d="M158.092 54.009H153.135L152.195 56.6296H150.623L154.816 45.5137H156.454L160.647 56.6296H159.075L158.092 54.009ZM157.655 52.8952L155.58 47.1953L153.506 52.8952H157.655Z" fill="white"/>
<path d="M178.926 51.7589C179.363 52.2612 179.603 52.8945 179.603 53.5715C179.603 54.5106 179.297 55.2094 178.664 55.7772C178.031 56.3232 177.135 56.6071 175.912 56.6071H171.697V45.3164H175.847C176.982 45.3164 177.856 45.5566 178.424 46.0589C178.991 46.5612 179.319 47.2601 179.319 48.1336C179.319 48.8761 179.122 49.4658 178.751 49.9026C178.358 50.3612 177.856 50.6451 177.266 50.7761C177.943 50.929 178.489 51.2566 178.926 51.7589ZM173.182 50.252H175.606C176.305 50.252 176.851 50.0991 177.244 49.7497C177.637 49.4439 177.812 48.9853 177.812 48.352C177.812 47.7842 177.616 47.3474 177.266 46.9762C176.917 46.6049 176.327 46.4739 175.563 46.4739H173.182V50.252ZM177.441 54.8818C177.878 54.5106 178.074 54.0083 178.074 53.3968C178.074 52.7853 177.834 52.2612 177.397 51.9117C176.96 51.5405 176.327 51.3658 175.585 51.3658H173.16V55.3841H175.628C176.414 55.3841 177.004 55.2312 177.441 54.8818Z" fill="white"/>
<path d="M197.794 55.1868C197.532 55.6455 197.117 56.0167 196.615 56.3225C196.113 56.6282 195.436 56.7592 194.671 56.7592C193.929 56.7592 193.274 56.6282 192.662 56.3661C192.094 56.1041 191.592 55.6891 191.264 55.2305C190.937 54.7719 190.718 54.2259 190.697 53.5926H192.269C192.313 53.8984 192.422 54.2259 192.575 54.5317C192.771 54.8374 193.033 55.0777 193.405 55.2742C193.776 55.4708 194.169 55.5799 194.649 55.5799C195.283 55.5799 195.785 55.4271 196.135 55.0777C196.506 54.7064 196.637 54.3133 196.637 53.7455C196.637 53.2869 196.506 52.9156 196.266 52.6099C196.025 52.3478 195.72 52.1076 195.37 51.9329C194.999 51.78 194.54 51.5616 193.929 51.3869C193.23 51.1467 192.618 50.9283 192.225 50.7099C191.789 50.5133 191.395 50.2076 191.133 49.7708C190.828 49.334 190.675 48.7881 190.675 48.1329C190.675 47.5651 190.828 47.041 191.112 46.5605C191.374 46.1237 191.81 45.7961 192.313 45.4904C192.859 45.2502 193.448 45.1191 194.191 45.1191C195.283 45.1191 196.2 45.3812 196.833 45.949C197.51 46.495 197.838 47.1502 197.969 48.0237H196.397C196.331 47.5651 196.091 47.1502 195.698 46.8444C195.305 46.4731 194.802 46.3421 194.169 46.3421C193.601 46.3421 193.099 46.495 192.771 46.8007C192.4 47.1065 192.225 47.5433 192.225 48.1111C192.225 48.5478 192.356 48.8754 192.597 49.1812C192.837 49.4432 193.099 49.6398 193.47 49.8145C193.841 49.9674 194.3 50.1202 194.868 50.3168C195.61 50.557 196.2 50.7754 196.637 50.9938C197.074 51.1903 197.467 51.5398 197.772 51.9765C198.078 52.4133 198.231 52.9811 198.231 53.68C198.209 54.2041 198.035 54.7064 197.794 55.1868Z" fill="white"/>
</g>
<defs>
<clipPath id="clip0_350_140">
<rect width="200" height="56.7591" fill="white"/>
</clipPath>
</defs>
</svg>
