<svg width="50" height="48" viewBox="0 0 50 48" fill="none" xmlns="http://www.w3.org/2000/svg">
<g clip-path="url(#clip0_240_95)">
<path d="M35.5072 13.5825C24.3961 13.5825 13.3779 13.5825 2.30398 13.5825C2.30398 16.5182 2.30398 19.4353 2.30398 22.4639C2.5641 22.4639 2.84281 22.4639 3.10294 22.4639C9.58751 22.4639 16.0907 22.4639 22.5752 22.4639C22.7982 22.4639 23.0398 22.4454 23.2627 22.4825C23.8201 22.5568 24.1546 22.9099 24.2103 23.4301C24.2847 23.969 24.0245 24.3963 23.5043 24.5821C23.207 24.675 22.8725 24.6936 22.5567 24.6936C16.0907 24.6936 9.62467 24.6936 3.1401 24.6936C2.86139 24.6936 2.60126 24.6936 2.2854 24.6936C2.2854 27.6665 2.2854 30.5836 2.2854 33.6122C2.54552 33.6122 2.80565 33.6122 3.08436 33.6122C8.43552 33.6122 13.8053 33.6122 19.1564 33.6122C19.3794 33.6122 19.621 33.5936 19.8439 33.6308C20.3828 33.7051 20.7172 34.0396 20.7915 34.5784C20.8473 35.1172 20.6243 35.5446 20.104 35.7304C19.8253 35.8233 19.5095 35.8419 19.2122 35.8419C13.861 35.8419 8.49127 35.8419 3.1401 35.8419C2.86139 35.8419 2.60126 35.8419 2.2854 35.8419C2.26682 36.0648 2.24823 36.2135 2.24823 36.3807C2.24823 38.7776 2.24823 41.1745 2.24823 43.5527C2.24823 44.5747 2.61984 44.9277 3.64177 44.9277C10.3679 44.9277 17.094 44.9277 23.8201 44.9277C24.1174 44.9277 24.4333 44.9277 24.712 45.0206C25.2508 45.1878 25.4738 45.6152 25.4181 46.154C25.3623 46.7114 25.0279 47.0459 24.489 47.1202C24.2847 47.1574 24.0803 47.1388 23.8573 47.1388C17.1498 47.1388 10.4608 47.1388 3.75325 47.1388C1.31921 47.1388 0.0185805 45.8382 0.0185805 43.4041C0.0185805 30.212 0.0557414 17.0013 0 3.79058C0 1.54235 1.56076 -0.0184103 3.80899 0.000170108C13.8424 0.0559115 23.8945 0.0559115 33.9279 0.000170108C36.1576 -0.0184103 37.7741 1.48661 37.7369 3.79058C37.6812 7.98977 37.7183 12.1704 37.7183 16.351C37.7183 16.5739 37.7183 16.8155 37.6626 17.0384C37.5139 17.633 37.1237 17.9675 36.5106 17.9117C35.8974 17.8746 35.5258 17.503 35.5072 16.8712C35.4701 16.0351 35.4887 15.199 35.4887 14.3629C35.4887 14.1213 35.5072 13.8798 35.5072 13.5825ZM2.26681 11.2785C13.3779 11.2785 24.4147 11.2785 35.5072 11.2785C35.5072 10.9812 35.5072 10.7397 35.5072 10.4795C35.5072 8.28705 35.5072 6.11314 35.5072 3.92065C35.5072 2.54569 35.21 2.2484 33.835 2.2484C23.8573 2.2484 13.8982 2.2484 3.92048 2.2484C3.71609 2.2484 3.49312 2.22982 3.28874 2.2484C2.67559 2.30415 2.26681 2.65718 2.26681 3.27033C2.24823 5.92733 2.26681 8.58434 2.26681 11.2785Z" fill="white"/>
<path d="M39.576 24.0615C41.0067 24.749 41.0067 24.749 42.0843 23.6713C43.2363 22.5193 44.4069 22.5193 45.5403 23.6527C45.9119 24.0243 46.3021 24.396 46.6737 24.7861C47.547 25.7152 47.547 26.9229 46.6923 27.8519C46.5436 28.0191 46.3764 28.2049 46.1906 28.335C45.5775 28.7995 45.4102 29.264 45.8004 30.0258C46.042 30.5089 46.3207 30.6018 46.748 30.5647C49.3493 30.3603 50.1483 31.5308 49.9625 33.7791C49.9253 34.1507 49.981 34.5223 49.9253 34.8939C49.7767 35.9716 49.0149 36.6962 47.9372 36.7891C47.6399 36.8263 47.324 36.8449 47.0267 36.7891C46.3021 36.6776 45.8933 36.9192 45.6518 37.6438C45.5031 38.1083 45.5031 38.387 45.8748 38.7215C47.8071 40.3751 47.7885 41.6944 45.8562 43.3666C45.5031 43.6639 45.1873 44.0355 44.7971 44.2585C44.0167 44.723 43.0505 44.5929 42.3445 43.9797C42.1587 43.8125 41.9729 43.6267 41.8056 43.4409C40.9138 42.5676 40.9138 42.5491 39.8361 43.1622C39.706 43.2365 39.576 43.4781 39.576 43.6453C39.5388 44.147 39.576 44.6672 39.5574 45.1689C39.5017 46.2466 38.6655 47.1013 37.5879 47.1384C36.8632 47.1756 36.1572 47.1756 35.4325 47.1384C34.2991 47.1013 33.4816 46.2837 33.3887 45.1689C33.3701 44.8716 33.3329 44.5557 33.3887 44.2585C33.5188 43.4781 33.2215 43.1065 32.4782 42.8463C32.0137 42.6977 31.7722 42.7163 31.4749 43.0693C31.2334 43.348 30.9732 43.6081 30.6945 43.8683C29.7469 44.723 28.5578 44.7415 27.6287 43.8868C27.1457 43.4409 26.6997 42.9764 26.2538 42.5119C25.4363 41.6386 25.4363 40.4495 26.2352 39.5576C26.421 39.3532 26.6068 39.1303 26.8298 38.963C27.4244 38.5357 27.5544 38.0897 27.1828 37.3837C26.9599 36.9378 26.7369 36.7705 26.2538 36.7891C25.7335 36.8077 25.1761 36.8077 24.6559 36.7148C23.6897 36.529 23.0394 35.73 23.0022 34.7453C22.9836 34.0578 22.9836 33.3517 23.0022 32.6643C23.0394 31.5308 23.8941 30.6576 25.0275 30.5832C25.3248 30.5647 25.6406 30.5275 25.9379 30.5832C26.6811 30.7133 27.0713 30.416 27.2943 29.6914C27.4244 29.264 27.4987 28.9667 27.0899 28.6695C26.8484 28.4837 26.6626 28.2607 26.4396 28.0377C25.3434 26.9229 25.3434 25.7337 26.4396 24.6375C26.8112 24.2659 27.1828 23.8757 27.573 23.5041C28.502 22.5936 29.7283 22.5936 30.6759 23.4855C30.8617 23.6527 31.0661 23.82 31.2148 24.0243C31.6607 24.6375 32.1438 24.6747 32.8127 24.3402C33.24 24.1172 33.4073 23.9314 33.3701 23.4669C33.3329 23.021 33.3515 22.5751 33.3887 22.1477C33.4816 21.0515 34.2434 20.2711 35.3211 20.2154C36.1014 20.1782 36.9004 20.1782 37.6808 20.2339C38.7584 20.3083 39.5017 21.1258 39.5574 22.2035C39.5946 22.8352 39.576 23.4669 39.576 24.0615ZM45.113 40.9883C43.515 39.8549 42.8461 38.6472 43.6451 36.6219C44.4626 34.5037 45.9862 34.4851 47.6956 34.5966C47.6956 33.9277 47.6956 33.3889 47.6956 32.7386C45.819 33.0173 44.4441 32.7386 43.6079 30.6761C42.7718 28.6323 43.6637 27.4803 45.0015 26.4398C44.5555 25.9567 44.1839 25.5479 43.738 25.0648C42.6603 26.6442 41.4526 27.3317 39.4273 26.5327C37.3649 25.7152 37.2163 24.2473 37.3649 22.4636C36.7332 22.4636 36.2129 22.4636 35.5812 22.4636C35.767 24.2845 35.544 25.7337 33.5002 26.5513C31.4749 27.3688 30.3043 26.5327 29.2081 25.102C28.7436 25.5479 28.3534 25.9381 27.8703 26.3841C29.3567 27.4989 30.1371 28.6695 29.3381 30.7133C28.502 32.8315 27.0156 32.943 25.269 32.7757C25.269 33.4446 25.269 33.9835 25.269 34.6338C27.1457 34.3551 28.5206 34.6338 29.3567 36.6776C30.1929 38.7215 29.2638 39.8735 28.0375 40.8768C28.4463 41.3971 28.7807 41.8244 29.1338 42.2518C30.1929 41.3227 30.9175 40.0035 32.6269 40.5052C34.8194 41.1555 36.12 42.3633 35.5254 44.8716C36.2129 44.8716 36.7518 44.8716 37.4578 44.8716C36.7146 42.3633 38.071 41.2856 40.1334 40.5609C41.9543 39.9292 42.7347 41.3042 43.7566 42.2146C44.2025 41.843 44.5927 41.4714 45.113 40.9883Z" fill="white"/>
<path d="M12.3188 19.1188C10.5351 19.1188 8.75133 19.1188 6.96761 19.1188C6.22439 19.1188 5.7413 18.7472 5.64839 18.134C5.55549 17.4465 6.07574 16.9077 6.89328 16.8891C8.41688 16.8705 9.95906 16.8891 11.4827 16.8891C13.4893 16.8891 15.5146 16.8891 17.5213 16.8891C18.4132 16.8891 18.9334 17.2793 18.952 17.9668C18.9706 18.6728 18.4317 19.1188 17.5213 19.1188C15.7933 19.1188 14.0468 19.1188 12.3188 19.1188Z" fill="white"/>
<path d="M12.2812 30.2677C10.4975 30.2677 8.71376 30.2863 6.93004 30.2677C5.98244 30.2677 5.42502 29.5617 5.70373 28.7999C5.88953 28.3168 6.24256 28.0566 6.76281 28.0566C10.4417 28.0566 14.1393 28.0566 17.8182 28.0566C18.4871 28.0566 18.933 28.5397 18.9516 29.1343C18.9702 29.766 18.4499 30.2677 17.7067 30.2677C15.9044 30.2863 14.1021 30.2677 12.2812 30.2677Z" fill="white"/>
<path d="M12.3184 39.1855C14.0835 39.1855 15.8486 39.1855 17.5952 39.1855C18.4313 39.1855 18.933 39.6129 18.933 40.2632C18.9516 40.9507 18.4127 41.3966 17.558 41.4152C14.0278 41.4152 10.5161 41.4152 6.98577 41.4152C6.13107 41.4152 5.59224 40.9693 5.61082 40.2818C5.61082 39.5943 6.13107 39.1855 7.02293 39.1855C8.80665 39.1855 10.5532 39.1855 12.3184 39.1855Z" fill="white"/>
<path d="M24.9539 19.7509C23.9692 19.7324 23.1888 18.9334 23.2074 17.9672C23.2259 17.0382 24.0249 16.2578 24.9725 16.2578C25.9387 16.2578 26.7562 17.0754 26.7562 18.023C26.7562 18.9891 25.9387 19.7695 24.9539 19.7509Z" fill="white"/>
<path d="M30.5281 19.7519C29.5433 19.7334 28.7629 18.9158 28.8001 17.9496C28.8373 17.0206 29.6362 16.2402 30.5652 16.2402C31.5314 16.2402 32.349 17.0578 32.3304 18.0054C32.3118 18.9901 31.4943 19.7705 30.5281 19.7519Z" fill="white"/>
<path d="M12.3191 7.97033C10.5354 7.97033 8.75168 7.97033 6.96796 7.97033C6.22474 7.97033 5.74165 7.59872 5.64875 6.98557C5.55585 6.31667 6.05752 5.75926 6.81932 5.74068C8.28717 5.7221 9.73645 5.74068 11.2043 5.74068C13.3039 5.74068 15.4221 5.74068 17.5217 5.74068C18.4507 5.74068 18.9709 6.16803 18.9524 6.87409C18.9338 7.54298 18.3949 7.97033 17.5402 7.97033C15.7937 7.97033 14.0471 7.97033 12.3191 7.97033Z" fill="white"/>
<path d="M23.2627 6.87583C23.2627 5.89107 24.0617 5.07353 25.0093 5.09211C25.9569 5.11069 26.7744 5.96539 26.7558 6.91299C26.7372 7.84201 25.9383 8.64097 25.0278 8.65955C24.0617 8.65955 23.2627 7.84201 23.2627 6.87583Z" fill="white"/>
<path d="M28.8184 6.85726C28.8184 5.87249 29.6359 5.07353 30.5835 5.09211C31.4939 5.11069 32.2929 5.92824 32.3115 6.85726C32.3301 7.80486 31.5125 8.65956 30.5649 8.65956C29.5987 8.65956 28.8184 7.84202 28.8184 6.85726Z" fill="white"/>
<path d="M36.5846 27.4438C40.3007 27.5553 42.8648 30.3052 42.7533 34.077C42.6604 37.5144 39.8176 40.2271 36.4174 40.1342C32.6827 40.0413 30.1 37.2357 30.2115 33.4639C30.3415 29.9893 33.1472 27.3509 36.5846 27.4438ZM40.5422 33.7983C40.5422 31.5129 38.7027 29.6549 36.4545 29.6734C34.2249 29.692 32.4226 31.5129 32.4226 33.7797C32.4226 36.0465 34.2806 37.9417 36.5103 37.9232C38.7399 37.886 40.5422 36.0465 40.5422 33.7983Z" fill="white"/>
</g>
<defs>
<clipPath id="clip0_240_95">
<rect width="50" height="47.1758" fill="white"/>
</clipPath>
</defs>
</svg>
