<svg width="24" height="24" viewBox="0 0 24 24" fill="none" xmlns="http://www.w3.org/2000/svg">
<path d="M21.2172 6.95312V16.5973C21.2172 17.2368 20.9632 17.85 20.511 18.3022C20.0589 18.7543 19.4456 19.0084 18.8062 19.0084H4.33988C3.70043 19.0084 3.08717 18.7543 2.63501 18.3022C2.18285 17.85 1.92883 17.2368 1.92883 16.5973V6.95312" stroke="white" stroke-width="1.62022" stroke-linecap="round" stroke-linejoin="round"/>
<path d="M21.2172 6.95304C21.2172 6.31359 20.9632 5.70033 20.511 5.24817C20.0589 4.79601 19.4456 4.54199 18.8062 4.54199H4.33988C3.70043 4.54199 3.08717 4.79601 2.63501 5.24817C2.18285 5.70033 1.92883 6.31359 1.92883 6.95304L10.2952 12.177C10.6784 12.4165 11.1211 12.5435 11.573 12.5435C12.0249 12.5435 12.4677 12.4165 12.8509 12.177L21.2172 6.95304Z" stroke="white" stroke-width="1.62022" stroke-linecap="round" stroke-linejoin="round"/>
</svg>
