<svg width="32" height="24" viewBox="0 0 32 24" fill="none" xmlns="http://www.w3.org/2000/svg">
<path d="M0 1.62577C0.030873 1.55151 0.065918 1.47892 0.0909502 1.40299C0.372145 0.557736 1.10475 0.0137036 1.99423 0.00285634C2.62921 -0.00465331 3.26419 0.00118753 3.89834 0.00118753C12.5461 0.00118753 21.1939 0.00118753 29.8417 0.00118753C30.9281 0.00118753 31.7216 0.608634 31.9319 1.59657C32.1847 2.78226 31.3044 3.92957 30.092 3.99382C29.9568 4.00049 29.8216 3.99799 29.6865 3.99799C20.6332 3.99799 11.579 3.98631 2.52574 4.01217C1.26913 4.01635 0.390502 3.6175 0 2.37507C0 2.12475 0 1.87526 0 1.62577Z" fill="white"/>
<path d="M0 11.6186C0.0383826 11.5252 0.0801029 11.4326 0.114314 11.3374C0.397177 10.5398 1.11643 10.0099 1.96336 9.99739C2.65007 9.98738 3.33679 9.99489 4.0235 9.99489C12.6296 9.99489 21.2356 9.99489 29.8417 9.99489C30.9272 9.99489 31.7208 10.6032 31.9327 11.5911C32.1864 12.776 31.3052 13.9241 30.092 13.9884C29.9568 13.995 29.8216 13.9925 29.6865 13.9925C20.6332 13.9925 11.579 13.9808 2.52574 14.0067C1.26913 14.0092 0.390502 13.6112 0 12.3688C0 12.1185 0 11.869 0 11.6186Z" fill="white"/>
<path d="M0 21.6118C0.0383826 21.5184 0.0801029 21.4257 0.114314 21.3306C0.397177 20.5329 1.11643 20.0031 1.96336 19.9906C2.65007 19.9805 3.33679 19.9881 4.0235 19.9881C12.6296 19.9881 21.2356 19.9881 29.8417 19.9881C30.9272 19.9881 31.7208 20.5963 31.9327 21.5843C32.1864 22.7691 31.3052 23.9173 30.092 23.9815C29.9568 23.9882 29.8216 23.9857 29.6865 23.9857C20.6332 23.9857 11.579 23.974 2.52574 23.9999C1.26913 24.0024 0.390502 23.6044 0 22.3611C0 22.1116 0 21.8613 0 21.6118Z" fill="white"/>
</svg>
