<svg width="40" height="51" viewBox="0 0 40 51" fill="none" xmlns="http://www.w3.org/2000/svg">
<g clip-path="url(#clip0_216_514)">
<path d="M27.4399 41.4989C27.4399 40.895 27.4399 40.3614 27.4399 39.8277C27.412 39.7996 27.384 39.7715 27.3561 39.7575C26.086 39.6451 26.0721 39.6311 25.8767 38.3531C25.8627 38.2969 25.8627 38.2548 25.8627 38.1986C25.9464 37.2296 25.2905 36.8925 24.5228 36.6678C24.3972 36.6397 24.2297 36.6959 24.1181 36.7661C23.7133 37.0611 23.3225 37.3981 22.9177 37.7071C22.4432 38.0722 22.0943 38.0582 21.6616 37.6509C20.9637 36.9628 20.2659 36.2746 19.5959 35.5724C19.1912 35.1511 19.1632 34.8421 19.4982 34.3506C19.7494 33.9855 19.9728 33.6203 20.2659 33.2833C20.5171 32.9884 20.4752 32.7496 20.3775 32.3985C20.1542 31.6682 19.7494 31.4295 18.9958 31.3733C17.3628 31.2329 17.3628 31.1767 17.3628 29.5336C17.3628 28.8174 17.3628 28.1011 17.3628 27.3849C17.3628 26.8653 17.628 26.5704 18.1304 26.4861C18.3816 26.444 18.6468 26.3737 18.912 26.3737C19.6517 26.3457 20.1123 26.0648 20.3217 25.2924C20.4194 24.9272 20.4473 24.6885 20.1821 24.4076C19.889 24.0846 19.6238 23.7335 19.3726 23.3824C19.0237 22.919 19.0376 22.5819 19.4284 22.1747C20.1263 21.4584 20.8381 20.7562 21.536 20.054C21.8989 19.6889 22.2897 19.6608 22.7084 19.9698C22.9038 20.1102 23.1271 20.2226 23.3085 20.3911C23.8808 20.9528 24.467 21.1073 25.1928 20.6298C25.43 20.4754 25.5975 20.3911 25.6115 20.0681C25.6394 19.5766 25.7231 19.0991 25.779 18.6075C25.8348 18.116 26.1 17.8351 26.5885 17.8211C27.6353 17.807 28.6821 17.807 29.7289 17.8211C30.2034 17.8211 30.4686 18.0879 30.5523 18.5373C30.6361 19.0148 30.7477 19.5063 30.7896 19.9838C30.8175 20.3209 31.0129 20.4192 31.2641 20.5737C31.9899 21.0231 32.4924 20.7984 33.0925 20.2787C34.251 19.2676 34.2929 19.2957 35.3815 20.3911C35.884 20.8967 36.4004 21.4022 36.9029 21.9078C37.3774 22.3994 37.4053 22.6662 37.0145 23.242C36.861 23.4526 36.7354 23.6914 36.5539 23.888C36.0654 24.3936 35.9956 24.8711 36.3446 25.5171C36.54 25.8822 36.7075 26.0929 37.1262 26.1069C37.5588 26.121 37.9915 26.1912 38.4242 26.2614C38.9546 26.3316 39.1918 26.5984 39.1918 27.1321C39.2058 28.1433 39.1918 29.1685 39.1918 30.1796C39.1918 30.6571 38.9546 30.938 38.494 31.0222C37.9776 31.1205 37.4611 31.1908 36.9587 31.3172C36.7772 31.3593 36.5958 31.5278 36.4841 31.6963C36.0236 32.3985 36.1492 32.9603 36.7214 33.6063C37.7403 34.7579 37.6984 34.8 36.5958 35.9095C36.0794 36.4291 35.5769 36.9628 35.0465 37.4683C34.6278 37.8756 34.3068 37.9037 33.8323 37.5807C33.4415 37.3139 33.0507 37.047 32.6878 36.7521C32.4366 36.5414 32.2272 36.5976 31.9341 36.6819C31.1664 36.8925 30.9152 37.3419 30.8594 38.1424C30.7617 39.6451 30.6919 39.6311 29.0589 39.7715C29.0589 39.9681 29.0589 40.1647 29.0589 40.3614C29.0589 42.6364 29.0589 44.9115 29.0589 47.2007C29.0589 49.3915 27.7748 50.6695 25.6115 50.6695C18.2281 50.6695 10.8447 50.6695 3.46139 50.6695C1.28406 50.6695 0 49.3775 0 47.2147C0 45.6699 0 44.1251 0 42.5943C0 41.7517 0.237273 41.5129 1.08866 41.5129C9.64443 41.5129 18.1862 41.5129 26.742 41.5129C26.9653 41.4989 27.1886 41.4989 27.4399 41.4989ZM18.926 27.9888C18.926 28.5084 18.9399 28.9578 18.926 29.4072C18.912 29.7302 19.0516 29.8285 19.3586 29.8426C19.7355 29.8706 20.1263 29.9268 20.5031 29.9549C20.9777 29.997 21.2568 30.2217 21.4104 30.6852C21.5918 31.2469 21.8291 31.7946 22.1082 32.3283C22.3315 32.7777 22.3176 33.1569 22.0245 33.5501C21.7174 33.9574 21.4243 34.3927 21.1312 34.8141C21.5778 35.2635 21.9826 35.6707 22.4153 36.1061C22.834 35.769 23.2667 35.446 23.6854 35.0949C24.0204 34.8141 24.3553 34.8 24.7461 34.9826C25.3184 35.2494 25.8906 35.4882 26.4768 35.6988C26.8955 35.8393 27.1189 36.078 27.1747 36.5134C27.2584 37.0611 27.3701 37.6088 27.4538 38.1284C28.0959 38.1284 28.6681 38.1284 29.2822 38.1284C29.338 37.5947 29.4078 37.0891 29.4497 36.5836C29.4916 36.092 29.7428 35.8112 30.2174 35.6426C30.7756 35.4601 31.32 35.2213 31.8503 34.9545C32.2551 34.7438 32.604 34.7579 32.9669 35.0247C33.3996 35.3477 33.8462 35.6567 34.2091 35.9235C34.6697 35.5022 35.1163 35.0949 35.563 34.6877C35.214 34.2383 34.8791 33.8029 34.5441 33.3816C34.2789 33.0586 34.2789 32.7356 34.4464 32.3564C34.6976 31.7806 34.9488 31.2048 35.1442 30.615C35.2978 30.1515 35.5769 29.9268 36.0375 29.8706C36.5539 29.8004 37.0564 29.7021 37.5728 29.6179C37.5728 28.9859 37.5728 28.396 37.5728 27.7922C37.0145 27.7219 36.4702 27.6517 35.9398 27.5956C35.4932 27.5534 35.2699 27.3006 35.1303 26.9074C34.9349 26.3457 34.7255 25.7839 34.4464 25.2643C34.2091 24.8149 34.2231 24.4497 34.5301 24.0565C34.8372 23.6352 35.1303 23.2139 35.3955 22.8207C34.9488 22.3713 34.5301 21.95 34.0975 21.5146C33.7067 21.8376 33.274 22.1606 32.8553 22.5117C32.5203 22.7926 32.1853 22.7926 31.7945 22.61C31.2502 22.3432 30.6919 22.1044 30.1057 21.9219C29.6591 21.7814 29.4218 21.5286 29.352 21.0933C29.2822 20.6439 29.2124 20.1945 29.1147 19.7451C29.0868 19.6327 28.9333 19.4782 28.8356 19.4642C28.3192 19.4361 27.8028 19.4502 27.2584 19.4502C27.1886 20.04 27.1189 20.5737 27.063 21.1073C27.0212 21.5427 26.7839 21.7814 26.3652 21.9219C25.7929 22.1325 25.2346 22.3572 24.6903 22.6381C24.2855 22.8488 23.9366 22.8347 23.5737 22.5679C23.141 22.2449 22.6944 21.95 22.3036 21.655C21.843 22.0904 21.4104 22.4836 20.9777 22.9049C21.3266 23.3403 21.6616 23.7756 21.9966 24.197C22.2757 24.534 22.2757 24.8711 22.0943 25.2643C21.8291 25.8401 21.5918 26.4159 21.3824 27.0057C21.2429 27.3849 21.0475 27.6377 20.6288 27.7079C20.0705 27.7641 19.5261 27.8764 18.926 27.9888ZM1.57716 43.0999C1.57716 44.5604 1.57716 45.9508 1.57716 47.3552C1.57716 48.4365 2.2192 49.0825 3.30786 49.0825C10.7889 49.0825 18.27 49.0825 25.765 49.0825C26.8258 49.0825 27.4678 48.4506 27.4678 47.3832C27.4817 46.0912 27.4678 44.7851 27.4678 43.4931C27.4678 43.3667 27.4399 43.2263 27.4259 43.0858C18.8004 43.0999 10.2167 43.0999 1.57716 43.0999Z" fill="white"/>
<path d="M27.4678 7.5696C18.8143 7.5696 10.2306 7.5696 1.57716 7.5696C1.57716 7.80835 1.57716 8.00496 1.57716 8.21562C1.57716 18.1727 1.57716 28.1157 1.57716 38.0727C1.57716 38.9153 1.32593 39.3086 0.781603 39.3086C0.25123 39.3086 0 38.9153 0 38.0587C0 26.5428 0 15.0269 0 3.51095C0 1.27799 1.28406 0 3.50326 0C10.9145 0 18.3398 0 25.751 0C27.3422 0 28.5564 0.912846 28.9333 2.3734C29.0031 2.65428 29.031 2.96324 29.031 3.25816C29.031 5.96861 29.0449 8.69311 29.017 11.4036C29.017 11.6423 28.9472 11.9794 28.7937 12.1057C28.5983 12.2602 28.2633 12.3445 27.9981 12.3024C27.6073 12.2462 27.4538 11.8951 27.4538 11.5019C27.4399 10.4205 27.4538 9.32508 27.4538 8.24371C27.4678 8.03305 27.4678 7.80835 27.4678 7.5696ZM27.4678 5.91244C27.4678 5.08385 27.4678 4.32549 27.4678 3.55308C27.4678 2.13466 26.9095 1.58695 25.5138 1.58695C18.1723 1.58695 10.8308 1.58695 3.47534 1.58695C3.33577 1.58695 3.1962 1.58695 3.05663 1.58695C2.28898 1.65717 1.63299 2.23296 1.60508 2.99133C1.56321 3.94631 1.59112 4.91533 1.59112 5.91244C10.2027 5.91244 18.8003 5.91244 27.4678 5.91244Z" fill="white"/>
<path d="M17.3484 10.1124C17.2647 10.3932 17.2228 10.5618 17.167 10.7163C15.6875 14.4659 14.1941 18.2156 12.7007 21.9653C12.6309 22.1479 12.5192 22.3586 12.3796 22.485C12.1005 22.7377 11.7655 22.7518 11.4585 22.5271C11.1235 22.2883 11.0118 21.9653 11.1654 21.5581C11.7237 20.1256 12.2959 18.6931 12.8542 17.2747C13.8033 14.8732 14.7524 12.4717 15.7015 10.0702C15.9387 9.46636 16.4412 9.22761 16.8739 9.52253C17.1111 9.67701 17.2228 9.94384 17.3484 10.1124Z" fill="white"/>
<path d="M22.2622 16.0661C21.2573 15.0971 20.364 14.2685 19.5126 13.3838C19.3172 13.1731 19.1637 12.7939 19.1916 12.5131C19.2614 11.8951 20.043 11.7266 20.5455 12.2181C21.3968 13.0467 22.2203 13.9034 23.0578 14.7601C23.309 15.0129 23.5602 15.2516 23.7835 15.5184C24.0906 15.8695 24.1045 16.2768 23.7835 16.6139C22.6949 17.7514 21.5923 18.8749 20.4617 19.9703C20.1128 20.3074 19.6522 20.2652 19.3451 19.9282C19.052 19.6052 19.066 19.1558 19.4289 18.8047C20.3361 17.9059 21.2573 17.0352 22.2622 16.0661Z" fill="white"/>
<path d="M6.7972 16.053C7.67651 16.8956 8.47207 17.668 9.28159 18.4404C9.39324 18.5528 9.5049 18.6651 9.61656 18.7775C9.96549 19.1707 9.96549 19.6341 9.64447 19.9431C9.3095 20.2661 8.89079 20.238 8.48603 19.8729C8.38833 19.7746 8.29063 19.6763 8.19293 19.578C7.25779 18.637 6.32266 17.682 5.40148 16.7411C4.89903 16.2215 4.89903 15.8704 5.41544 15.3508C6.42036 14.3256 7.42528 13.3004 8.4302 12.2892C8.86287 11.8539 9.3095 11.8117 9.67239 12.1628C10.0074 12.4999 9.97945 12.9774 9.54677 13.4127C8.65351 14.2554 7.77421 15.112 6.7972 16.053Z" fill="white"/>
<path d="M24.0899 28.7612C24.0899 26.43 25.9602 24.5762 28.291 24.5762C30.58 24.5902 32.4363 26.458 32.4503 28.7472C32.4642 31.0504 30.5521 32.9744 28.2631 32.9744C25.9602 32.9884 24.076 31.0925 24.0899 28.7612ZM29.0447 31.1908C30.1753 30.9521 30.9848 29.7162 30.8592 28.5506C30.6917 27.1321 29.603 26.1491 28.2073 26.1631C26.8814 26.1772 25.7648 27.2445 25.6671 28.5506C25.5833 29.8005 26.3789 30.9801 27.4676 31.1768C27.4676 30.9801 27.4676 30.7835 27.4676 30.601C27.4676 29.8285 27.4536 29.0561 27.4815 28.2837C27.4955 27.7641 27.8584 27.4271 28.305 27.4411C28.7377 27.4551 29.0308 27.7922 29.0587 28.2978C29.0726 28.5084 29.0587 28.7191 29.0587 28.9297C29.0447 29.6881 29.0447 30.4324 29.0447 31.1908Z" fill="white"/>
<path d="M14.5297 45.6C15.6463 45.6 16.7629 45.6 17.8795 45.6C18.5494 45.6 18.8844 45.8809 18.8704 46.4005C18.8565 46.892 18.5215 47.1729 17.8934 47.1729C15.6463 47.1729 13.3992 47.1729 11.1381 47.1729C10.524 47.1729 10.1751 46.878 10.1611 46.3864C10.1611 45.8949 10.5101 45.6 11.1242 45.5859C12.2547 45.5859 13.3852 45.6 14.5297 45.6Z" fill="white"/>
<path d="M16.5254 4.53656C15.8834 4.53656 15.2414 4.55061 14.5854 4.53656C14.0829 4.52252 13.7619 4.2276 13.734 3.79224C13.7061 3.34284 14.055 2.9777 14.5575 2.96366C15.8694 2.94961 17.1675 2.94961 18.4794 2.96366C19.0098 2.9777 19.3169 3.3288 19.2889 3.79224C19.261 4.24164 18.9679 4.52252 18.4515 4.53656C17.8095 4.55061 17.1675 4.53656 16.5254 4.53656Z" fill="white"/>
</g>
<defs>
<clipPath id="clip0_216_514">
<rect width="39.1779" height="50.67" fill="white"/>
</clipPath>
</defs>
</svg>
