<svg width="12" height="22" viewBox="0 0 12 22" fill="none" xmlns="http://www.w3.org/2000/svg">
<path d="M1.67961 0.000272677C2.13791 0.0936851 2.46719 0.381513 2.78713 0.702034C5.68175 3.60424 8.58104 6.50178 11.4809 9.39874C11.9375 9.85471 12.129 10.3848 11.9083 11.0054C11.8289 11.2296 11.6818 11.4491 11.513 11.6185C8.53375 14.61 5.54689 17.5951 2.55944 20.579C2.10697 21.0315 1.56401 21.1856 0.958583 20.9591C0.389934 20.7472 0.067077 20.3117 0.00752656 19.7051C-0.0409312 19.2152 0.155235 18.8118 0.498526 18.4703C1.18861 17.7837 1.87578 17.0942 2.56411 16.4064C4.46447 14.5066 6.36425 12.6069 8.26519 10.7071C8.31832 10.654 8.37904 10.609 8.51332 10.4946C8.4094 10.4356 8.32416 10.4082 8.26753 10.3521C5.68175 7.77103 3.09948 5.187 0.514872 2.60415C0.0723307 2.1616 -0.117413 1.64842 0.074666 1.03423C0.225877 0.55024 0.551653 0.229717 1.03681 0.074419C1.11446 0.0498981 1.19153 0.0247936 1.26859 -0.000310953C1.40579 0.000272689 1.54241 0.000272683 1.67961 0.000272677Z" fill="white"/>
</svg>
