<svg width="30" height="26" viewBox="0 0 30 26" fill="none" xmlns="http://www.w3.org/2000/svg">
<path d="M21.5145 19.5761C22.3568 19.0908 23.1812 18.6168 24.0048 18.1419C24.7244 17.7265 25.4423 17.3078 26.1626 16.8948C27.1862 16.3086 28.3554 16.5866 28.9139 17.546C29.4741 18.5062 29.14 19.6713 28.1196 20.2623C25.4277 21.8209 22.7324 23.3738 20.0389 24.9283C19.5006 25.2389 18.9201 25.3918 18.2973 25.3918C15.8932 25.391 13.4899 25.391 11.0857 25.3918C10.528 25.3918 10.0012 25.2698 9.50195 25.0235C9.31333 24.93 9.12308 24.8397 8.88567 24.7251C8.88567 24.9625 8.89218 25.1601 8.88405 25.3576C8.87185 25.682 8.69298 25.8731 8.37102 25.8747C7.09293 25.8812 5.81484 25.8812 4.53676 25.8747C4.21236 25.8731 4.0343 25.6845 4.01885 25.3625C4.01235 25.2227 4.01804 25.0812 4.01804 24.9039C3.88958 24.9039 3.78145 24.9039 3.67413 24.9039C2.69036 24.9039 1.70659 24.9056 0.722815 24.9031C0.301664 24.9023 0.124423 24.73 0.12361 24.3169C0.121171 22.1161 0.121984 19.9152 0.12361 17.7143C0.12361 17.2818 0.296786 17.1159 0.739889 17.1151C1.7139 17.1135 2.6871 17.1143 3.66112 17.1143C3.77007 17.1143 3.87982 17.1143 4.01885 17.1143C4.01885 16.937 4.01235 16.7874 4.02048 16.6386C4.03674 16.3451 4.20829 16.1476 4.49285 16.1459C5.80102 16.1378 7.11001 16.137 8.41818 16.1468C8.7003 16.1484 8.8686 16.3508 8.88486 16.646C8.89218 16.7777 8.88648 16.9094 8.8873 17.0411C8.8873 17.1712 8.8873 17.3013 8.8873 17.4614C9.53691 17.3005 10.1654 17.1793 10.7719 16.9874C11.7955 16.6639 12.789 16.7102 13.8167 17.0029C15.9298 17.6053 18.0583 18.1517 20.182 18.7135C20.7161 18.855 21.1852 19.0899 21.5145 19.5761ZM8.88649 18.4639C8.88649 18.5956 8.88649 18.7062 8.88649 18.8168C8.88649 20.277 8.89868 21.7372 8.87673 23.1974C8.87185 23.5332 8.97348 23.6942 9.27512 23.8316C9.87432 24.1031 10.4402 24.4267 11.1345 24.4226C13.5175 24.4088 15.9005 24.4316 18.2835 24.4031C18.6925 24.3982 19.147 24.2966 19.4998 24.0966C22.2414 22.5453 24.965 20.9624 27.6903 19.3818C28.1912 19.0916 28.344 18.5119 28.0724 18.0444C27.8041 17.5818 27.2147 17.4208 26.722 17.7029C25.148 18.6021 23.578 19.5103 22.0113 20.4233C21.934 20.468 21.8552 20.5916 21.8568 20.677C21.8853 21.8022 20.773 22.9161 19.3437 22.5307C17.4575 22.0226 15.5696 21.5201 13.6826 21.0128C13.337 20.9201 13.1842 20.6892 13.2598 20.3932C13.333 20.1087 13.5915 19.9851 13.9387 20.0762C14.7607 20.2932 15.5818 20.5128 16.4038 20.7331C17.4697 21.0193 18.5331 21.3112 19.6006 21.5908C20.321 21.7795 20.9405 21.2721 20.8755 20.5599C20.8373 20.1363 20.56 19.8371 20.0535 19.7005C17.8933 19.1184 15.7322 18.542 13.572 17.9615C13.024 17.8143 12.476 17.6037 11.9028 17.7314C10.8987 17.9541 9.90115 18.2151 8.88649 18.4639ZM7.88727 24.8966C7.88727 22.3096 7.88727 19.7241 7.88727 17.1346C6.9222 17.1346 5.96607 17.1346 5.01401 17.1346C5.01401 19.7331 5.01401 22.312 5.01401 24.8966C5.97826 24.8966 6.91976 24.8966 7.88727 24.8966ZM4.00097 23.9153C4.00097 21.9713 4.00097 20.0428 4.00097 18.107C3.02777 18.107 2.07245 18.107 1.11876 18.107C1.11876 20.0558 1.11876 21.9852 1.11876 23.9153C2.08952 23.9153 3.03833 23.9153 4.00097 23.9153Z" fill="url(#paint0_linear_294_207)"/>
<path d="M6.44723 26.0005C5.81469 26.0005 5.17646 25.9988 4.53579 25.9964C4.15366 25.9948 3.91463 25.7598 3.89675 25.3679C3.89187 25.2704 3.89349 25.1712 3.89431 25.0663C3.89431 25.0533 3.89431 25.0395 3.89431 25.0256H2.82923C2.12677 25.0256 1.4235 25.0265 0.720224 25.0248C0.229152 25.0232 -0.0001238 24.7988 -0.0001238 24.3167C-0.0025629 22.2077 -0.0025629 20.0474 -0.0001238 17.714C-0.0001238 17.2165 0.227526 16.9937 0.738111 16.9929C1.43325 16.9913 2.12921 16.9921 2.82517 16.9921H3.89431C3.89431 16.9782 3.89431 16.9652 3.89349 16.9522C3.89187 16.8417 3.89105 16.7376 3.89675 16.6327C3.91707 16.2652 4.1496 16.027 4.49026 16.0246C5.82851 16.0164 7.14969 16.0164 8.41721 16.0254C8.75381 16.0278 8.98471 16.2693 9.00422 16.64C9.0091 16.7351 9.00829 16.8311 9.00747 16.9238C9.00666 16.9636 9.00666 17.0026 9.00666 17.0425V17.3075C9.15951 17.2709 9.31155 17.236 9.46196 17.201C9.90344 17.0994 10.3205 17.0026 10.7319 16.8725C11.7092 16.5636 12.7279 16.5685 13.8475 16.8872C15.4906 17.3555 17.172 17.7978 18.798 18.2246C19.2688 18.3482 19.7403 18.4726 20.2111 18.597C20.8176 18.758 21.2461 19.0198 21.5477 19.4165L22.2412 19.0165C22.812 18.6881 23.377 18.3628 23.9421 18.0368C24.2145 17.8791 24.4868 17.7214 24.7592 17.5636C25.2055 17.3051 25.6527 17.0457 26.1007 16.7896C27.1747 16.175 28.4284 16.4733 29.0179 17.4848C29.2967 17.9636 29.3748 18.5124 29.2374 19.0303C29.091 19.5816 28.7154 20.0572 28.1788 20.3678C26.0763 21.5857 23.9364 22.8199 21.8664 24.0134L20.0973 25.0338C19.5452 25.3525 18.9395 25.5135 18.2972 25.5135C18.2964 25.5135 18.2956 25.5135 18.2956 25.5135C15.8914 25.5127 13.4881 25.5118 11.084 25.5135C11.0831 25.5135 11.0823 25.5135 11.0815 25.5135C10.5083 25.5135 9.95791 25.385 9.4457 25.133C9.31887 25.0704 9.19203 25.0094 9.04975 24.9411L9.00585 24.92C9.00585 24.9273 9.00585 24.9354 9.00585 24.9427C9.00747 25.0883 9.00829 25.2257 9.00341 25.3622C8.98796 25.7574 8.75056 25.9948 8.36924 25.9964C7.73914 25.9988 7.09685 26.0005 6.44723 26.0005ZM3.67397 24.7809H4.13984V24.9029C4.13984 24.9614 4.13903 25.0159 4.13903 25.0679C4.13822 25.1736 4.13659 25.2647 4.14147 25.3549C4.15366 25.62 4.28375 25.7501 4.53823 25.7509C5.8342 25.7574 7.12368 25.7566 8.37087 25.7509C8.62047 25.7492 8.75218 25.6151 8.76275 25.3509C8.76763 25.22 8.76682 25.0858 8.76519 24.9427C8.76438 24.8728 8.76356 24.7996 8.76356 24.7232V24.5289L9.15789 24.7191C9.30017 24.7874 9.42863 24.8492 9.55546 24.9118C10.0343 25.1476 10.5482 25.2671 11.0831 25.2671C11.084 25.2671 11.0848 25.2671 11.0848 25.2671C13.4889 25.2655 15.8922 25.2655 18.2964 25.2671C18.2972 25.2671 18.298 25.2671 18.298 25.2671C18.8972 25.2671 19.4623 25.1167 19.9761 24.82L21.7453 23.7996C23.8144 22.6061 25.9543 21.3719 28.0568 20.1548C28.5365 19.8767 28.8723 19.4547 29.0016 18.9661C29.1219 18.5108 29.0528 18.0279 28.8065 17.6059C28.278 16.6994 27.191 16.4441 26.221 16.9994C25.7739 17.2555 25.3275 17.514 24.8811 17.7734C24.6088 17.9311 24.3364 18.0888 24.0632 18.2466C23.4982 18.5726 22.9339 18.8978 22.3624 19.2263L21.4745 19.7377L21.4111 19.6442C21.1379 19.2409 20.7477 18.9897 20.1477 18.8311C19.6769 18.7068 19.2062 18.5832 18.7354 18.4588C17.1085 18.0311 15.4256 17.5888 13.78 17.1197C12.6938 16.8099 11.7482 16.8043 10.8051 17.1026C10.3848 17.236 9.96279 17.3327 9.51643 17.436C9.31724 17.4815 9.11642 17.5287 8.91316 17.5783L8.76194 17.6157V17.04C8.76194 16.9994 8.76194 16.9587 8.76275 16.9189C8.76356 16.8262 8.76438 16.7392 8.76031 16.6514C8.75381 16.5368 8.70828 16.2693 8.41477 16.2677C7.14807 16.2587 5.82851 16.2587 4.49107 16.2668C4.19188 16.2685 4.14553 16.5311 4.13903 16.6441C4.13415 16.7408 4.13496 16.8408 4.13659 16.9473C4.1374 17.0002 4.13822 17.0547 4.13822 17.1124V17.2343H2.82354C2.1284 17.2343 1.43244 17.2343 0.737298 17.2352C0.358424 17.236 0.242973 17.3474 0.242973 17.7124C0.241347 20.0458 0.241347 22.206 0.242973 24.3151C0.242973 24.6614 0.364115 24.7785 0.720224 24.7793C1.42268 24.7809 2.12596 24.7809 2.82842 24.7801L3.67397 24.7809ZM8.00907 25.0183H4.8919V17.0124H8.00907V25.0183ZM5.13581 24.7744H7.76516V17.2563H5.13581V24.7744ZM11.1222 24.5435C10.5083 24.5435 9.98962 24.2996 9.48798 24.0638C9.40098 24.0232 9.31318 23.9817 9.22537 23.9419C8.88145 23.7858 8.74893 23.576 8.75543 23.1947C8.7717 22.1247 8.76926 21.0353 8.76682 19.9824C8.766 19.5938 8.76519 19.2043 8.76519 18.8157V18.3669L8.85788 18.3441C9.1587 18.2702 9.45789 18.1954 9.75546 18.1214C10.4506 17.9474 11.1693 17.7685 11.8783 17.6108C12.3938 17.497 12.8816 17.6368 13.3531 17.7718C13.4377 17.7962 13.5214 17.8197 13.606 17.8425C14.506 18.084 15.406 18.3254 16.3061 18.5669C17.5671 18.9043 18.8273 19.2425 20.0875 19.5824C20.7859 19.7702 20.9688 20.2117 20.9989 20.5483C21.0331 20.9206 20.8973 21.2654 20.6282 21.4938C20.3469 21.732 19.9615 21.8101 19.572 21.7085C18.8671 21.5239 18.1525 21.3304 17.4606 21.1434C17.0988 21.045 16.7362 20.9475 16.3744 20.8507C15.5532 20.6304 14.732 20.4109 13.9101 20.1938C13.7548 20.1523 13.6223 20.1605 13.5263 20.2166C13.454 20.2588 13.4052 20.3288 13.3808 20.4231C13.3052 20.7182 13.5214 20.8426 13.7166 20.8946C14.5198 21.1101 15.3231 21.3255 16.1264 21.5402C17.2102 21.8304 18.2939 22.1199 19.3777 22.4126C19.9859 22.576 20.5769 22.4646 21.0436 22.0979C21.4916 21.7459 21.7501 21.2158 21.7371 20.6792C21.7339 20.5393 21.8453 20.3792 21.9518 20.3174C23.6722 19.3149 25.2137 18.4246 26.6633 17.597C27.2072 17.2864 27.8739 17.4563 28.1796 17.9832C28.3284 18.2393 28.3674 18.5336 28.2894 18.8124C28.2113 19.0921 28.0203 19.332 27.7528 19.4873L26.9861 19.932C24.5576 21.3402 22.0469 22.7963 19.5615 24.202C19.2094 24.4012 18.7444 24.5191 18.2858 24.524C16.8988 24.5403 15.4882 24.5395 14.1247 24.5386C13.145 24.5378 12.132 24.537 11.1368 24.5435C11.1311 24.5435 11.1262 24.5435 11.1222 24.5435ZM9.00829 18.5588V18.8157C9.00829 19.2043 9.0091 19.593 9.00991 19.9816C9.01235 21.0353 9.01479 22.1256 8.99853 23.198C8.99447 23.485 9.06764 23.602 9.32537 23.7191C9.4148 23.7598 9.50261 23.8012 9.59123 23.8427C10.0904 24.0777 10.5628 24.2996 11.1214 24.2996C11.1254 24.2996 11.1295 24.2996 11.1336 24.2996C12.1303 24.2939 13.1434 24.2947 14.1231 24.2947C15.4857 24.2955 16.8955 24.2964 18.2817 24.2801C18.694 24.2752 19.1265 24.1663 19.4395 23.9898C21.9233 22.5849 24.434 21.1288 26.8617 19.7206L27.6284 19.2759C27.8414 19.1523 27.9918 18.9645 28.0528 18.7466C28.1129 18.532 28.0821 18.3043 27.9666 18.1059C27.7284 17.6962 27.208 17.5653 26.782 17.8092C25.3332 18.6368 23.7925 19.5263 22.0721 20.5288C22.0282 20.554 21.9778 20.6393 21.9786 20.6735C21.9941 21.2865 21.7006 21.8906 21.1924 22.2898C20.6639 22.7053 19.9964 22.8329 19.3127 22.6483C18.2297 22.3565 17.1459 22.0662 16.0622 21.7768C15.2589 21.5621 14.4548 21.3467 13.6515 21.1312C13.2434 21.0215 13.0491 20.7271 13.1426 20.3629C13.1832 20.2052 13.2726 20.0824 13.4011 20.0068C13.554 19.9174 13.7507 19.9003 13.9702 19.9588C14.7922 20.1759 15.6142 20.3962 16.4353 20.6158C16.798 20.7133 17.1598 20.8109 17.5224 20.9093C18.2135 21.0963 18.9273 21.2898 19.6314 21.4735C19.9428 21.5548 20.2477 21.4946 20.468 21.3085C20.6761 21.132 20.7802 20.8637 20.7542 20.571C20.72 20.1938 20.4737 19.9401 20.0216 19.819C18.7614 19.4791 17.5012 19.1417 16.2402 18.8035C15.3402 18.562 14.4402 18.3214 13.5401 18.0791C13.4548 18.0563 13.3694 18.0319 13.284 18.0075C12.8214 17.875 12.384 17.7498 11.9295 17.8506C11.2238 18.0067 10.5067 18.1864 9.81319 18.3596C9.54652 18.4254 9.2774 18.4929 9.00829 18.5588ZM4.12277 24.037H0.995842V17.9848H4.12196V24.037H4.12277ZM1.23975 23.7931H3.87805V18.2287H1.23975V23.7931Z" fill="url(#paint1_linear_294_207)"/>
<path d="M6.93426 23.7046C6.93426 23.7956 6.94646 23.8891 6.93182 23.9777C6.88954 24.2412 6.731 24.3948 6.4627 24.4119C6.21147 24.4273 5.99683 24.2355 5.97082 23.9704C5.95537 23.8094 5.96025 23.646 5.96594 23.4842C5.97651 23.1696 6.16432 22.9647 6.43912 22.9582C6.7245 22.9509 6.92369 23.1639 6.9367 23.4915C6.93914 23.5623 6.93751 23.6338 6.93751 23.7046C6.9367 23.7046 6.93589 23.7046 6.93426 23.7046Z" fill="url(#paint2_linear_294_207)"/>
<path d="M6.43411 24.5345C6.13329 24.5345 5.88044 24.2987 5.84954 23.9824C5.83328 23.8125 5.83897 23.6434 5.84466 23.48C5.85767 23.1035 6.09508 22.8442 6.43736 22.8361C6.79103 22.8296 7.0447 23.0946 7.06015 23.4865C7.06177 23.5369 7.06177 23.5873 7.06096 23.6385L7.06015 23.8263C7.06177 23.8816 7.06177 23.9385 7.05283 23.9971C6.99998 24.3223 6.79347 24.5133 6.4707 24.5329C6.4585 24.5345 6.44631 24.5345 6.43411 24.5345ZM6.45362 23.08C6.45037 23.08 6.44631 23.08 6.44306 23.08C6.23248 23.0848 6.0967 23.2418 6.08857 23.4881C6.08369 23.6434 6.078 23.8044 6.09264 23.9589C6.11215 24.1597 6.26907 24.302 6.45525 24.2898C6.66095 24.2768 6.77721 24.1686 6.81136 23.958C6.81949 23.9093 6.81705 23.854 6.81461 23.7954C6.81299 23.7645 6.81217 23.7345 6.81217 23.7044V23.5824H6.81705C6.81705 23.554 6.81705 23.5247 6.81543 23.4962C6.80567 23.2385 6.66745 23.08 6.45362 23.08Z" fill="url(#paint3_linear_294_207)"/>
<path d="M10.1006 11.471C10.1006 11.2043 10.1006 10.971 10.1006 10.7141C9.99738 10.7141 9.90551 10.7141 9.81283 10.7141C7.70138 10.7141 5.58993 10.7141 3.47848 10.7141C3.02969 10.7141 2.9248 10.6084 2.9248 10.1563C2.9248 8.75384 2.9248 7.35217 2.9248 5.94969C2.9248 5.53098 3.03782 5.41878 3.45734 5.41878C5.56879 5.41878 7.68024 5.41878 9.79169 5.41878C9.886 5.41878 9.98031 5.41878 10.112 5.41878C10.112 5.32853 10.112 5.2456 10.112 5.16349C10.112 4.50981 10.1096 3.85613 10.1128 3.20164C10.1161 2.49511 10.595 2.01705 11.3023 2.01542C12.1056 2.01298 12.9097 2.01949 13.7129 2.00892C13.8227 2.00729 13.956 1.95201 14.0365 1.87721C14.3536 1.58208 14.652 1.26743 14.961 0.963357C15.1699 0.758472 15.3976 0.73652 15.5715 0.965796C15.8122 1.28125 16.0594 1.32109 16.3764 1.11621C16.422 1.08694 16.4773 1.07393 16.5423 1.04791C16.5423 0.885306 16.5391 0.721073 16.5431 0.556027C16.5496 0.273904 16.6854 0.129184 16.9618 0.125932C17.4423 0.121054 17.9228 0.120241 18.4033 0.126745C18.6659 0.129997 18.8009 0.276343 18.8123 0.543831C18.8123 0.551962 18.8123 0.559279 18.8123 0.567409C18.8253 1.09263 18.8245 1.09507 19.3375 1.26255C19.3839 1.278 19.4465 1.25036 19.4993 1.23491C19.5188 1.22922 19.5335 1.2032 19.5505 1.18694C20.0904 0.665787 20.0985 0.6666 20.6376 1.20483C20.905 1.4715 21.1311 1.84306 21.4538 1.97477C21.7856 2.11055 22.2132 2.0138 22.5986 2.01542C23.0791 2.01705 23.5596 2.01461 24.0401 2.01624C24.7629 2.01867 25.2418 2.49349 25.2418 3.21465C25.2434 5.86188 25.2426 8.50831 25.2426 11.1555C25.2426 11.2499 25.2426 11.3434 25.2426 11.4718C25.4775 11.4718 25.7028 11.4694 25.9271 11.4726C26.2361 11.4767 26.3743 11.6117 26.3759 11.9206C26.3792 12.4011 26.3824 12.8816 26.3751 13.3621C26.3654 14.0085 25.8792 14.4955 25.2288 14.4963C20.1945 14.4996 15.1593 14.4996 10.125 14.4963C9.46403 14.4963 8.98272 14.0036 8.97621 13.3402C8.97134 12.8678 8.97296 12.3946 8.97621 11.9222C8.97784 11.6125 9.11443 11.4767 9.42338 11.4726C9.64371 11.4686 9.86323 11.471 10.1006 11.471ZM12.3877 11.4547C15.9277 11.4547 19.444 11.4547 22.9547 11.4547C22.9547 9.05711 22.9547 6.67573 22.9547 4.29761C22.7027 4.29761 22.4693 4.29761 22.2165 4.29761C22.2165 4.66266 22.2197 5.01552 22.2157 5.36837C22.2116 5.64887 22.0717 5.78952 21.7945 5.79684C21.6295 5.80172 21.4644 5.79765 21.2929 5.79765C21.2693 5.85538 21.2563 5.91067 21.227 5.95457C21.0067 6.28304 21.0685 6.53508 21.3847 6.77899C21.6002 6.94484 21.5782 7.17249 21.3831 7.37331C21.1254 7.63918 20.8603 7.89772 20.5985 8.15952C20.1107 8.64734 20.0603 8.64815 19.5782 8.16927C19.5505 8.14163 19.527 8.10098 19.4936 8.08878C19.4432 8.07008 19.3782 8.04976 19.3326 8.06683C19.1578 8.13106 18.9879 8.20911 18.8115 8.28472C18.8115 8.45871 18.8155 8.62376 18.8107 8.78881C18.8025 9.05385 18.6627 9.19776 18.3985 9.20101C17.918 9.2067 17.4375 9.2067 16.957 9.20101C16.6919 9.19776 16.5521 9.05467 16.5439 8.78962C16.5391 8.61807 16.5431 8.4457 16.5431 8.2831C16.5098 8.26684 16.4951 8.26115 16.4813 8.25302C16.1252 8.0335 15.8146 8.00016 15.5325 8.39692C15.3992 8.58392 15.1634 8.55953 14.9918 8.39286C14.6414 8.0522 14.2967 7.70666 13.9552 7.35705C13.7788 7.17656 13.756 6.93997 13.9536 6.79931C14.3317 6.5302 14.3154 6.23751 14.1008 5.89197C14.0845 5.86676 14.0747 5.83668 14.0577 5.79928C13.9146 5.79928 13.7739 5.80009 13.6325 5.79928C13.2633 5.79684 13.1398 5.67245 13.1381 5.30089C13.1373 4.96592 13.1381 4.63095 13.1381 4.29923C12.869 4.29923 12.6357 4.29923 12.3926 4.29923C12.3926 4.6716 12.3926 5.03096 12.3926 5.4074C12.7097 5.46756 12.7658 5.69277 12.7641 5.98384C12.756 7.36193 12.7552 8.74084 12.7641 10.1189C12.7666 10.4222 12.721 10.6669 12.3885 10.7376C12.3877 10.984 12.3877 11.2108 12.3877 11.4547ZM11.9836 9.95388C11.9836 8.69937 11.9836 7.44649 11.9836 6.19198C9.21525 6.19198 6.455 6.19198 3.69963 6.19198C3.69963 7.45543 3.69963 8.70181 3.69963 9.95388C6.46638 9.95388 9.21443 9.95388 11.9836 9.95388ZM9.75429 12.2353C9.74372 12.2735 9.7364 12.2881 9.7364 12.3027C9.73477 12.5938 9.73396 12.8857 9.73396 13.1767C9.73396 13.6402 9.83559 13.741 10.3047 13.741C15.2195 13.741 20.1351 13.741 25.0499 13.741C25.1287 13.741 25.2084 13.7475 25.2857 13.7353C25.4686 13.7068 25.6036 13.5971 25.6117 13.4133C25.6288 13.0239 25.6166 12.6328 25.6166 12.2353C20.3156 12.2353 15.0406 12.2353 9.75429 12.2353ZM13.8999 5.04153C14.0512 5.04153 14.1829 5.04316 14.3154 5.04072C14.5349 5.03665 14.6609 5.14723 14.7374 5.34805C14.8544 5.65537 14.9797 5.95945 15.1154 6.25864C15.2008 6.44646 15.1967 6.61069 15.0463 6.75459C14.9447 6.85216 14.8309 6.9359 14.7187 7.0294C14.9292 7.23998 15.1 7.4099 15.3122 7.6221C15.4041 7.51072 15.4878 7.39608 15.5846 7.29445C15.7276 7.14323 15.8919 7.13916 16.0797 7.22371C16.3789 7.35949 16.6838 7.4847 16.9911 7.60178C17.1919 7.6782 17.3033 7.80341 17.3001 8.02293C17.2984 8.16033 17.3001 8.29855 17.3001 8.43188C17.5708 8.43188 17.8041 8.43188 18.057 8.43188C18.057 8.28716 18.0586 8.15545 18.0562 8.02293C18.0521 7.80341 18.1635 7.6782 18.3651 7.60259C18.6725 7.48633 18.9765 7.3603 19.2757 7.22453C19.4635 7.13916 19.6278 7.14404 19.7709 7.29445C19.8676 7.39608 19.9514 7.5099 20.0424 7.61966C20.2538 7.40827 20.4237 7.23835 20.6367 7.02534C20.5441 6.95216 20.4441 6.88793 20.3611 6.80582C20.1408 6.58955 20.14 6.47735 20.2749 6.19929C20.401 5.93912 20.5107 5.6692 20.6067 5.39602C20.701 5.12771 20.7945 5.04397 21.0855 5.04153C21.2075 5.03991 21.3303 5.04153 21.4481 5.04153C21.4481 4.77161 21.4481 4.53827 21.4481 4.2846C21.3042 4.2846 21.1717 4.28297 21.04 4.2846C20.8213 4.28785 20.6945 4.17809 20.618 3.97646C20.501 3.66913 20.3758 3.36506 20.24 3.06586C20.1546 2.87805 20.1587 2.71463 20.3091 2.57072C20.4107 2.47397 20.5245 2.38942 20.6327 2.29836C20.4213 2.09103 20.2497 1.92192 20.0514 1.72761C19.9798 1.80729 19.9058 1.89753 19.8229 1.97965C19.6034 2.19754 19.4912 2.20079 19.2147 2.06664C18.9546 1.94062 18.6846 1.82924 18.4115 1.73411C18.1424 1.6398 18.0578 1.54711 18.0554 1.25686C18.0537 1.13491 18.0554 1.01214 18.0554 0.892623C17.7862 0.892623 17.5529 0.892623 17.2984 0.892623C17.2984 1.01295 17.2992 1.12109 17.2984 1.22922C17.2968 1.55362 17.2228 1.63411 16.9228 1.74062C16.6431 1.83981 16.3675 1.95851 16.1008 2.08941C15.8959 2.18941 15.7268 2.18209 15.5659 2.01705C15.4699 1.91867 15.3699 1.82355 15.2951 1.75037C15.104 1.93656 14.9366 2.09998 14.7422 2.28941C14.8211 2.36015 14.9114 2.43495 14.9935 2.51706C15.2114 2.73577 15.2138 2.84878 15.0805 3.12521C14.9545 3.38538 14.8406 3.6545 14.7504 3.92849C14.6731 4.16183 14.5463 4.29273 14.2935 4.2846C14.1634 4.28053 14.0333 4.28379 13.8991 4.28379C13.8999 4.54802 13.8999 4.77567 13.8999 5.04153ZM21.2945 3.52848C21.9262 3.52848 22.5563 3.52848 23.1864 3.52848C23.6206 3.52848 23.7303 3.63824 23.7303 4.0724C23.7303 6.44402 23.7303 8.81564 23.7303 11.1873C23.7303 11.2783 23.7303 11.3694 23.7303 11.4596C23.9978 11.4596 24.2312 11.4596 24.4669 11.4596C24.4751 11.4271 24.4848 11.4051 24.4848 11.384C24.4856 8.64978 24.4873 5.91554 24.4848 3.18131C24.4848 2.91789 24.3352 2.77967 24.0686 2.77317C23.832 2.76748 23.5954 2.77154 23.3596 2.77154C22.6897 2.77154 22.0197 2.77073 21.3498 2.77236C21.0595 2.77317 21.0099 2.84878 21.1221 3.10489C21.1807 3.24066 21.2335 3.37969 21.2945 3.52848ZM11.6251 5.40821C11.6251 4.93584 11.6243 4.47973 11.6251 4.02443C11.6259 3.65369 11.7503 3.52929 12.1218 3.52929C12.7674 3.52848 13.4129 3.52929 14.0585 3.52929C14.1268 3.36587 14.1894 3.21383 14.2544 3.06342C14.3325 2.88212 14.2756 2.77561 14.0764 2.7748C13.1389 2.77073 12.2007 2.77154 11.2633 2.7748C11.0438 2.77561 10.882 2.89512 10.8779 3.11139C10.8633 3.8732 10.8722 4.63583 10.8722 5.40902C11.1242 5.40821 11.3576 5.40821 11.6251 5.40821ZM10.8771 11.4604C11.1356 11.4604 11.3682 11.4604 11.6113 11.4604C11.6113 11.2108 11.6113 10.9726 11.6113 10.7303C11.3592 10.7303 11.121 10.7303 10.8771 10.7303C10.8771 10.9783 10.8771 11.2108 10.8771 11.4604Z" fill="url(#paint4_linear_294_207)"/>
<path d="M17.6783 14.6202C15.1555 14.6202 12.6318 14.6194 10.1261 14.6177C9.39676 14.6169 8.8626 14.0803 8.85528 13.3413C8.8504 12.825 8.85284 12.3112 8.85528 11.9209C8.85772 11.5477 9.04878 11.355 9.42278 11.3502C9.574 11.3477 9.72441 11.3485 9.88133 11.3493H9.97889V10.8371H3.47788C2.95997 10.8371 2.80225 10.6786 2.80225 10.1574C2.80225 8.75495 2.80225 7.35328 2.80225 5.9508C2.80225 5.46298 2.96729 5.29793 3.45592 5.29793H9.98946V4.55888C9.98865 4.10684 9.98865 3.65479 9.99027 3.20274C9.99353 2.42304 10.5204 1.89701 11.3017 1.89457C11.5846 1.89376 11.8668 1.89376 12.1497 1.89457C12.6619 1.89457 13.1912 1.89538 13.7115 1.88807C13.7896 1.88725 13.8936 1.84416 13.9538 1.78888C14.1522 1.60432 14.3473 1.40756 14.5359 1.21731C14.649 1.10349 14.7612 0.989665 14.8758 0.877466C15.0173 0.738438 15.1701 0.670956 15.3173 0.682338C15.41 0.688843 15.5457 0.73112 15.6693 0.892914C15.8685 1.15471 16.0425 1.18805 16.3108 1.01487C16.3466 0.992104 16.384 0.976657 16.4206 0.963648C16.4206 0.941696 16.4206 0.919744 16.4206 0.897792C16.4197 0.783968 16.4189 0.66933 16.4222 0.553879C16.4303 0.203462 16.6214 0.00833359 16.9612 0.00426843C17.4742 -0.00142281 17.9466 -0.00142281 18.406 0.00426843C18.7288 0.00833359 18.9214 0.202649 18.9345 0.537618C18.9345 0.544123 18.9345 0.549814 18.9345 0.556318V0.565262C18.9401 0.793724 18.9434 0.918931 18.9857 0.97503C19.0288 1.03194 19.1572 1.07422 19.3711 1.14414C19.3841 1.14333 19.4117 1.13439 19.4296 1.12869C19.4345 1.12707 19.4385 1.12544 19.4426 1.12463C19.4499 1.11569 19.458 1.10674 19.4662 1.09861C20.0548 0.531114 20.1369 0.531927 20.7239 1.11812C20.8085 1.20187 20.8882 1.29537 20.9654 1.38643C21.1386 1.58887 21.302 1.78075 21.5004 1.86124C21.7077 1.94579 21.9663 1.92791 22.2394 1.90921C22.3581 1.90108 22.4785 1.89213 22.5996 1.89295C22.8451 1.89376 23.0915 1.89376 23.337 1.89376C23.572 1.89376 23.8062 1.89295 24.0411 1.89376C24.8322 1.89701 25.3639 2.42711 25.3647 3.21412C25.3664 5.12313 25.3656 7.03213 25.3656 8.94113V11.3493H25.4607C25.6192 11.3485 25.7745 11.3485 25.9298 11.3502C26.3054 11.355 26.4965 11.5469 26.4989 11.9193C26.5022 12.364 26.5054 12.8689 26.4981 13.3632C26.4875 14.0779 25.9428 14.6169 25.2298 14.6177C22.7248 14.6194 20.202 14.6202 17.6783 14.6202ZM9.67563 11.5924C9.59189 11.5924 9.50896 11.5924 9.42684 11.5941C9.18456 11.5973 9.10163 11.6802 9.1 11.9225C9.09756 12.3112 9.09513 12.8242 9.1 13.3388C9.10569 13.938 9.53742 14.3738 10.1269 14.3738C15.1376 14.3771 20.2199 14.3771 25.2306 14.3738C25.816 14.3738 26.2461 13.947 26.255 13.36C26.2623 12.8681 26.2591 12.3648 26.2558 11.9209C26.2542 11.6794 26.1713 11.5973 25.9274 11.5941C25.7737 11.5916 25.6192 11.5924 25.4623 11.5932L25.1225 11.5941V8.94113C25.1225 7.03213 25.1225 5.12313 25.1216 3.21494C25.1208 2.5637 24.6972 2.14092 24.0411 2.13848C23.807 2.13767 23.5728 2.13767 23.3378 2.13848C23.0915 2.13848 22.8451 2.13929 22.5988 2.13767C22.489 2.13767 22.3711 2.1458 22.2565 2.15312C21.9671 2.17344 21.6679 2.19377 21.4077 2.08807C21.1549 1.98482 20.9638 1.76123 20.7792 1.54578C20.702 1.45472 20.628 1.36935 20.5508 1.29211C20.328 1.07016 20.1817 0.922996 20.0914 0.92137C20.0036 0.918931 19.8564 1.06121 19.6345 1.27585L19.628 1.28317C19.6109 1.30431 19.5824 1.33927 19.532 1.35309C19.5223 1.35553 19.5125 1.35878 19.5028 1.36203C19.445 1.38073 19.3735 1.4035 19.2995 1.37911C18.7385 1.19536 18.7044 1.14983 18.6897 0.572579V0.555505C18.6816 0.340864 18.5954 0.250618 18.4011 0.248178C17.9434 0.242487 17.4726 0.242487 16.962 0.248178C16.7555 0.250618 16.6693 0.340051 16.6645 0.558757C16.662 0.670956 16.6628 0.783968 16.6637 0.895353C16.6637 0.946574 16.6645 0.996982 16.6645 1.04739V1.12951L16.588 1.1604C16.5645 1.17016 16.5425 1.17748 16.5206 1.18561C16.488 1.19699 16.4604 1.20675 16.4417 1.21894C16.0661 1.46122 15.7498 1.40269 15.4734 1.04007C15.4189 0.967713 15.3595 0.929501 15.2978 0.924622C15.2026 0.917305 15.1075 0.989665 15.0449 1.05064C14.9311 1.16203 14.8197 1.27504 14.7075 1.38805C14.5172 1.57993 14.3205 1.77831 14.118 1.96693C14.014 2.06368 13.8514 2.12954 13.7132 2.13198C13.1912 2.13929 12.6603 2.13848 12.1481 2.13848C11.8659 2.13848 11.5838 2.13767 11.3009 2.13848C10.6651 2.14092 10.2358 2.56858 10.2326 3.20356C10.2309 3.65479 10.2309 4.10684 10.2317 4.55888V5.54184H3.4543C3.10144 5.54184 3.04453 5.59957 3.04372 5.9508C3.04372 7.35328 3.04372 8.75495 3.04372 10.1574C3.04372 10.5436 3.0925 10.5924 3.47544 10.5932H10.2196V11.5941L9.87726 11.5932C9.81141 11.5932 9.74311 11.5924 9.67563 11.5924ZM25.1745 13.8649C25.1525 13.8649 25.1306 13.8641 25.1086 13.8641C25.0891 13.8641 25.0688 13.8632 25.0493 13.8632H10.3041C10.0626 13.8632 9.87808 13.8388 9.75693 13.7201C9.63579 13.6006 9.6114 13.4169 9.6114 13.1779C9.6114 12.8868 9.61303 12.5949 9.61384 12.303C9.61384 12.2754 9.62116 12.2526 9.62766 12.2331C9.6301 12.2258 9.63335 12.216 9.63661 12.2038L9.661 12.1144H25.7379V12.2364C25.7379 12.3518 25.7387 12.4673 25.7395 12.5819C25.742 12.8567 25.7444 13.1413 25.7322 13.4201C25.7225 13.6502 25.5582 13.8177 25.3029 13.8567C25.2599 13.8632 25.2168 13.8649 25.1745 13.8649ZM25.0493 13.6193C25.0712 13.6193 25.0924 13.6201 25.1143 13.6201C25.1688 13.6218 25.22 13.6226 25.2664 13.6153C25.3469 13.6031 25.4826 13.5592 25.4891 13.4088C25.5005 13.1356 25.4989 12.8673 25.4965 12.5827C25.4956 12.5079 25.4948 12.4323 25.4948 12.3575H9.85856C9.85694 12.6307 9.85612 12.9039 9.85612 13.177C9.85612 13.3852 9.87808 13.4949 9.9293 13.5462C9.98133 13.5974 10.0935 13.6193 10.3049 13.6193H25.0493ZM11.7334 11.5827H10.7553V10.6087H11.7334V11.5827ZM10.9992 11.3388H11.4895V10.8526H10.9992V11.3388ZM24.5631 11.5819H23.6086V4.07269C23.6086 3.70601 23.5533 3.65154 23.1866 3.65072C22.746 3.65072 22.3053 3.65072 21.8638 3.65072H21.2134L21.1825 3.57511C21.163 3.52714 21.1443 3.4808 21.1264 3.43527C21.0882 3.33933 21.0508 3.24665 21.0109 3.15477C20.9565 3.03038 20.9109 2.88891 20.9825 2.77834C21.0548 2.66695 21.202 2.65151 21.35 2.65151C21.8289 2.65069 22.3069 2.65069 22.7858 2.65069H23.3598C23.4305 2.65069 23.5021 2.65069 23.5728 2.64988C23.7362 2.64907 23.9045 2.64825 24.072 2.65151C24.407 2.65882 24.607 2.8572 24.6078 3.1816C24.6102 5.7264 24.6094 8.27119 24.6086 10.816V11.3843C24.6086 11.4168 24.6005 11.4437 24.594 11.4656C24.5915 11.4729 24.5891 11.4811 24.5875 11.4892L24.5631 11.5819ZM23.8525 11.338H24.3639V10.8152C24.3647 8.27038 24.3655 5.72559 24.3631 3.1816C24.3631 2.9881 24.2712 2.90029 24.0655 2.89542C23.9021 2.89216 23.7354 2.89216 23.5736 2.89379C23.5021 2.89379 23.4305 2.8946 23.359 2.8946H22.785C22.3069 2.8946 21.828 2.89379 21.35 2.89542C21.2435 2.89542 21.2028 2.90761 21.1882 2.9133C21.1882 2.92794 21.1947 2.96778 21.2337 3.05721C21.2744 3.15071 21.3126 3.24583 21.3524 3.34502C21.3605 3.36535 21.3687 3.38649 21.3776 3.40763H21.8638C22.3053 3.40763 22.746 3.40763 23.1866 3.40763C23.6907 3.40763 23.8525 3.56942 23.8525 4.0735V11.338ZM23.0777 11.577H12.266V10.6371L12.3627 10.6168C12.579 10.5705 12.644 10.4542 12.6424 10.1184C12.6334 8.7891 12.6334 7.43621 12.6424 5.98169C12.644 5.67599 12.5782 5.56542 12.37 5.52558L12.2708 5.50688V4.17594H13.2603V4.60197C13.2603 4.83369 13.2603 5.06622 13.2603 5.29874C13.2611 5.60363 13.331 5.67355 13.6335 5.67599C13.731 5.6768 13.8286 5.67599 13.9262 5.67599H14.1359L14.1685 5.74754C14.175 5.76136 14.1806 5.77437 14.1855 5.78656C14.192 5.8012 14.1969 5.81502 14.2042 5.8264C14.4782 6.26625 14.4197 6.61586 14.0245 6.89717C13.9717 6.93538 13.9416 6.98172 13.9367 7.03538C13.9302 7.10937 13.9684 7.19474 14.0424 7.27035C14.3912 7.62808 14.7392 7.97525 15.0766 8.30371C15.1473 8.37282 15.2327 8.41022 15.3051 8.40372C15.3563 8.39884 15.3994 8.37282 15.4327 8.32485C15.814 7.78744 16.2498 7.96631 16.545 8.14761C16.5506 8.15086 16.5555 8.1533 16.5637 8.15656L16.6645 8.20615V8.28176C16.6645 8.33217 16.6645 8.38258 16.6637 8.4338C16.6628 8.54844 16.662 8.66714 16.6653 8.78422C16.6718 8.98748 16.7588 9.07528 16.958 9.07772C17.4401 9.08342 17.9239 9.08342 18.397 9.07772C18.593 9.07528 18.6824 8.98504 18.6889 8.78341C18.6922 8.67283 18.6914 8.56226 18.6905 8.44518C18.6897 8.39152 18.6897 8.33786 18.6897 8.28339V8.2029L18.7637 8.17119C18.8117 8.15087 18.8597 8.12973 18.9068 8.1094C19.0312 8.05493 19.1605 7.99883 19.2914 7.95086C19.3743 7.91996 19.4662 7.94679 19.5369 7.97362C19.5906 7.99395 19.6231 8.03298 19.6475 8.06224C19.6532 8.06875 19.6589 8.07607 19.6654 8.08257C19.8556 8.27119 19.9963 8.40534 20.0849 8.40534H20.0857C20.1751 8.40453 20.3191 8.26713 20.5134 8.07363C20.5914 7.99558 20.6703 7.91752 20.7483 7.83947C20.9288 7.65979 21.1158 7.47442 21.2963 7.28905C21.3784 7.20449 21.4215 7.11669 21.4158 7.0427C21.4118 6.98335 21.376 6.92725 21.311 6.87684C20.9345 6.58659 20.8744 6.26381 21.1264 5.88819C21.1378 5.87112 21.1467 5.8451 21.1581 5.81421C21.1654 5.79469 21.1727 5.77356 21.1809 5.75323L21.2118 5.67762H21.2931C21.3467 5.67762 21.3996 5.67762 21.4524 5.67843C21.5695 5.67924 21.6801 5.68006 21.7915 5.6768C22.0037 5.67111 22.0907 5.58168 22.0939 5.36866C22.0972 5.12394 22.0963 4.8841 22.0955 4.63043C22.0955 4.52148 22.0947 4.41091 22.0947 4.29952V4.17757H23.0769V11.577H23.0777ZM12.5099 11.3331H22.833V4.41985H22.3386C22.3386 4.48977 22.3386 4.55888 22.3394 4.62799C22.3403 4.88328 22.3411 5.12394 22.3378 5.37029C22.3329 5.71502 22.1419 5.90933 21.7988 5.91909C21.6833 5.92234 21.5711 5.92153 21.4516 5.92071C21.4272 5.92071 21.4028 5.92071 21.3784 5.9199C21.3662 5.95405 21.3516 5.9882 21.3288 6.02234C21.1508 6.28739 21.1874 6.47276 21.4597 6.68171C21.5809 6.77521 21.65 6.8931 21.6597 7.02319C21.6703 7.16953 21.6053 7.31994 21.4719 7.45735C21.2906 7.64435 21.1028 7.83053 20.9215 8.01102C20.8435 8.08907 20.7646 8.16713 20.6865 8.24518C20.1491 8.78259 20.0264 8.78422 19.4938 8.25493C19.4824 8.24355 19.4719 8.23136 19.4613 8.21835C19.4556 8.21184 19.4507 8.20452 19.445 8.19965C19.3922 8.18095 19.3743 8.18095 19.3711 8.18176C19.2524 8.22566 19.132 8.2777 19.0052 8.33298C18.9816 8.34355 18.958 8.35331 18.9345 8.36388C18.9345 8.39071 18.9345 8.41754 18.9353 8.44356C18.9361 8.56307 18.9369 8.67608 18.9336 8.79154C18.9231 9.12488 18.7288 9.31838 18.4003 9.32163C17.9255 9.32732 17.4393 9.32732 16.9555 9.32163C16.6263 9.31757 16.4319 9.12488 16.4222 8.79235C16.4181 8.67039 16.4197 8.54925 16.4206 8.43217C16.4206 8.40697 16.4206 8.38177 16.4214 8.35738C16.4206 8.35656 16.4189 8.35575 16.4181 8.35494C16.0604 8.1346 15.8474 8.16469 15.6327 8.46551C15.5579 8.57039 15.4498 8.63462 15.3278 8.646C15.1839 8.65901 15.0303 8.59803 14.9075 8.47852C14.5685 8.14924 14.2197 7.79963 13.8684 7.44109C13.7432 7.31263 13.6814 7.16059 13.6945 7.01343C13.7058 6.88741 13.7709 6.77846 13.8831 6.69797C14.175 6.49065 14.2059 6.28902 13.9977 5.95486C13.9904 5.94348 13.9839 5.93128 13.9782 5.9199H13.9262C13.8278 5.9199 13.7294 5.9199 13.6319 5.9199C13.1961 5.91746 13.018 5.73778 13.0164 5.29956C13.0156 5.06622 13.0156 4.83369 13.0164 4.60116V4.41904H12.5147V5.31094C12.8896 5.43777 12.8871 5.81421 12.8863 5.9825C12.8774 7.4354 12.8774 8.78747 12.8863 10.116C12.8879 10.3078 12.8904 10.6924 12.5107 10.8282V11.3331H12.5099ZM12.1058 10.0761H3.57707V6.07031H12.1058V10.0761ZM3.82098 9.83222H11.8611V6.31422H3.82098V9.83222ZM18.1783 8.55494H17.1775V8.30941C17.1775 8.21509 17.1767 8.11834 17.1783 8.02241C17.1807 7.86874 17.1141 7.78012 16.9482 7.71752C16.6311 7.59719 16.3222 7.46873 16.0303 7.33702C15.8734 7.26628 15.7701 7.27848 15.6742 7.38011C15.6116 7.44678 15.5539 7.51833 15.4929 7.59475C15.4644 7.63052 15.436 7.66548 15.4075 7.70126L15.3221 7.80451L14.5384 7.02237L14.6408 6.93701C14.6766 6.90774 14.7124 6.87847 14.7473 6.85001C14.8238 6.78903 14.8961 6.7305 14.962 6.66708C15.0636 6.57033 15.0758 6.46626 15.0043 6.31016C14.8758 6.02641 14.7506 5.7264 14.6238 5.39224C14.5603 5.22638 14.4709 5.16053 14.3181 5.16297C14.227 5.16459 14.1359 5.16459 14.0392 5.16378H13.779V4.16294H13.901C13.9424 4.16294 13.9839 4.16293 14.0245 4.16212C14.1172 4.16131 14.2083 4.1605 14.2985 4.16375C14.4774 4.16863 14.5685 4.09545 14.6359 3.89138C14.7221 3.63121 14.8351 3.35559 14.9725 3.07266C15.0896 2.83119 15.0823 2.77834 14.9091 2.60354C14.8555 2.54906 14.7961 2.49784 14.7392 2.44743C14.7132 2.42467 14.6872 2.4019 14.6628 2.37995L14.566 2.29296L15.2978 1.57911L15.4547 1.73278C15.5165 1.79294 15.5864 1.86124 15.6555 1.93116C15.7701 2.04823 15.8799 2.06206 16.0498 1.97913C16.3336 1.8401 16.6141 1.7214 16.8848 1.62546C17.1474 1.53196 17.1775 1.49131 17.1791 1.2287C17.1799 1.15634 17.1791 1.08316 17.1791 1.00674V0.770959H18.18V1.00593C18.18 1.08886 18.1791 1.1726 18.18 1.25553C18.1824 1.48399 18.2231 1.53846 18.4548 1.61895C18.7377 1.71814 19.0125 1.83115 19.2711 1.95718C19.5117 2.07425 19.5646 2.06693 19.7394 1.89295C19.7938 1.83929 19.8451 1.77993 19.8955 1.72221C19.9182 1.69619 19.941 1.67017 19.9629 1.64497L20.0483 1.54985L20.8166 2.30434L20.7134 2.39052C20.6792 2.41898 20.6451 2.44662 20.6101 2.47508C20.5345 2.53606 20.4621 2.59459 20.3955 2.65801C20.2938 2.75476 20.2817 2.85802 20.3532 3.01412C20.4849 3.30437 20.6126 3.61332 20.7337 3.93203C20.7963 4.09708 20.8849 4.16456 21.0394 4.16131C21.1313 4.15968 21.2223 4.1605 21.3183 4.1605H21.5719V5.16134H21.3394C21.2565 5.16134 21.1727 5.16053 21.0882 5.16134C20.8581 5.16378 20.8036 5.20443 20.7231 5.43452C20.6215 5.72477 20.5077 5.99958 20.3865 6.25081C20.2686 6.49472 20.2751 6.54675 20.4483 6.71749C20.4995 6.7679 20.5589 6.8118 20.6223 6.85814C20.6532 6.88091 20.6841 6.90367 20.7142 6.92725L20.8223 7.01181L20.0353 7.79801L19.9499 7.69475C19.9215 7.66061 19.8938 7.62565 19.8654 7.59068C19.8044 7.51426 19.7467 7.44271 19.6841 7.37604C19.5873 7.27442 19.4833 7.26222 19.3272 7.33295C19.0361 7.46548 18.7271 7.59312 18.4092 7.71427C18.2409 7.77768 18.1767 7.86305 18.1791 8.01915C18.1808 8.11021 18.18 8.20127 18.18 8.2964L18.1783 8.55494ZM17.4206 8.31103H17.9344V8.29884C17.9344 8.20534 17.9352 8.1159 17.9336 8.02647C17.9295 7.76955 18.0596 7.58906 18.3206 7.48987C18.6344 7.37117 18.9385 7.24515 19.2247 7.11506C19.4751 7.00124 19.689 7.03376 19.8589 7.21181C19.9288 7.28498 19.9914 7.36304 20.0516 7.43865L20.4508 7.03945C20.3914 6.99554 20.3304 6.94839 20.2752 6.89392C20.0012 6.6248 20.0199 6.44593 20.1646 6.14674C20.2825 5.90364 20.3922 5.63778 20.4906 5.35566C20.6052 5.02882 20.7491 4.92231 21.0833 4.91906C21.1646 4.91824 21.2451 4.91824 21.3256 4.91824V4.40685H21.315C21.2207 4.40685 21.1313 4.40603 21.041 4.40766C21.0378 4.40766 21.0337 4.40766 21.0305 4.40766C20.7784 4.40766 20.6012 4.27757 20.5036 4.02065C20.3841 3.70601 20.2581 3.40194 20.1288 3.11656C20.015 2.86533 20.0475 2.65232 20.2256 2.48239C20.2979 2.41329 20.3752 2.35068 20.4508 2.29052L20.0589 1.90514C20.0117 1.9588 19.9629 2.01327 19.9101 2.06693C19.6361 2.33849 19.4589 2.3206 19.1629 2.17751C18.9133 2.05637 18.6475 1.94661 18.3727 1.85067C18.0442 1.73603 17.9377 1.59212 17.9344 1.25959C17.9336 1.17829 17.9336 1.09699 17.9336 1.01568H17.4214C17.4214 1.08967 17.4214 1.1604 17.4214 1.23114C17.419 1.59538 17.3214 1.73034 16.9653 1.85636C16.7035 1.94904 16.4319 2.0645 16.1563 2.19946C15.8913 2.32873 15.6701 2.29784 15.4807 2.10271C15.4189 2.03929 15.3547 1.97669 15.2978 1.9214L14.9238 2.28564C14.9766 2.33198 15.0303 2.37995 15.0823 2.43199C15.3539 2.70517 15.336 2.88322 15.1921 3.17916C15.0595 3.45234 14.9506 3.71821 14.8677 3.96781C14.7668 4.27269 14.5774 4.41579 14.2912 4.40766C14.2034 4.40522 14.1156 4.40603 14.0262 4.40603C14.0245 4.40603 14.0237 4.40603 14.0221 4.40603V4.91987H14.0392C14.1343 4.91987 14.2237 4.92068 14.3124 4.91906C14.5693 4.91418 14.7506 5.04426 14.8506 5.30525C14.9758 5.63453 15.0986 5.92966 15.2254 6.20934C15.3392 6.45976 15.3067 6.67358 15.1295 6.84351C15.0563 6.91424 14.9766 6.97766 14.8994 7.03945L15.3018 7.44109C15.3628 7.36466 15.4262 7.28498 15.4953 7.21181C15.6644 7.03294 15.8775 6.99961 16.1295 7.11343C16.4173 7.24352 16.7214 7.36954 17.0336 7.48824C17.2946 7.58743 17.4247 7.76793 17.4214 8.02485C17.4198 8.11997 17.4206 8.21428 17.4206 8.30778V8.31103ZM11.7472 5.53046H10.7496V5.4085C10.7496 5.19467 10.7488 4.98247 10.748 4.77027C10.7464 4.22473 10.7448 3.66129 10.7553 3.10843C10.7602 2.83688 10.9643 2.65313 11.2627 2.65232C12.3147 2.64907 13.2351 2.64825 14.0766 2.65232C14.2156 2.65313 14.314 2.69622 14.3685 2.77996C14.4246 2.86615 14.4237 2.97753 14.366 3.11087C14.3221 3.21331 14.279 3.31575 14.2343 3.42226L14.1384 3.65072H13.4879C13.0326 3.65072 12.5765 3.65072 12.1212 3.65154C11.8172 3.65235 11.7472 3.72227 11.7464 4.02553C11.7456 4.34424 11.7456 4.66214 11.7456 4.98654L11.7472 5.53046ZM10.9936 5.28655H11.5033V4.98572C11.5033 4.66132 11.5033 4.34262 11.5041 4.02391C11.505 3.58649 11.6846 3.40763 12.1229 3.40681C12.579 3.406 13.0343 3.406 13.4904 3.406H13.9782L14.0107 3.32795C14.0554 3.22063 14.0985 3.11737 14.1433 3.01412C14.1758 2.93932 14.1652 2.9133 14.1652 2.9133C14.1652 2.9133 14.1465 2.89623 14.0766 2.89623C13.2359 2.89216 12.3156 2.89216 11.2643 2.89623C11.1862 2.89623 11.0041 2.91818 11.0001 3.11331C10.9895 3.66292 10.9911 4.22554 10.9927 4.76946C10.9927 4.94101 10.9936 5.11337 10.9936 5.28655Z" fill="url(#paint5_linear_294_207)"/>
<path d="M8.26078 6.38574C8.49574 6.50282 8.70469 6.60689 8.93722 6.72315C8.43477 7.72887 7.93719 8.72321 7.42742 9.74357C7.20139 9.633 6.98594 9.52812 6.74854 9.41267C7.25099 8.40613 7.74775 7.41098 8.26078 6.38574Z" fill="url(#paint6_linear_294_207)"/>
<path d="M7.4819 9.90553L6.5835 9.46731L8.2055 6.22168L9.09983 6.66804L7.4819 9.90553ZM6.91196 9.35592L7.37133 9.58032L8.77218 6.77698L8.31444 6.54852L6.91196 9.35592Z" fill="url(#paint7_linear_294_207)"/>
<path d="M5.68592 6.67676C5.8469 6.85888 6.00219 7.03449 6.16886 7.2223C5.91113 7.46621 5.62251 7.73777 5.29323 8.04916C5.64202 8.36218 5.93878 8.62804 6.2461 8.90366C6.0274 9.10529 5.85422 9.26464 5.68592 9.41993C5.30217 9.04838 4.89484 8.6695 4.50784 8.2703C4.38019 8.13778 4.40865 7.94997 4.53792 7.81744C4.91191 7.43613 5.29567 7.06376 5.68592 6.67676Z" fill="url(#paint8_linear_294_207)"/>
<path d="M5.68346 9.58774L5.60053 9.50806C5.49402 9.40481 5.38588 9.30155 5.27694 9.19667C4.994 8.92593 4.7005 8.64543 4.42 8.35518C4.25333 8.18282 4.26634 7.92102 4.4509 7.7324C4.71838 7.4584 4.98587 7.19579 5.26799 6.91774C5.37775 6.8096 5.48914 6.70066 5.59971 6.59008L5.69159 6.49902L6.33795 7.22994L5.47288 8.04704L6.42657 8.90235L5.68346 9.58774ZM5.6802 6.85432C5.59971 6.934 5.51922 7.01286 5.43955 7.09172C5.15824 7.36897 4.89156 7.63077 4.6257 7.90313C4.55009 7.98037 4.51106 8.09826 4.59562 8.18525C4.87286 8.47226 5.16393 8.75031 5.44605 9.01943C5.52735 9.09748 5.60784 9.17472 5.68833 9.25114L6.06558 8.90398L5.11433 8.05029L6.00054 7.21368L5.6802 6.85432Z" fill="url(#paint9_linear_294_207)"/>
<path d="M10.3742 8.06867C10.0473 7.7524 9.766 7.47922 9.47656 7.19954C9.65543 7.02799 9.82454 6.86619 10.0229 6.67676C10.3107 6.96782 10.6067 7.26865 10.9042 7.56703C11.3709 8.03534 11.3709 8.10119 10.901 8.57113C10.6164 8.85487 10.3319 9.13781 10.0465 9.42075C10.0359 9.43132 10.0189 9.43457 9.99365 9.44595C9.83267 9.27359 9.66844 9.09797 9.47819 8.89471C9.75625 8.63779 10.0449 8.37275 10.3742 8.06867Z" fill="url(#paint10_linear_294_207)"/>
<path d="M9.96503 9.59197L9.30566 8.88626L10.1967 8.06591L9.30078 7.1984L10.0252 6.50488L10.3854 6.86912C10.5854 7.07157 10.7878 7.27645 10.9911 7.48052C11.5057 7.9968 11.5049 8.13989 10.9878 8.65698C10.7033 8.94073 10.4187 9.22367 10.1333 9.5066C10.1089 9.53099 10.0805 9.54238 10.0618 9.54888C10.0569 9.55051 10.0512 9.55295 10.0455 9.55538L9.96503 9.59197ZM9.6512 8.90008L10.0106 9.28383C10.2797 9.01716 10.5472 8.75129 10.8146 8.48381C11.2317 8.06753 11.2317 8.06753 10.8179 7.65207C10.6146 7.448 10.4114 7.2423 10.2114 7.03986L10.0203 6.84636L9.65201 7.1984L10.5512 8.06997L9.6512 8.90008Z" fill="url(#paint11_linear_294_207)"/>
<path d="M19.9466 4.66697C19.9457 5.9166 18.9205 6.93777 17.6741 6.93208C16.4229 6.92639 15.4106 5.91173 15.4082 4.65884C15.4058 3.41327 16.4318 2.39048 17.6814 2.39454C18.9335 2.3978 19.9474 3.4149 19.9466 4.66697ZM17.6668 6.17596C18.5042 6.18003 19.188 5.50277 19.1896 4.66778C19.1921 3.84174 18.5213 3.15961 17.6993 3.15066C16.8603 3.14172 16.1725 3.81247 16.1643 4.64746C16.1562 5.48326 16.8335 6.1719 17.6668 6.17596Z" fill="url(#paint12_linear_294_207)"/>
<path d="M17.6838 7.05391C17.6805 7.05391 17.6765 7.05391 17.6732 7.05391C16.3593 7.04822 15.2886 5.97339 15.2861 4.65871C15.2845 4.02455 15.5333 3.42616 15.9862 2.97411C16.439 2.52125 17.0382 2.27246 17.674 2.27246C17.6765 2.27246 17.6781 2.27246 17.6805 2.27246C18.9976 2.27571 20.0684 3.35054 20.0668 4.66684C20.066 5.30508 19.8147 5.90591 19.3594 6.35877C18.9098 6.80756 18.3147 7.05391 17.6838 7.05391ZM17.6748 2.51556C17.1041 2.51556 16.5659 2.73914 16.1593 3.14647C15.7528 3.55299 15.5292 4.08959 15.5309 4.6579C15.5333 5.83924 16.4951 6.80431 17.6748 6.81C17.6781 6.81 17.6813 6.81 17.6846 6.81C18.2505 6.81 18.7846 6.58804 19.1895 6.18559C19.5985 5.77907 19.8245 5.23922 19.8245 4.66684C19.8253 3.48388 18.8643 2.51962 17.6813 2.51637C17.6789 2.51556 17.6765 2.51556 17.6748 2.51556ZM17.674 6.29779C17.6716 6.29779 17.6691 6.29779 17.6667 6.29779C17.2317 6.29616 16.8228 6.12299 16.5154 5.81078C16.2065 5.49776 16.039 5.08393 16.0431 4.64571C16.0471 4.20911 16.2228 3.80096 16.5358 3.49526C16.8488 3.18956 17.261 3.02452 17.7009 3.02858C18.5911 3.03753 19.3139 3.77332 19.3115 4.66766C19.3107 5.10344 19.1391 5.51321 18.8285 5.82135C18.5196 6.12868 18.1098 6.29779 17.674 6.29779ZM17.6675 6.05388C17.67 6.05388 17.6716 6.05388 17.674 6.05388C18.0448 6.05388 18.3936 5.90997 18.657 5.64818C18.9212 5.38638 19.0667 5.03759 19.0676 4.66684C19.0692 3.90585 18.4553 3.27981 17.6976 3.27249C17.6927 3.27249 17.6878 3.27249 17.683 3.27249C17.3155 3.27249 16.9683 3.41315 16.7057 3.67007C16.439 3.93024 16.2902 4.2774 16.287 4.64814C16.2829 5.02051 16.426 5.37256 16.6894 5.64005C16.9504 5.90509 17.2976 6.05225 17.6675 6.05388Z" fill="url(#paint13_linear_294_207)"/>
<defs>
<linearGradient id="paint0_linear_294_207" x1="-3.84272" y1="17.6381" x2="7.4145" y2="39.3499" gradientUnits="userSpaceOnUse">
<stop stop-color="#20D4FE"/>
<stop offset="1" stop-color="#B722FF"/>
</linearGradient>
<linearGradient id="paint1_linear_294_207" x1="-4" y1="17.5542" x2="7.64401" y2="39.6514" gradientUnits="userSpaceOnUse">
<stop stop-color="#20D4FE"/>
<stop offset="1" stop-color="#B722FF"/>
</linearGradient>
<linearGradient id="paint2_linear_294_207" x1="5.82695" y1="23.1818" x2="7.33158" y2="23.836" gradientUnits="userSpaceOnUse">
<stop stop-color="#20D4FE"/>
<stop offset="1" stop-color="#B722FF"/>
</linearGradient>
<linearGradient id="paint3_linear_294_207" x1="5.67207" y1="23.0973" x2="7.50957" y2="23.9522" gradientUnits="userSpaceOnUse">
<stop stop-color="#20D4FE"/>
<stop offset="1" stop-color="#B722FF"/>
</linearGradient>
<linearGradient id="paint4_linear_294_207" x1="-0.275041" y1="2.33385" x2="20.0279" y2="23.7445" gradientUnits="userSpaceOnUse">
<stop stop-color="#20D4FE"/>
<stop offset="1" stop-color="#B722FF"/>
</linearGradient>
<linearGradient id="paint5_linear_294_207" x1="-0.431097" y1="2.24924" x2="20.2223" y2="23.8909" gradientUnits="userSpaceOnUse">
<stop stop-color="#20D4FE"/>
<stop offset="1" stop-color="#B722FF"/>
</linearGradient>
<linearGradient id="paint6_linear_294_207" x1="6.44994" y1="6.90233" x2="9.8482" y2="8.33412" gradientUnits="userSpaceOnUse">
<stop stop-color="#20D4FE"/>
<stop offset="1" stop-color="#B722FF"/>
</linearGradient>
<linearGradient id="paint7_linear_294_207" x1="6.2402" y1="6.78842" x2="10.0902" y2="8.48833" gradientUnits="userSpaceOnUse">
<stop stop-color="#20D4FE"/>
<stop offset="1" stop-color="#B722FF"/>
</linearGradient>
<linearGradient id="paint8_linear_294_207" x1="4.17689" y1="7.09878" x2="6.98829" y2="8.30502" gradientUnits="userSpaceOnUse">
<stop stop-color="#20D4FE"/>
<stop offset="1" stop-color="#B722FF"/>
</linearGradient>
<linearGradient id="paint9_linear_294_207" x1="4.01354" y1="6.97421" x2="7.25545" y2="8.4148" gradientUnits="userSpaceOnUse">
<stop stop-color="#20D4FE"/>
<stop offset="1" stop-color="#B722FF"/>
</linearGradient>
<linearGradient id="paint10_linear_294_207" x1="9.23409" y1="7.10278" x2="12.0063" y2="8.25289" gradientUnits="userSpaceOnUse">
<stop stop-color="#20D4FE"/>
<stop offset="1" stop-color="#B722FF"/>
</linearGradient>
<linearGradient id="paint11_linear_294_207" x1="9.01762" y1="6.97982" x2="12.2095" y2="8.36699" gradientUnits="userSpaceOnUse">
<stop stop-color="#20D4FE"/>
<stop offset="1" stop-color="#B722FF"/>
</linearGradient>
<linearGradient id="paint12_linear_294_207" x1="14.7891" y1="3.09261" x2="20.6406" y2="6.8757" gradientUnits="userSpaceOnUse">
<stop stop-color="#20D4FE"/>
<stop offset="1" stop-color="#B722FF"/>
</linearGradient>
<linearGradient id="paint13_linear_294_207" x1="14.6339" y1="3.00806" x2="20.7991" y2="6.99256" gradientUnits="userSpaceOnUse">
<stop stop-color="#20D4FE"/>
<stop offset="1" stop-color="#B722FF"/>
</linearGradient>
</defs>
</svg>
