<svg width="19" height="19" viewBox="0 0 19 19" fill="none" xmlns="http://www.w3.org/2000/svg">
<path d="M8.44738 0.927052C8.74673 0.00574112 10.0501 0.00573993 10.3495 0.927051L11.8681 5.60081C12.002 6.01284 12.3859 6.2918 12.8191 6.2918H17.7334C18.7022 6.2918 19.1049 7.53141 18.3212 8.10081L14.3455 10.9894C13.995 11.244 13.8483 11.6954 13.9822 12.1074L15.5008 16.7812C15.8002 17.7025 14.7457 18.4686 13.962 17.8992L9.98622 15.0106C9.63574 14.756 9.16114 14.756 8.81065 15.0106L4.83491 17.8992C4.0512 18.4686 2.99672 17.7025 3.29607 16.7812L4.81467 12.1074C4.94854 11.6954 4.80188 11.244 4.4514 10.9894L0.475659 8.10081C-0.308055 7.53141 0.0947201 6.2918 1.06344 6.2918H5.97773C6.41095 6.2918 6.79491 6.01284 6.92878 5.60081L8.44738 0.927052Z" fill="#FAD223"/>
</svg>
