<svg width="330" height="204" viewBox="0 0 330 204" fill="none" xmlns="http://www.w3.org/2000/svg">
<path d="M12 82.4453L8.78906 94H5.44922L0.972656 77.0898H4.64062L7.30078 89.3359H7.39453L10.5586 77.0898H13.5469L16.7109 89.3359H16.8047L19.4766 77.0898H23.1445L18.6562 94H15.3164L12.1055 82.4453H12ZM28.9922 83.6992C28.25 83.6992 27.6289 83.9531 27.1289 84.4609C26.6367 84.9688 26.3594 85.6172 26.2969 86.4062H31.6289C31.5898 85.6016 31.3281 84.9492 30.8438 84.4492C30.3672 83.9492 29.75 83.6992 28.9922 83.6992ZM31.6758 90.1562H34.8164C34.6289 91.3906 34.0117 92.3867 32.9648 93.1445C31.9258 93.8945 30.6328 94.2695 29.0859 94.2695C27.1562 94.2695 25.6406 93.6914 24.5391 92.5352C23.4453 91.3789 22.8984 89.793 22.8984 87.7773C22.8984 85.7695 23.4453 84.168 24.5391 82.9727C25.6328 81.7695 27.1055 81.168 28.957 81.168C30.7773 81.168 32.2266 81.7383 33.3047 82.8789C34.3828 84.0195 34.9219 85.5469 34.9219 87.4609V88.5039H26.2617V88.7148C26.2617 89.6133 26.5234 90.3438 27.0469 90.9062C27.5781 91.4609 28.2773 91.7383 29.1445 91.7383C29.7695 91.7383 30.3086 91.5977 30.7617 91.3164C31.2148 91.0273 31.5195 90.6406 31.6758 90.1562ZM44.1562 94.1992C43.25 94.1992 42.4531 93.9922 41.7656 93.5781C41.0859 93.1641 40.5703 92.5859 40.2188 91.8438H40.1484V94H36.7734V77.0898H40.1953V83.6172H40.2656C40.6172 82.8672 41.1289 82.2852 41.8008 81.8711C42.4727 81.4492 43.2539 81.2383 44.1445 81.2383C45.7305 81.2383 46.9766 81.8125 47.8828 82.9609C48.7969 84.1094 49.2539 85.6953 49.2539 87.7188C49.2539 89.7344 48.8008 91.3203 47.8945 92.4766C46.9883 93.625 45.7422 94.1992 44.1562 94.1992ZM42.9727 83.9805C42.1445 83.9805 41.4727 84.3242 40.957 85.0117C40.4414 85.6992 40.1836 86.6016 40.1836 87.7188C40.1836 88.8516 40.4375 89.7578 40.9453 90.4375C41.4609 91.1094 42.1367 91.4453 42.9727 91.4453C43.832 91.4453 44.5078 91.1133 45 90.4492C45.5 89.7773 45.75 88.8672 45.75 87.7188C45.75 86.5781 45.5 85.6719 45 85C44.5 84.3203 43.8242 83.9805 42.9727 83.9805ZM56.0859 77.0898H62.543C65.0898 77.0898 67.0703 77.8203 68.4844 79.2812C69.8984 80.7422 70.6055 82.8086 70.6055 85.4805C70.6055 88.1602 69.8945 90.25 68.4727 91.75C67.0586 93.25 65.082 94 62.543 94H56.0859V77.0898ZM59.625 80.0078V91.0703H62.1211C63.707 91.0703 64.9141 90.5977 65.7422 89.6523C66.5781 88.6992 66.9961 87.3125 66.9961 85.4922C66.9961 83.7266 66.5742 82.3711 65.7305 81.4258C64.8867 80.4805 63.6836 80.0078 62.1211 80.0078H59.625ZM78.2344 83.6992C77.4922 83.6992 76.8711 83.9531 76.3711 84.4609C75.8789 84.9688 75.6016 85.6172 75.5391 86.4062H80.8711C80.832 85.6016 80.5703 84.9492 80.0859 84.4492C79.6094 83.9492 78.9922 83.6992 78.2344 83.6992ZM80.918 90.1562H84.0586C83.8711 91.3906 83.2539 92.3867 82.207 93.1445C81.168 93.8945 79.875 94.2695 78.3281 94.2695C76.3984 94.2695 74.8828 93.6914 73.7812 92.5352C72.6875 91.3789 72.1406 89.793 72.1406 87.7773C72.1406 85.7695 72.6875 84.168 73.7812 82.9727C74.875 81.7695 76.3477 81.168 78.1992 81.168C80.0195 81.168 81.4688 81.7383 82.5469 82.8789C83.625 84.0195 84.1641 85.5469 84.1641 87.4609V88.5039H75.5039V88.7148C75.5039 89.6133 75.7656 90.3438 76.2891 90.9062C76.8203 91.4609 77.5195 91.7383 78.3867 91.7383C79.0117 91.7383 79.5508 91.5977 80.0039 91.3164C80.457 91.0273 80.7617 90.6406 80.918 90.1562ZM97.2305 81.4375L92.918 94H89.0508L84.7031 81.4375H88.3711L90.9844 90.9766H91.0547L93.6562 81.4375H97.2305ZM103.711 83.6992C102.969 83.6992 102.348 83.9531 101.848 84.4609C101.355 84.9688 101.078 85.6172 101.016 86.4062H106.348C106.309 85.6016 106.047 84.9492 105.562 84.4492C105.086 83.9492 104.469 83.6992 103.711 83.6992ZM106.395 90.1562H109.535C109.348 91.3906 108.73 92.3867 107.684 93.1445C106.645 93.8945 105.352 94.2695 103.805 94.2695C101.875 94.2695 100.359 93.6914 99.2578 92.5352C98.1641 91.3789 97.6172 89.793 97.6172 87.7773C97.6172 85.7695 98.1641 84.168 99.2578 82.9727C100.352 81.7695 101.824 81.168 103.676 81.168C105.496 81.168 106.945 81.7383 108.023 82.8789C109.102 84.0195 109.641 85.5469 109.641 87.4609V88.5039H100.98V88.7148C100.98 89.6133 101.242 90.3438 101.766 90.9062C102.297 91.4609 102.996 91.7383 103.863 91.7383C104.488 91.7383 105.027 91.5977 105.48 91.3164C105.934 91.0273 106.238 90.6406 106.395 90.1562ZM111.492 94V77.0898H114.914V94H111.492ZM127.535 92.5352C126.418 93.6914 124.902 94.2695 122.988 94.2695C121.074 94.2695 119.559 93.6875 118.441 92.5234C117.324 91.3594 116.766 89.7539 116.766 87.707C116.766 85.6836 117.328 84.0898 118.453 82.9258C119.586 81.7539 121.098 81.168 122.988 81.168C124.887 81.168 126.398 81.7539 127.523 82.9258C128.648 84.0898 129.211 85.6836 129.211 87.707C129.211 89.7617 128.652 91.3711 127.535 92.5352ZM122.988 91.6562C123.832 91.6562 124.5 91.3125 124.992 90.625C125.484 89.9375 125.73 88.9688 125.73 87.7188C125.73 86.4844 125.484 85.5195 124.992 84.8242C124.5 84.1289 123.832 83.7812 122.988 83.7812C122.145 83.7812 121.473 84.1289 120.973 84.8242C120.48 85.5195 120.234 86.4844 120.234 87.7188C120.234 88.9688 120.48 89.9375 120.973 90.625C121.465 91.3125 122.137 91.6562 122.988 91.6562ZM138.316 81.2383C139.91 81.2383 141.164 81.8125 142.078 82.9609C143 84.1094 143.461 85.6953 143.461 87.7188C143.461 89.7344 143.008 91.3203 142.102 92.4766C141.195 93.625 139.953 94.1992 138.375 94.1992C137.477 94.1992 136.684 93.9961 135.996 93.5898C135.316 93.1758 134.809 92.6094 134.473 91.8906H134.402V98.1016H130.98V81.4375H134.355V83.6289H134.426C134.77 82.8789 135.277 82.293 135.949 81.8711C136.629 81.4492 137.418 81.2383 138.316 81.2383ZM137.168 91.4453C138.02 91.4453 138.695 91.1094 139.195 90.4375C139.703 89.7656 139.957 88.8594 139.957 87.7188C139.957 86.5781 139.703 85.6719 139.195 85C138.695 84.3203 138.02 83.9805 137.168 83.9805C136.332 83.9805 135.66 84.3242 135.152 85.0117C134.645 85.6914 134.391 86.5938 134.391 87.7188C134.391 88.8516 134.641 89.7578 135.141 90.4375C135.648 91.1094 136.324 91.4453 137.168 91.4453ZM145.23 94V81.4375H148.535V83.7109H148.605C148.871 82.9453 149.324 82.3359 149.965 81.8828C150.605 81.4297 151.348 81.2031 152.191 81.2031C153.098 81.2031 153.855 81.4297 154.465 81.8828C155.074 82.3281 155.484 82.9609 155.695 83.7812H155.766C156.047 82.9922 156.535 82.3672 157.23 81.9062C157.934 81.4375 158.746 81.2031 159.668 81.2031C160.902 81.2031 161.895 81.5898 162.645 82.3633C163.402 83.1367 163.781 84.1562 163.781 85.4219V94H160.359V86.2773C160.359 85.5508 160.184 84.9961 159.832 84.6133C159.48 84.2227 158.973 84.0273 158.309 84.0273C157.66 84.0273 157.137 84.2422 156.738 84.6719C156.348 85.1016 156.152 85.668 156.152 86.3711V94H152.859V86.1719C152.859 85.5 152.68 84.9766 152.32 84.6016C151.961 84.2188 151.465 84.0273 150.832 84.0273C150.184 84.0273 149.656 84.25 149.25 84.6953C148.852 85.1406 148.652 85.7148 148.652 86.418V94H145.23ZM171.586 83.6992C170.844 83.6992 170.223 83.9531 169.723 84.4609C169.23 84.9688 168.953 85.6172 168.891 86.4062H174.223C174.184 85.6016 173.922 84.9492 173.438 84.4492C172.961 83.9492 172.344 83.6992 171.586 83.6992ZM174.27 90.1562H177.41C177.223 91.3906 176.605 92.3867 175.559 93.1445C174.52 93.8945 173.227 94.2695 171.68 94.2695C169.75 94.2695 168.234 93.6914 167.133 92.5352C166.039 91.3789 165.492 89.793 165.492 87.7773C165.492 85.7695 166.039 84.168 167.133 82.9727C168.227 81.7695 169.699 81.168 171.551 81.168C173.371 81.168 174.82 81.7383 175.898 82.8789C176.977 84.0195 177.516 85.5469 177.516 87.4609V88.5039H168.855V88.7148C168.855 89.6133 169.117 90.3438 169.641 90.9062C170.172 91.4609 170.871 91.7383 171.738 91.7383C172.363 91.7383 172.902 91.5977 173.355 91.3164C173.809 91.0273 174.113 90.6406 174.27 90.1562ZM179.285 94V81.4375H182.59V83.6758H182.66C183.004 82.8789 183.504 82.2695 184.16 81.8477C184.824 81.418 185.633 81.2031 186.586 81.2031C187.977 81.2031 189.051 81.6172 189.809 82.4453C190.566 83.2734 190.945 84.4258 190.945 85.9023V94H187.523V86.6172C187.523 85.7891 187.328 85.1523 186.938 84.707C186.547 84.2617 185.973 84.0391 185.215 84.0391C184.457 84.0391 183.848 84.293 183.387 84.8008C182.934 85.3086 182.707 85.9727 182.707 86.793V94H179.285ZM194.027 78.543H197.449V81.4375H199.77V84.0156H197.449V90.0273C197.449 90.9727 197.941 91.4453 198.926 91.4453C199.246 91.4453 199.523 91.4258 199.758 91.3867V93.9062C199.359 94 198.816 94.0469 198.129 94.0469C196.652 94.0469 195.598 93.7812 194.965 93.25C194.34 92.7188 194.027 91.8398 194.027 90.6133V84.0156H192.258V81.4375H194.027V78.543Z" fill="white"/>
<path d="M8.27051 122.937L5.34375 133H3.84961L0.395508 120.317H2.04785L4.58789 130.671H4.6582L7.51465 120.317H9.11426L11.9707 130.671H12.041L14.5811 120.317H16.2334L12.7793 133H11.2852L8.3584 122.937H8.27051ZM21.7603 125.028C21.0513 125.028 20.4625 125.274 19.9937 125.767C19.5308 126.253 19.2759 126.88 19.2291 127.647H24.1949C24.1773 126.874 23.9459 126.244 23.5005 125.758C23.0552 125.271 22.4752 125.028 21.7603 125.028ZM24.1597 130.381H25.6627C25.5279 131.189 25.106 131.854 24.397 132.376C23.6939 132.897 22.8472 133.158 21.857 133.158C20.5504 133.158 19.522 132.736 18.772 131.893C18.022 131.049 17.647 129.906 17.647 128.465C17.647 127.035 18.022 125.884 18.772 125.011C19.5279 124.138 20.5328 123.701 21.7867 123.701C23.0171 123.701 23.9898 124.114 24.7046 124.94C25.4195 125.767 25.7769 126.874 25.7769 128.263V128.843H19.2203V128.931C19.2203 129.81 19.4605 130.513 19.941 131.04C20.4214 131.567 21.0718 131.831 21.8921 131.831C22.4664 131.831 22.9556 131.699 23.3599 131.436C23.7642 131.172 24.0308 130.82 24.1597 130.381ZM38.4391 133.158C37.7829 133.158 37.197 133.009 36.6813 132.71C36.1716 132.411 35.7673 131.992 35.4684 131.453H35.4333V133H33.9743V120.317H35.5036V125.389H35.5387C35.8259 124.861 36.2243 124.448 36.7341 124.149C37.2497 123.851 37.8268 123.701 38.4655 123.701C39.6198 123.701 40.5514 124.132 41.2604 124.993C41.9694 125.854 42.3239 127 42.3239 128.43C42.3239 129.865 41.9694 131.014 41.2604 131.875C40.5514 132.73 39.611 133.158 38.4391 133.158ZM38.1403 125.046C37.361 125.046 36.7253 125.359 36.2331 125.986C35.7409 126.607 35.4948 127.422 35.4948 128.43C35.4948 129.443 35.7409 130.261 36.2331 130.882C36.7253 131.503 37.361 131.813 38.1403 131.813C38.9489 131.813 39.5876 131.512 40.0563 130.908C40.5251 130.299 40.7595 129.473 40.7595 128.43C40.7595 127.393 40.5251 126.569 40.0563 125.96C39.5876 125.351 38.9489 125.046 38.1403 125.046ZM52.8254 123.859V133H51.3752V131.515H51.3401C50.7717 132.61 49.8049 133.158 48.4397 133.158C47.4495 133.158 46.6731 132.859 46.1106 132.262C45.5539 131.658 45.2756 130.835 45.2756 129.792V123.859H46.8049V129.52C46.8049 131.043 47.508 131.805 48.9143 131.805C49.6526 131.805 50.2327 131.573 50.6545 131.11C51.0823 130.642 51.2961 130.015 51.2961 129.229V123.859H52.8254ZM56.3309 133V123.859H57.8602V133H56.3309ZM57.0955 122.321C56.8377 122.321 56.615 122.228 56.4275 122.04C56.24 121.853 56.1463 121.63 56.1463 121.372C56.1463 121.108 56.24 120.886 56.4275 120.704C56.615 120.517 56.8377 120.423 57.0955 120.423C57.3592 120.423 57.5848 120.517 57.7723 120.704C57.9598 120.886 58.0535 121.108 58.0535 121.372C58.0535 121.63 57.9598 121.853 57.7723 122.04C57.5848 122.228 57.3592 122.321 57.0955 122.321ZM61.4447 133V120.317H62.974V133H61.4447ZM69.9423 133.158C68.7704 133.158 67.8241 132.728 67.1034 131.866C66.3886 131.005 66.0312 129.859 66.0312 128.43C66.0312 127.006 66.3886 125.863 67.1034 125.002C67.8183 124.135 68.7529 123.701 69.9072 123.701C70.5517 123.701 71.1288 123.848 71.6386 124.141C72.1484 124.434 72.5409 124.835 72.8163 125.345H72.8515V120.317H74.3808V133H72.9218V131.453H72.8954C72.5966 131.986 72.1923 132.405 71.6825 132.71C71.1728 133.009 70.5927 133.158 69.9423 133.158ZM70.2323 125.046C69.4238 125.046 68.7822 125.354 68.3075 125.969C67.8329 126.578 67.5956 127.398 67.5956 128.43C67.5956 129.467 67.8329 130.29 68.3075 130.899C68.7822 131.509 69.4238 131.813 70.2323 131.813C71.0234 131.813 71.6591 131.506 72.1396 130.891C72.62 130.27 72.8603 129.449 72.8603 128.43C72.8603 127.41 72.6171 126.593 72.1308 125.978C71.6503 125.356 71.0175 125.046 70.2323 125.046ZM82.8594 126.382C82.8594 125.597 83.1758 124.955 83.8086 124.457C84.4473 123.953 85.2676 123.701 86.2696 123.701C87.2129 123.701 87.9981 123.953 88.625 124.457C89.252 124.961 89.583 125.6 89.6182 126.373H88.1592C88.1065 125.928 87.9073 125.579 87.5616 125.327C87.2217 125.075 86.7735 124.949 86.2168 124.949C85.6602 124.949 85.212 125.075 84.8721 125.327C84.5323 125.573 84.3623 125.898 84.3623 126.303C84.3623 126.924 84.8692 127.363 85.8829 127.621L87.2979 127.964C88.2178 128.198 88.8653 128.503 89.2403 128.878C89.6211 129.247 89.8116 129.769 89.8116 130.442C89.8116 131.239 89.4717 131.893 88.792 132.402C88.1123 132.906 87.2393 133.158 86.1729 133.158C85.1768 133.158 84.3536 132.912 83.7032 132.42C83.0586 131.922 82.6954 131.266 82.6133 130.451H84.1426C84.3125 131.424 85.0215 131.91 86.2696 131.91C86.8848 131.91 87.3711 131.79 87.7286 131.55C88.0918 131.304 88.2735 130.973 88.2735 130.557C88.2735 130.229 88.1651 129.968 87.9483 129.774C87.7373 129.581 87.377 129.417 86.8672 129.282L85.2588 128.869C83.6592 128.459 82.8594 127.63 82.8594 126.382ZM100.436 126.856H98.942C98.8248 126.329 98.5641 125.896 98.1598 125.556C97.7613 125.216 97.2428 125.046 96.6041 125.046C95.8072 125.046 95.1656 125.354 94.6793 125.969C94.193 126.578 93.9498 127.398 93.9498 128.43C93.9498 129.479 94.193 130.305 94.6793 130.908C95.1715 131.512 95.8189 131.813 96.6217 131.813C97.2369 131.813 97.7438 131.661 98.1422 131.356C98.5465 131.046 98.816 130.612 98.9508 130.056H100.454C100.337 130.97 99.9234 131.717 99.2145 132.297C98.5113 132.871 97.6441 133.158 96.6129 133.158C95.3355 133.158 94.3131 132.736 93.5455 131.893C92.7779 131.043 92.3941 129.889 92.3941 128.43C92.3941 126.994 92.7779 125.849 93.5455 124.993C94.3131 124.132 95.3297 123.701 96.5953 123.701C97.6852 123.701 98.5699 124.009 99.2496 124.624C99.9352 125.239 100.331 125.983 100.436 126.856ZM106.315 131.857C107.035 131.857 107.639 131.635 108.125 131.189C108.617 130.738 108.863 130.185 108.863 129.528V128.781L106.42 128.931C105.805 128.972 105.327 129.121 104.987 129.379C104.653 129.637 104.486 129.982 104.486 130.416C104.486 130.85 104.653 131.198 104.987 131.462C105.321 131.726 105.764 131.857 106.315 131.857ZM105.972 133.158C105.064 133.158 104.328 132.906 103.766 132.402C103.209 131.898 102.931 131.236 102.931 130.416C102.931 129.631 103.218 129.004 103.792 128.535C104.372 128.066 105.19 127.803 106.244 127.744L108.863 127.595V126.83C108.863 126.273 108.688 125.837 108.336 125.521C107.985 125.204 107.492 125.046 106.86 125.046C106.279 125.046 105.808 125.175 105.444 125.433C105.081 125.685 104.85 126.039 104.75 126.496H103.274C103.326 125.682 103.678 125.014 104.328 124.492C104.985 123.965 105.84 123.701 106.895 123.701C107.967 123.701 108.817 123.971 109.444 124.51C110.076 125.049 110.393 125.772 110.393 126.681V133H108.943V131.427H108.907C108.632 131.948 108.228 132.367 107.694 132.684C107.161 133 106.587 133.158 105.972 133.158ZM113.854 133V120.317H115.384V133H113.854ZM121.904 131.857C122.624 131.857 123.228 131.635 123.714 131.189C124.206 130.738 124.452 130.185 124.452 129.528V128.781L122.009 128.931C121.394 128.972 120.916 129.121 120.576 129.379C120.242 129.637 120.075 129.982 120.075 130.416C120.075 130.85 120.242 131.198 120.576 131.462C120.91 131.726 121.353 131.857 121.904 131.857ZM121.561 133.158C120.653 133.158 119.917 132.906 119.355 132.402C118.798 131.898 118.52 131.236 118.52 130.416C118.52 129.631 118.807 129.004 119.381 128.535C119.961 128.066 120.779 127.803 121.833 127.744L124.452 127.595V126.83C124.452 126.273 124.277 125.837 123.925 125.521C123.574 125.204 123.081 125.046 122.449 125.046C121.868 125.046 121.397 125.175 121.033 125.433C120.67 125.685 120.439 126.039 120.339 126.496H118.863C118.915 125.682 119.267 125.014 119.917 124.492C120.574 123.965 121.429 123.701 122.484 123.701C123.556 123.701 124.406 123.971 125.033 124.51C125.665 125.049 125.982 125.772 125.982 126.681V133H124.532V131.427H124.496C124.221 131.948 123.817 132.367 123.283 132.684C122.75 133 122.176 133.158 121.561 133.158ZM133.908 133.158C133.252 133.158 132.666 133.009 132.15 132.71C131.64 132.411 131.236 131.992 130.937 131.453H130.902V133H129.443V120.317H130.973V125.389H131.008C131.295 124.861 131.693 124.448 132.203 124.149C132.719 123.851 133.296 123.701 133.934 123.701C135.089 123.701 136.02 124.132 136.729 124.993C137.438 125.854 137.793 127 137.793 128.43C137.793 129.865 137.438 131.014 136.729 131.875C136.02 132.73 135.08 133.158 133.908 133.158ZM133.609 125.046C132.83 125.046 132.194 125.359 131.702 125.986C131.21 126.607 130.964 127.422 130.964 128.43C130.964 129.443 131.21 130.261 131.702 130.882C132.194 131.503 132.83 131.813 133.609 131.813C134.418 131.813 135.056 131.512 135.525 130.908C135.994 130.299 136.228 129.473 136.228 128.43C136.228 127.393 135.994 126.569 135.525 125.96C135.056 125.351 134.418 125.046 133.609 125.046ZM140.868 133V120.317H142.397V133H140.868ZM149.567 125.028C148.858 125.028 148.27 125.274 147.801 125.767C147.338 126.253 147.083 126.88 147.036 127.647H152.002C151.984 126.874 151.753 126.244 151.308 125.758C150.862 125.271 150.282 125.028 149.567 125.028ZM151.967 130.381H153.47C153.335 131.189 152.913 131.854 152.204 132.376C151.501 132.897 150.654 133.158 149.664 133.158C148.357 133.158 147.329 132.736 146.579 131.893C145.829 131.049 145.454 129.906 145.454 128.465C145.454 127.035 145.829 125.884 146.579 125.011C147.335 124.138 148.34 123.701 149.594 123.701C150.824 123.701 151.797 124.114 152.512 124.94C153.227 125.767 153.584 126.874 153.584 128.263V128.843H147.027V128.931C147.027 129.81 147.268 130.513 147.748 131.04C148.228 131.567 148.879 131.831 149.699 131.831C150.273 131.831 150.763 131.699 151.167 131.436C151.571 131.172 151.838 130.82 151.967 130.381ZM173.33 123.859L170.781 133H169.226L167.16 125.925H167.125L165.068 133H163.513L160.955 123.859H162.476L164.304 131.295H164.339L166.404 123.859H167.881L169.955 131.295H169.99L171.818 123.859H173.33ZM179.692 125.028C178.983 125.028 178.394 125.274 177.925 125.767C177.463 126.253 177.208 126.88 177.161 127.647H182.127C182.109 126.874 181.878 126.244 181.432 125.758C180.987 125.271 180.407 125.028 179.692 125.028ZM182.091 130.381H183.594C183.46 131.189 183.038 131.854 182.329 132.376C181.626 132.897 180.779 133.158 179.789 133.158C178.482 133.158 177.454 132.736 176.704 131.893C175.954 131.049 175.579 129.906 175.579 128.465C175.579 127.035 175.954 125.884 176.704 125.011C177.46 124.138 178.464 123.701 179.718 123.701C180.949 123.701 181.922 124.114 182.636 124.94C183.351 125.767 183.709 126.874 183.709 128.263V128.843H177.152V128.931C177.152 129.81 177.392 130.513 177.873 131.04C178.353 131.567 179.004 131.831 179.824 131.831C180.398 131.831 180.887 131.699 181.292 131.436C181.696 131.172 181.963 130.82 182.091 130.381ZM191.239 133.158C190.583 133.158 189.997 133.009 189.482 132.71C188.972 132.411 188.568 131.992 188.269 131.453H188.234V133H186.775V120.317H188.304V125.389H188.339C188.626 124.861 189.025 124.448 189.534 124.149C190.05 123.851 190.627 123.701 191.266 123.701C192.42 123.701 193.352 124.132 194.061 124.993C194.77 125.854 195.124 127 195.124 128.43C195.124 129.865 194.77 131.014 194.061 131.875C193.352 132.73 192.411 133.158 191.239 133.158ZM190.941 125.046C190.161 125.046 189.526 125.359 189.033 125.986C188.541 126.607 188.295 127.422 188.295 128.43C188.295 129.443 188.541 130.261 189.033 130.882C189.526 131.503 190.161 131.813 190.941 131.813C191.749 131.813 192.388 131.512 192.857 130.908C193.325 130.299 193.56 129.473 193.56 128.43C193.56 127.393 193.325 126.569 192.857 125.96C192.388 125.351 191.749 125.046 190.941 125.046ZM206.266 131.857C206.987 131.857 207.59 131.635 208.076 131.189C208.569 130.738 208.815 130.185 208.815 129.528V128.781L206.371 128.931C205.756 128.972 205.279 129.121 204.939 129.379C204.605 129.637 204.438 129.982 204.438 130.416C204.438 130.85 204.605 131.198 204.939 131.462C205.273 131.726 205.715 131.857 206.266 131.857ZM205.923 133.158C205.015 133.158 204.28 132.906 203.717 132.402C203.16 131.898 202.882 131.236 202.882 130.416C202.882 129.631 203.169 129.004 203.743 128.535C204.324 128.066 205.141 127.803 206.196 127.744L208.815 127.595V126.83C208.815 126.273 208.639 125.837 208.287 125.521C207.936 125.204 207.444 125.046 206.811 125.046C206.231 125.046 205.759 125.175 205.396 125.433C205.033 125.685 204.801 126.039 204.701 126.496H203.225C203.278 125.682 203.629 125.014 204.28 124.492C204.936 123.965 205.791 123.701 206.846 123.701C207.918 123.701 208.768 123.971 209.395 124.51C210.028 125.049 210.344 125.772 210.344 126.681V133H208.894V131.427H208.859C208.583 131.948 208.179 132.367 207.646 132.684C207.113 133 206.538 133.158 205.923 133.158ZM218.165 123.701C219.337 123.701 220.28 124.132 220.995 124.993C221.716 125.854 222.076 127 222.076 128.43C222.076 129.854 221.719 130.999 221.004 131.866C220.289 132.728 219.354 133.158 218.2 133.158C217.556 133.158 216.978 133.012 216.469 132.719C215.959 132.426 215.566 132.024 215.291 131.515H215.256V136.05H213.726V123.859H215.177V125.406H215.212C215.499 124.879 215.9 124.463 216.416 124.158C216.932 123.854 217.515 123.701 218.165 123.701ZM217.866 131.813C218.681 131.813 219.325 131.509 219.8 130.899C220.274 130.29 220.512 129.467 220.512 128.43C220.512 127.393 220.274 126.569 219.8 125.96C219.325 125.351 218.681 125.046 217.866 125.046C217.081 125.046 216.448 125.356 215.968 125.978C215.487 126.599 215.247 127.416 215.247 128.43C215.247 129.449 215.487 130.27 215.968 130.891C216.448 131.506 217.081 131.813 217.866 131.813ZM229.501 123.701C230.673 123.701 231.617 124.132 232.331 124.993C233.052 125.854 233.413 127 233.413 128.43C233.413 129.854 233.055 130.999 232.34 131.866C231.625 132.728 230.691 133.158 229.537 133.158C228.892 133.158 228.315 133.012 227.805 132.719C227.295 132.426 226.903 132.024 226.627 131.515H226.592V136.05H225.063V123.859H226.513V125.406H226.548C226.835 124.879 227.237 124.463 227.752 124.158C228.268 123.854 228.851 123.701 229.501 123.701ZM229.203 131.813C230.017 131.813 230.662 131.509 231.136 130.899C231.611 130.29 231.848 129.467 231.848 128.43C231.848 127.393 231.611 126.569 231.136 125.96C230.662 125.351 230.017 125.046 229.203 125.046C228.417 125.046 227.785 125.356 227.304 125.978C226.824 126.599 226.583 127.416 226.583 128.43C226.583 129.449 226.824 130.27 227.304 130.891C227.785 131.506 228.417 131.813 229.203 131.813ZM236.479 133V120.317H238.008V133H236.479ZM241.592 133V123.859H243.122V133H241.592ZM242.357 122.321C242.099 122.321 241.877 122.228 241.689 122.04C241.502 121.853 241.408 121.63 241.408 121.372C241.408 121.108 241.502 120.886 241.689 120.704C241.877 120.517 242.099 120.423 242.357 120.423C242.621 120.423 242.846 120.517 243.034 120.704C243.221 120.886 243.315 121.108 243.315 121.372C243.315 121.63 243.221 121.853 243.034 122.04C242.846 122.228 242.621 122.321 242.357 122.321ZM254.221 126.856H252.727C252.609 126.329 252.349 125.896 251.944 125.556C251.546 125.216 251.027 125.046 250.389 125.046C249.592 125.046 248.95 125.354 248.464 125.969C247.978 126.578 247.734 127.398 247.734 128.43C247.734 129.479 247.978 130.305 248.464 130.908C248.956 131.512 249.604 131.813 250.406 131.813C251.022 131.813 251.528 131.661 251.927 131.356C252.331 131.046 252.601 130.612 252.735 130.056H254.238C254.121 130.97 253.708 131.717 252.999 132.297C252.296 132.871 251.429 133.158 250.398 133.158C249.12 133.158 248.098 132.736 247.33 131.893C246.563 131.043 246.179 129.889 246.179 128.43C246.179 126.994 246.563 125.849 247.33 124.993C248.098 124.132 249.114 123.701 250.38 123.701C251.47 123.701 252.355 124.009 253.034 124.624C253.72 125.239 254.115 125.983 254.221 126.856ZM260.099 131.857C260.82 131.857 261.424 131.635 261.91 131.189C262.402 130.738 262.648 130.185 262.648 129.528V128.781L260.205 128.931C259.59 128.972 259.112 129.121 258.772 129.379C258.438 129.637 258.271 129.982 258.271 130.416C258.271 130.85 258.438 131.198 258.772 131.462C259.106 131.726 259.549 131.857 260.099 131.857ZM259.757 133.158C258.848 133.158 258.113 132.906 257.55 132.402C256.994 131.898 256.716 131.236 256.716 130.416C256.716 129.631 257.003 129.004 257.577 128.535C258.157 128.066 258.974 127.803 260.029 127.744L262.648 127.595V126.83C262.648 126.273 262.472 125.837 262.121 125.521C261.769 125.204 261.277 125.046 260.644 125.046C260.064 125.046 259.592 125.175 259.229 125.433C258.866 125.685 258.634 126.039 258.535 126.496H257.058C257.111 125.682 257.463 125.014 258.113 124.492C258.769 123.965 259.625 123.701 260.679 123.701C261.752 123.701 262.601 123.971 263.228 124.51C263.861 125.049 264.177 125.772 264.177 126.681V133H262.727V131.427H262.692C262.417 131.948 262.012 132.367 261.479 132.684C260.946 133 260.372 133.158 259.757 133.158ZM268.052 121.653H269.581V123.859H271.357V125.116H269.581V130.548C269.581 130.964 269.672 131.271 269.854 131.471C270.035 131.664 270.323 131.761 270.715 131.761C270.961 131.761 271.172 131.746 271.348 131.717V133C271.149 133.047 270.826 133.07 270.381 133.07C269.543 133.07 268.946 132.883 268.588 132.508C268.231 132.133 268.052 131.506 268.052 130.627V125.116H266.69V123.859H268.052V121.653ZM274.511 133V123.859H276.04V133H274.511ZM275.275 122.321C275.017 122.321 274.795 122.228 274.607 122.04C274.42 121.853 274.326 121.63 274.326 121.372C274.326 121.108 274.42 120.886 274.607 120.704C274.795 120.517 275.017 120.423 275.275 120.423C275.539 120.423 275.764 120.517 275.952 120.704C276.139 120.886 276.233 121.108 276.233 121.372C276.233 121.63 276.139 121.853 275.952 122.04C275.764 122.228 275.539 122.321 275.275 122.321ZM283.333 133.158C282.056 133.158 281.031 132.733 280.257 131.884C279.484 131.028 279.097 129.877 279.097 128.43C279.097 126.982 279.484 125.834 280.257 124.984C281.031 124.129 282.056 123.701 283.333 123.701C284.605 123.701 285.627 124.129 286.401 124.984C287.174 125.834 287.561 126.982 287.561 128.43C287.561 129.871 287.174 131.02 286.401 131.875C285.627 132.73 284.605 133.158 283.333 133.158ZM281.373 130.917C281.86 131.515 282.513 131.813 283.333 131.813C284.154 131.813 284.804 131.518 285.285 130.926C285.765 130.328 286.005 129.496 286.005 128.43C286.005 127.363 285.765 126.534 285.285 125.942C284.804 125.345 284.154 125.046 283.333 125.046C282.513 125.046 281.86 125.345 281.373 125.942C280.893 126.54 280.653 127.369 280.653 128.43C280.653 129.49 280.893 130.319 281.373 130.917ZM290.548 133V123.859H291.989V125.318H292.024C292.288 124.809 292.666 124.413 293.158 124.132C293.65 123.845 294.239 123.701 294.925 123.701C295.921 123.701 296.697 124.003 297.254 124.606C297.81 125.204 298.089 126.024 298.089 127.067V133H296.56V127.34C296.56 126.596 296.384 126.03 296.032 125.644C295.681 125.251 295.156 125.055 294.459 125.055C293.738 125.055 293.161 125.289 292.727 125.758C292.294 126.227 292.077 126.848 292.077 127.621V133H290.548ZM301.322 126.382C301.322 125.597 301.638 124.955 302.271 124.457C302.91 123.953 303.73 123.701 304.732 123.701C305.675 123.701 306.46 123.953 307.087 124.457C307.714 124.961 308.045 125.6 308.081 126.373H306.622C306.569 125.928 306.37 125.579 306.024 125.327C305.684 125.075 305.236 124.949 304.679 124.949C304.123 124.949 303.674 125.075 303.334 125.327C302.995 125.573 302.825 125.898 302.825 126.303C302.825 126.924 303.332 127.363 304.345 127.621L305.76 127.964C306.68 128.198 307.328 128.503 307.703 128.878C308.083 129.247 308.274 129.769 308.274 130.442C308.274 131.239 307.934 131.893 307.254 132.402C306.575 132.906 305.702 133.158 304.635 133.158C303.639 133.158 302.816 132.912 302.165 132.42C301.521 131.922 301.158 131.266 301.076 130.451H302.605C302.775 131.424 303.484 131.91 304.732 131.91C305.347 131.91 305.833 131.79 306.191 131.55C306.554 131.304 306.736 130.973 306.736 130.557C306.736 130.229 306.627 129.968 306.411 129.774C306.2 129.581 305.839 129.417 305.33 129.282L303.721 128.869C302.122 128.459 301.322 127.63 301.322 126.382ZM8.49902 154.859V164H7.04883V162.515H7.01367C6.44531 163.61 5.47852 164.158 4.11328 164.158C3.12305 164.158 2.34668 163.859 1.78418 163.262C1.22754 162.658 0.949219 161.835 0.949219 160.792V154.859H2.47852V160.52C2.47852 162.043 3.18164 162.805 4.58789 162.805C5.32617 162.805 5.90625 162.573 6.32812 162.11C6.75586 161.642 6.96973 161.015 6.96973 160.229V154.859H8.49902ZM11.7671 157.382C11.7671 156.597 12.0836 155.955 12.7164 155.457C13.355 154.953 14.1754 154.701 15.1773 154.701C16.1207 154.701 16.9058 154.953 17.5328 155.457C18.1597 155.961 18.4908 156.6 18.5259 157.373H17.067C17.0142 156.928 16.815 156.579 16.4693 156.327C16.1295 156.075 15.6812 155.949 15.1246 155.949C14.5679 155.949 14.1197 156.075 13.7798 156.327C13.44 156.573 13.2701 156.898 13.2701 157.303C13.2701 157.924 13.7769 158.363 14.7906 158.621L16.2056 158.964C17.1255 159.198 17.773 159.503 18.148 159.878C18.5289 160.247 18.7193 160.769 18.7193 161.442C18.7193 162.239 18.3795 162.893 17.6998 163.402C17.0201 163.906 16.147 164.158 15.0806 164.158C14.0845 164.158 13.2613 163.912 12.6109 163.42C11.9664 162.922 11.6031 162.266 11.5211 161.451H13.0504C13.2203 162.424 13.9293 162.91 15.1773 162.91C15.7925 162.91 16.2789 162.79 16.6363 162.55C16.9996 162.304 17.1812 161.973 17.1812 161.557C17.1812 161.229 17.0728 160.968 16.856 160.774C16.6451 160.581 16.2847 160.417 15.775 160.282L14.1666 159.869C12.567 159.459 11.7671 158.63 11.7671 157.382ZM21.8292 164V154.859H23.3585V164H21.8292ZM22.5939 153.321C22.3361 153.321 22.1134 153.228 21.9259 153.04C21.7384 152.853 21.6446 152.63 21.6446 152.372C21.6446 152.108 21.7384 151.886 21.9259 151.704C22.1134 151.517 22.3361 151.423 22.5939 151.423C22.8575 151.423 23.0831 151.517 23.2706 151.704C23.4581 151.886 23.5519 152.108 23.5519 152.372C23.5519 152.63 23.4581 152.853 23.2706 153.04C23.0831 153.228 22.8575 153.321 22.5939 153.321ZM26.8639 164V154.859H28.3054V156.318H28.3405C28.6042 155.809 28.9821 155.413 29.4743 155.132C29.9665 154.845 30.5554 154.701 31.2409 154.701C32.237 154.701 33.0134 155.003 33.57 155.606C34.1266 156.204 34.405 157.024 34.405 158.067V164H32.8757V158.34C32.8757 157.596 32.6999 157.03 32.3483 156.644C31.9968 156.251 31.4723 156.055 30.7751 156.055C30.0544 156.055 29.4772 156.289 29.0436 156.758C28.61 157.227 28.3932 157.848 28.3932 158.621V164H26.8639ZM41.5139 162.726C42.3108 162.726 42.9524 162.421 43.4387 161.812C43.925 161.202 44.1682 160.396 44.1682 159.395C44.1682 158.387 43.925 157.578 43.4387 156.969C42.9524 156.354 42.3108 156.046 41.5139 156.046C40.7229 156.046 40.0901 156.351 39.6155 156.96C39.1467 157.563 38.9123 158.375 38.9123 159.395C38.9123 160.414 39.1467 161.226 39.6155 161.829C40.0901 162.427 40.7229 162.726 41.5139 162.726ZM41.5666 167.445C40.5647 167.445 39.7034 167.19 38.9827 166.681C38.262 166.177 37.8372 165.535 37.7082 164.756H39.2815C39.4338 165.178 39.7209 165.515 40.1428 165.767C40.5647 166.019 41.0598 166.145 41.6282 166.145C42.4133 166.145 43.0315 165.937 43.4827 165.521C43.9397 165.104 44.1682 164.554 44.1682 163.868V162.427H44.133C43.8459 162.931 43.4446 163.332 42.9289 163.631C42.4133 163.924 41.8391 164.07 41.2063 164.07C40.0403 164.07 39.1057 163.646 38.4026 162.796C37.6995 161.946 37.3479 160.812 37.3479 159.395C37.3479 157.965 37.6995 156.825 38.4026 155.976C39.1116 155.126 40.0579 154.701 41.2414 154.701C41.886 154.701 42.4661 154.851 42.9817 155.149C43.4973 155.448 43.9075 155.864 44.2122 156.397H44.2385V154.859H45.6975V163.815C45.6975 164.911 45.3225 165.79 44.5725 166.452C43.8225 167.114 42.8205 167.445 41.5666 167.445ZM61.8578 157.856H60.3636C60.2464 157.329 59.9857 156.896 59.5814 156.556C59.183 156.216 58.6644 156.046 58.0257 156.046C57.2289 156.046 56.5873 156.354 56.1009 156.969C55.6146 157.578 55.3714 158.398 55.3714 159.43C55.3714 160.479 55.6146 161.305 56.1009 161.908C56.5931 162.512 57.2406 162.813 58.0433 162.813C58.6586 162.813 59.1654 162.661 59.5638 162.356C59.9681 162.046 60.2377 161.612 60.3724 161.056H61.8754C61.7582 161.97 61.3451 162.717 60.6361 163.297C59.933 163.871 59.0658 164.158 58.0345 164.158C56.7572 164.158 55.7347 163.736 54.9671 162.893C54.1996 162.043 53.8158 160.889 53.8158 159.43C53.8158 157.994 54.1996 156.849 54.9671 155.993C55.7347 155.132 56.7513 154.701 58.017 154.701C59.1068 154.701 59.9916 155.009 60.6712 155.624C61.3568 156.239 61.7523 156.983 61.8578 157.856ZM72.2275 154.859V164H70.7773V162.515H70.7421C70.1738 163.61 69.207 164.158 67.8417 164.158C66.8515 164.158 66.0751 163.859 65.5126 163.262C64.956 162.658 64.6777 161.835 64.6777 160.792V154.859H66.207V160.52C66.207 162.043 66.9101 162.805 68.3163 162.805C69.0546 162.805 69.6347 162.573 70.0566 162.11C70.4843 161.642 70.6982 161.015 70.6982 160.229V154.859H72.2275ZM76.146 152.653H77.6753V154.859H79.4507V156.116H77.6753V161.548C77.6753 161.964 77.7661 162.271 77.9477 162.471C78.1294 162.664 78.4165 162.761 78.8091 162.761C79.0552 162.761 79.2661 162.746 79.4419 162.717V164C79.2427 164.047 78.9204 164.07 78.4751 164.07C77.6372 164.07 77.0395 163.883 76.6821 163.508C76.3247 163.133 76.146 162.506 76.146 161.627V156.116H74.7837V154.859H76.146V152.653ZM83.0176 152.653H84.5469V154.859H86.3223V156.116H84.5469V161.548C84.5469 161.964 84.6377 162.271 84.8194 162.471C85.001 162.664 85.2881 162.761 85.6807 162.761C85.9268 162.761 86.1377 162.746 86.3135 162.717V164C86.1143 164.047 85.792 164.07 85.3467 164.07C84.5088 164.07 83.9112 163.883 83.5537 163.508C83.1963 163.133 83.0176 162.506 83.0176 161.627V156.116H81.6553V154.859H83.0176V152.653ZM89.4762 164V154.859H91.0055V164H89.4762ZM90.2408 153.321C89.983 153.321 89.7604 153.228 89.5729 153.04C89.3854 152.853 89.2916 152.63 89.2916 152.372C89.2916 152.108 89.3854 151.886 89.5729 151.704C89.7604 151.517 89.983 151.423 90.2408 151.423C90.5045 151.423 90.7301 151.517 90.9176 151.704C91.1051 151.886 91.1988 152.108 91.1988 152.372C91.1988 152.63 91.1051 152.853 90.9176 153.04C90.7301 153.228 90.5045 153.321 90.2408 153.321ZM94.5109 164V154.859H95.9523V156.318H95.9875C96.2511 155.809 96.6291 155.413 97.1213 155.132C97.6134 154.845 98.2023 154.701 98.8879 154.701C99.8839 154.701 100.66 155.003 101.217 155.606C101.774 156.204 102.052 157.024 102.052 158.067V164H100.523V158.34C100.523 157.596 100.347 157.03 99.9953 156.644C99.6437 156.251 99.1193 156.055 98.422 156.055C97.7013 156.055 97.1242 156.289 96.6906 156.758C96.257 157.227 96.0402 157.848 96.0402 158.621V164H94.5109ZM109.161 162.726C109.958 162.726 110.599 162.421 111.086 161.812C111.572 161.202 111.815 160.396 111.815 159.395C111.815 158.387 111.572 157.578 111.086 156.969C110.599 156.354 109.958 156.046 109.161 156.046C108.37 156.046 107.737 156.351 107.262 156.96C106.794 157.563 106.559 158.375 106.559 159.395C106.559 160.414 106.794 161.226 107.262 161.829C107.737 162.427 108.37 162.726 109.161 162.726ZM109.214 167.445C108.212 167.445 107.35 167.19 106.63 166.681C105.909 166.177 105.484 165.535 105.355 164.756H106.928C107.081 165.178 107.368 165.515 107.79 165.767C108.212 166.019 108.707 166.145 109.275 166.145C110.06 166.145 110.678 165.937 111.13 165.521C111.587 165.104 111.815 164.554 111.815 163.868V162.427H111.78C111.493 162.931 111.092 163.332 110.576 163.631C110.06 163.924 109.486 164.07 108.853 164.07C107.687 164.07 106.753 163.646 106.05 162.796C105.346 161.946 104.995 160.812 104.995 159.395C104.995 157.965 105.346 156.825 106.05 155.976C106.759 155.126 107.705 154.701 108.888 154.701C109.533 154.701 110.113 154.851 110.629 155.149C111.144 155.448 111.554 155.864 111.859 156.397H111.885V154.859H113.344V163.815C113.344 164.911 112.969 165.79 112.219 166.452C111.469 167.114 110.467 167.445 109.214 167.445ZM125.576 156.028C124.867 156.028 124.278 156.274 123.809 156.767C123.347 157.253 123.092 157.88 123.045 158.647H128.011C127.993 157.874 127.762 157.244 127.316 156.758C126.871 156.271 126.291 156.028 125.576 156.028ZM127.975 161.381H129.478C129.344 162.189 128.922 162.854 128.213 163.376C127.51 163.897 126.663 164.158 125.673 164.158C124.366 164.158 123.338 163.736 122.588 162.893C121.838 162.049 121.463 160.906 121.463 159.465C121.463 158.035 121.838 156.884 122.588 156.011C123.344 155.138 124.348 154.701 125.602 154.701C126.833 154.701 127.806 155.114 128.52 155.94C129.235 156.767 129.593 157.874 129.593 159.263V159.843H123.036V159.931C123.036 160.81 123.276 161.513 123.757 162.04C124.237 162.567 124.888 162.831 125.708 162.831C126.282 162.831 126.771 162.699 127.176 162.436C127.58 162.172 127.847 161.82 127.975 161.381ZM136.042 164.158C134.871 164.158 133.924 163.728 133.204 162.866C132.489 162.005 132.131 160.859 132.131 159.43C132.131 158.006 132.489 156.863 133.204 156.002C133.918 155.135 134.853 154.701 136.007 154.701C136.652 154.701 137.229 154.848 137.739 155.141C138.248 155.434 138.641 155.835 138.916 156.345H138.952V151.317H140.481V164H139.022V162.453H138.996C138.697 162.986 138.292 163.405 137.783 163.71C137.273 164.009 136.693 164.158 136.042 164.158ZM136.332 156.046C135.524 156.046 134.882 156.354 134.408 156.969C133.933 157.578 133.696 158.398 133.696 159.43C133.696 160.467 133.933 161.29 134.408 161.899C134.882 162.509 135.524 162.813 136.332 162.813C137.123 162.813 137.759 162.506 138.24 161.891C138.72 161.27 138.96 160.449 138.96 159.43C138.96 158.41 138.717 157.593 138.231 156.978C137.75 156.356 137.118 156.046 136.332 156.046ZM147.704 162.726C148.501 162.726 149.143 162.421 149.629 161.812C150.115 161.202 150.358 160.396 150.358 159.395C150.358 158.387 150.115 157.578 149.629 156.969C149.143 156.354 148.501 156.046 147.704 156.046C146.913 156.046 146.28 156.351 145.806 156.96C145.337 157.563 145.103 158.375 145.103 159.395C145.103 160.414 145.337 161.226 145.806 161.829C146.28 162.427 146.913 162.726 147.704 162.726ZM147.757 167.445C146.755 167.445 145.894 167.19 145.173 166.681C144.452 166.177 144.027 165.535 143.898 164.756H145.472C145.624 165.178 145.911 165.515 146.333 165.767C146.755 166.019 147.25 166.145 147.818 166.145C148.603 166.145 149.222 165.937 149.673 165.521C150.13 165.104 150.358 164.554 150.358 163.868V162.427H150.323C150.036 162.931 149.635 163.332 149.119 163.631C148.603 163.924 148.029 164.07 147.396 164.07C146.23 164.07 145.296 163.646 144.593 162.796C143.89 161.946 143.538 160.812 143.538 159.395C143.538 157.965 143.89 156.825 144.593 155.976C145.302 155.126 146.248 154.701 147.432 154.701C148.076 154.701 148.656 154.851 149.172 155.149C149.687 155.448 150.098 155.864 150.402 156.397H150.429V154.859H151.888V163.815C151.888 164.911 151.513 165.79 150.763 166.452C150.013 167.114 149.011 167.445 147.757 167.445ZM158.988 156.028C158.279 156.028 157.69 156.274 157.221 156.767C156.758 157.253 156.503 157.88 156.457 158.647H161.422C161.405 157.874 161.173 157.244 160.728 156.758C160.283 156.271 159.703 156.028 158.988 156.028ZM161.387 161.381H162.89C162.755 162.189 162.334 162.854 161.625 163.376C160.921 163.897 160.075 164.158 159.084 164.158C157.778 164.158 156.75 163.736 156 162.893C155.25 162.049 154.875 160.906 154.875 159.465C154.875 158.035 155.25 156.884 156 156.011C156.755 155.138 157.76 154.701 159.014 154.701C160.245 154.701 161.217 155.114 161.932 155.94C162.647 156.767 163.004 157.874 163.004 159.263V159.843H156.448V159.931C156.448 160.81 156.688 161.513 157.168 162.04C157.649 162.567 158.299 162.831 159.12 162.831C159.694 162.831 160.183 162.699 160.587 162.436C160.992 162.172 161.258 161.82 161.387 161.381ZM171.615 152.653H173.144V154.859H174.92V156.116H173.144V161.548C173.144 161.964 173.235 162.271 173.417 162.471C173.598 162.664 173.885 162.761 174.278 162.761C174.524 162.761 174.735 162.746 174.911 162.717V164C174.712 164.047 174.389 164.07 173.944 164.07C173.106 164.07 172.508 163.883 172.151 163.508C171.794 163.133 171.615 162.506 171.615 161.627V156.116H170.253V154.859H171.615V152.653ZM181.396 156.028C180.687 156.028 180.098 156.274 179.629 156.767C179.166 157.253 178.911 157.88 178.864 158.647H183.83C183.813 157.874 183.581 157.244 183.136 156.758C182.691 156.271 182.111 156.028 181.396 156.028ZM183.795 161.381H185.298C185.163 162.189 184.741 162.854 184.032 163.376C183.329 163.897 182.483 164.158 181.492 164.158C180.186 164.158 179.157 163.736 178.407 162.893C177.657 162.049 177.282 160.906 177.282 159.465C177.282 158.035 177.657 156.884 178.407 156.011C179.163 155.138 180.168 154.701 181.422 154.701C182.653 154.701 183.625 155.114 184.34 155.94C185.055 156.767 185.412 157.874 185.412 159.263V159.843H178.856V159.931C178.856 160.81 179.096 161.513 179.576 162.04C180.057 162.567 180.707 162.831 181.528 162.831C182.102 162.831 182.591 162.699 182.995 162.436C183.4 162.172 183.666 161.82 183.795 161.381ZM195.993 157.856H194.499C194.382 157.329 194.121 156.896 193.717 156.556C193.318 156.216 192.8 156.046 192.161 156.046C191.364 156.046 190.722 156.354 190.236 156.969C189.75 157.578 189.507 158.398 189.507 159.43C189.507 160.479 189.75 161.305 190.236 161.908C190.728 162.512 191.376 162.813 192.178 162.813C192.794 162.813 193.301 162.661 193.699 162.356C194.103 162.046 194.373 161.612 194.508 161.056H196.011C195.893 161.97 195.48 162.717 194.771 163.297C194.068 163.871 193.201 164.158 192.17 164.158C190.892 164.158 189.87 163.736 189.102 162.893C188.335 162.043 187.951 160.889 187.951 159.43C187.951 157.994 188.335 156.849 189.102 155.993C189.87 155.132 190.886 154.701 192.152 154.701C193.242 154.701 194.127 155.009 194.806 155.624C195.492 156.239 195.887 156.983 195.993 157.856ZM198.936 164V151.317H200.465V156.318H200.5C200.758 155.803 201.133 155.404 201.625 155.123C202.123 154.842 202.715 154.701 203.401 154.701C204.397 154.701 205.182 155.009 205.756 155.624C206.33 156.239 206.618 157.062 206.618 158.094V164H205.088V158.375C205.088 157.637 204.904 157.065 204.535 156.661C204.171 156.257 203.635 156.055 202.926 156.055C202.17 156.055 201.57 156.292 201.124 156.767C200.685 157.241 200.465 157.877 200.465 158.674V164H198.936ZM210 164V154.859H211.441V156.318H211.476C211.74 155.809 212.118 155.413 212.61 155.132C213.102 154.845 213.691 154.701 214.377 154.701C215.373 154.701 216.149 155.003 216.706 155.606C217.263 156.204 217.541 157.024 217.541 158.067V164H216.012V158.34C216.012 157.596 215.836 157.03 215.484 156.644C215.133 156.251 214.608 156.055 213.911 156.055C213.19 156.055 212.613 156.289 212.18 156.758C211.746 157.227 211.529 157.848 211.529 158.621V164H210ZM224.72 164.158C223.443 164.158 222.417 163.733 221.644 162.884C220.871 162.028 220.484 160.877 220.484 159.43C220.484 157.982 220.871 156.834 221.644 155.984C222.417 155.129 223.443 154.701 224.72 154.701C225.992 154.701 227.014 155.129 227.788 155.984C228.561 156.834 228.948 157.982 228.948 159.43C228.948 160.871 228.561 162.02 227.788 162.875C227.014 163.73 225.992 164.158 224.72 164.158ZM222.76 161.917C223.247 162.515 223.9 162.813 224.72 162.813C225.54 162.813 226.191 162.518 226.671 161.926C227.152 161.328 227.392 160.496 227.392 159.43C227.392 158.363 227.152 157.534 226.671 156.942C226.191 156.345 225.54 156.046 224.72 156.046C223.9 156.046 223.247 156.345 222.76 156.942C222.28 157.54 222.039 158.369 222.039 159.43C222.039 160.49 222.28 161.319 222.76 161.917ZM232.014 164V151.317H233.543V164H232.014ZM240.836 164.158C239.559 164.158 238.534 163.733 237.76 162.884C236.987 162.028 236.6 160.877 236.6 159.43C236.6 157.982 236.987 156.834 237.76 155.984C238.534 155.129 239.559 154.701 240.836 154.701C242.108 154.701 243.13 155.129 243.904 155.984C244.677 156.834 245.064 157.982 245.064 159.43C245.064 160.871 244.677 162.02 243.904 162.875C243.13 163.73 242.108 164.158 240.836 164.158ZM238.877 161.917C239.363 162.515 240.016 162.813 240.836 162.813C241.657 162.813 242.307 162.518 242.788 161.926C243.268 161.328 243.508 160.496 243.508 159.43C243.508 158.363 243.268 157.534 242.788 156.942C242.307 156.345 241.657 156.046 240.836 156.046C240.016 156.046 239.363 156.345 238.877 156.942C238.396 157.54 238.156 158.369 238.156 159.43C238.156 160.49 238.396 161.319 238.877 161.917ZM251.769 162.726C252.566 162.726 253.207 162.421 253.693 161.812C254.18 161.202 254.423 160.396 254.423 159.395C254.423 158.387 254.18 157.578 253.693 156.969C253.207 156.354 252.566 156.046 251.769 156.046C250.978 156.046 250.345 156.351 249.87 156.96C249.401 157.563 249.167 158.375 249.167 159.395C249.167 160.414 249.401 161.226 249.87 161.829C250.345 162.427 250.978 162.726 251.769 162.726ZM251.821 167.445C250.819 167.445 249.958 167.19 249.237 166.681C248.517 166.177 248.092 165.535 247.963 164.756H249.536C249.689 165.178 249.976 165.515 250.398 165.767C250.819 166.019 251.315 166.145 251.883 166.145C252.668 166.145 253.286 165.937 253.737 165.521C254.194 165.104 254.423 164.554 254.423 163.868V162.427H254.388C254.101 162.931 253.699 163.332 253.184 163.631C252.668 163.924 252.094 164.07 251.461 164.07C250.295 164.07 249.36 163.646 248.657 162.796C247.954 161.946 247.603 160.812 247.603 159.395C247.603 157.965 247.954 156.825 248.657 155.976C249.366 155.126 250.313 154.701 251.496 154.701C252.141 154.701 252.721 154.851 253.236 155.149C253.752 155.448 254.162 155.864 254.467 156.397H254.493V154.859H255.952V163.815C255.952 164.911 255.577 165.79 254.827 166.452C254.077 167.114 253.075 167.445 251.821 167.445ZM259.466 164V154.859H260.996V164H259.466ZM260.231 153.321C259.973 153.321 259.751 153.228 259.563 153.04C259.376 152.853 259.282 152.63 259.282 152.372C259.282 152.108 259.376 151.886 259.563 151.704C259.751 151.517 259.973 151.423 260.231 151.423C260.495 151.423 260.72 151.517 260.908 151.704C261.095 151.886 261.189 152.108 261.189 152.372C261.189 152.63 261.095 152.853 260.908 153.04C260.72 153.228 260.495 153.321 260.231 153.321ZM268.166 156.028C267.457 156.028 266.868 156.274 266.4 156.767C265.937 157.253 265.682 157.88 265.635 158.647H270.601C270.583 157.874 270.352 157.244 269.906 156.758C269.461 156.271 268.881 156.028 268.166 156.028ZM270.566 161.381H272.069C271.934 162.189 271.512 162.854 270.803 163.376C270.1 163.897 269.253 164.158 268.263 164.158C266.956 164.158 265.928 163.736 265.178 162.893C264.428 162.049 264.053 160.906 264.053 159.465C264.053 158.035 264.428 156.884 265.178 156.011C265.934 155.138 266.939 154.701 268.193 154.701C269.423 154.701 270.396 155.114 271.111 155.94C271.825 156.767 272.183 157.874 272.183 159.263V159.843H265.626V159.931C265.626 160.81 265.866 161.513 266.347 162.04C266.827 162.567 267.478 162.831 268.298 162.831C268.872 162.831 269.362 162.699 269.766 162.436C270.17 162.172 270.437 161.82 270.566 161.381ZM275.012 157.382C275.012 156.597 275.328 155.955 275.961 155.457C276.599 154.953 277.42 154.701 278.422 154.701C279.365 154.701 280.15 154.953 280.777 155.457C281.404 155.961 281.735 156.6 281.77 157.373H280.311C280.259 156.928 280.059 156.579 279.714 156.327C279.374 156.075 278.926 155.949 278.369 155.949C277.812 155.949 277.364 156.075 277.024 156.327C276.684 156.573 276.514 156.898 276.514 157.303C276.514 157.924 277.021 158.363 278.035 158.621L279.45 158.964C280.37 159.198 281.017 159.503 281.392 159.878C281.773 160.247 281.964 160.769 281.964 161.442C281.964 162.239 281.624 162.893 280.944 163.402C280.264 163.906 279.391 164.158 278.325 164.158C277.329 164.158 276.506 163.912 275.855 163.42C275.211 162.922 274.847 162.266 274.765 161.451H276.295C276.465 162.424 277.174 162.91 278.422 162.91C279.037 162.91 279.523 162.79 279.881 162.55C280.244 162.304 280.426 161.973 280.426 161.557C280.426 161.229 280.317 160.968 280.1 160.774C279.889 160.581 279.529 160.417 279.019 160.282L277.411 159.869C275.811 159.459 275.012 158.63 275.012 157.382ZM290.205 164V151.317H291.734V164H290.205ZM295.319 164V154.859H296.848V164H295.319ZM296.083 153.321C295.826 153.321 295.603 153.228 295.415 153.04C295.228 152.853 295.134 152.63 295.134 152.372C295.134 152.108 295.228 151.886 295.415 151.704C295.603 151.517 295.826 151.423 296.083 151.423C296.347 151.423 296.573 151.517 296.76 151.704C296.948 151.886 297.041 152.108 297.041 152.372C297.041 152.63 296.948 152.853 296.76 153.04C296.573 153.228 296.347 153.321 296.083 153.321ZM301.962 158.92L306.005 154.859H307.859L303.896 158.806L307.982 164H306.207L302.814 159.746L301.962 160.555V164H300.433V151.317H301.962V158.92ZM313.755 156.028C313.046 156.028 312.458 156.274 311.989 156.767C311.526 157.253 311.271 157.88 311.224 158.647H316.19C316.172 157.874 315.941 157.244 315.496 156.758C315.05 156.271 314.47 156.028 313.755 156.028ZM316.155 161.381H317.658C317.523 162.189 317.101 162.854 316.392 163.376C315.689 163.897 314.842 164.158 313.852 164.158C312.546 164.158 311.517 163.736 310.767 162.893C310.017 162.049 309.642 160.906 309.642 159.465C309.642 158.035 310.017 156.884 310.767 156.011C311.523 155.138 312.528 154.701 313.782 154.701C315.012 154.701 315.985 155.114 316.7 155.94C317.415 156.767 317.772 157.874 317.772 159.263V159.843H311.215V159.931C311.215 160.81 311.456 161.513 311.936 162.04C312.417 162.567 313.067 162.831 313.887 162.831C314.462 162.831 314.951 162.699 315.355 162.436C315.759 162.172 316.026 161.82 316.155 161.381ZM1.23047 181.317H5.75684C6.94629 181.317 7.91895 181.698 8.6748 182.46C9.43652 183.216 9.81738 184.191 9.81738 185.387C9.81738 186.588 9.43652 187.569 8.6748 188.331C7.91309 189.093 6.93457 189.474 5.73926 189.474H2.8125V194H1.23047V181.317ZM2.8125 182.724V188.067H5.34375C6.24609 188.067 6.94629 187.833 7.44434 187.364C7.94238 186.89 8.19141 186.23 8.19141 185.387C8.19141 184.543 7.94238 183.89 7.44434 183.427C6.95215 182.958 6.25195 182.724 5.34375 182.724H2.8125ZM13.5953 197.419C13.3257 197.419 13.106 197.401 12.9361 197.366V196.083C13.0767 196.112 13.2759 196.127 13.5338 196.127C13.9615 196.127 14.3043 196.013 14.5621 195.784C14.8199 195.562 15.0367 195.184 15.2125 194.65L15.4234 194.009L12.0484 184.859H13.6832L16.2144 192.471H16.2408L18.772 184.859H20.3804L16.7857 194.642C16.3931 195.708 15.9683 196.438 15.5113 196.83C15.0601 197.223 14.4214 197.419 13.5953 197.419ZM23.5255 182.653H25.0548V184.859H26.8302V186.116H25.0548V191.548C25.0548 191.964 25.1456 192.271 25.3273 192.471C25.5089 192.664 25.796 192.761 26.1886 192.761C26.4347 192.761 26.6456 192.746 26.8214 192.717V194C26.6222 194.047 26.2999 194.07 25.8546 194.07C25.0167 194.07 24.4191 193.883 24.0616 193.508C23.7042 193.133 23.5255 192.506 23.5255 191.627V186.116H22.1632V184.859H23.5255V182.653ZM29.9841 194V181.317H31.5134V186.318H31.5485C31.8063 185.803 32.1813 185.404 32.6735 185.123C33.1716 184.842 33.7634 184.701 34.4489 184.701C35.445 184.701 36.2302 185.009 36.8044 185.624C37.3786 186.239 37.6657 187.062 37.6657 188.094V194H36.1364V188.375C36.1364 187.637 35.9518 187.065 35.5827 186.661C35.2194 186.257 34.6833 186.055 33.9743 186.055C33.2184 186.055 32.6179 186.292 32.1725 186.767C31.7331 187.241 31.5134 187.877 31.5134 188.674V194H29.9841ZM44.8362 194.158C43.5588 194.158 42.5334 193.733 41.76 192.884C40.9866 192.028 40.5998 190.877 40.5998 189.43C40.5998 187.982 40.9866 186.834 41.76 185.984C42.5334 185.129 43.5588 184.701 44.8362 184.701C46.1077 184.701 47.1301 185.129 47.9036 185.984C48.677 186.834 49.0637 187.982 49.0637 189.43C49.0637 190.871 48.677 192.02 47.9036 192.875C47.1301 193.73 46.1077 194.158 44.8362 194.158ZM42.8762 191.917C43.3625 192.515 44.0159 192.813 44.8362 192.813C45.6565 192.813 46.3069 192.518 46.7873 191.926C47.2678 191.328 47.508 190.496 47.508 189.43C47.508 188.363 47.2678 187.534 46.7873 186.942C46.3069 186.345 45.6565 186.046 44.8362 186.046C44.0159 186.046 43.3625 186.345 42.8762 186.942C42.3957 187.54 42.1555 188.369 42.1555 189.43C42.1555 190.49 42.3957 191.319 42.8762 191.917ZM52.0506 194V184.859H53.492V186.318H53.5271C53.7908 185.809 54.1688 185.413 54.6609 185.132C55.1531 184.845 55.742 184.701 56.4275 184.701C57.4236 184.701 58.2 185.003 58.7566 185.606C59.3133 186.204 59.5916 187.024 59.5916 188.067V194H58.0623V188.34C58.0623 187.596 57.8865 187.03 57.535 186.644C57.1834 186.251 56.659 186.055 55.9617 186.055C55.241 186.055 54.6639 186.289 54.2303 186.758C53.7967 187.227 53.5799 187.848 53.5799 188.621V194H52.0506ZM64.0287 196.522H62.7543L63.6068 192.049H65.2328L64.0287 196.522ZM73.4829 181.317H77.7456C79.6264 181.317 81.0942 181.877 82.1489 182.996C83.2036 184.109 83.7309 185.662 83.7309 187.654C83.7309 189.652 83.2036 191.211 82.1489 192.33C81.1001 193.443 79.6323 194 77.7456 194H73.4829V181.317ZM75.0649 182.741V192.576H77.6401C79.0757 192.576 80.1802 192.154 80.9536 191.311C81.727 190.461 82.1138 189.248 82.1138 187.672C82.1138 186.084 81.727 184.865 80.9536 184.016C80.186 183.166 79.0815 182.741 77.6401 182.741H75.0649ZM88.5108 184.859V194.448C88.5108 195.374 88.2823 196.054 87.8252 196.487C87.3682 196.927 86.6534 197.146 85.6807 197.146C85.4991 197.146 85.4024 197.144 85.3907 197.138V195.863H85.628C86.126 195.863 86.4746 195.758 86.6739 195.547C86.8789 195.336 86.9815 194.976 86.9815 194.466V184.859H88.5108ZM87.7461 183.321C87.4883 183.321 87.2657 183.228 87.0782 183.04C86.8907 182.853 86.7969 182.63 86.7969 182.372C86.7969 182.108 86.8907 181.886 87.0782 181.704C87.2657 181.517 87.4883 181.423 87.7461 181.423C88.0098 181.423 88.2354 181.517 88.4229 181.704C88.6104 181.886 88.7041 182.108 88.7041 182.372C88.7041 182.63 88.6104 182.853 88.4229 183.04C88.2354 183.228 88.0098 183.321 87.7461 183.321ZM95.0309 192.857C95.7516 192.857 96.3551 192.635 96.8414 192.189C97.3336 191.738 97.5797 191.185 97.5797 190.528V189.781L95.1363 189.931C94.5211 189.972 94.0436 190.121 93.7037 190.379C93.3697 190.637 93.2027 190.982 93.2027 191.416C93.2027 191.85 93.3697 192.198 93.7037 192.462C94.0377 192.726 94.4801 192.857 95.0309 192.857ZM94.6881 194.158C93.7799 194.158 93.0445 193.906 92.482 193.402C91.9254 192.898 91.6471 192.236 91.6471 191.416C91.6471 190.631 91.9342 190.004 92.5084 189.535C93.0885 189.066 93.9059 188.803 94.9605 188.744L97.5797 188.595V187.83C97.5797 187.273 97.4039 186.837 97.0523 186.521C96.7008 186.204 96.2086 186.046 95.5758 186.046C94.9957 186.046 94.524 186.175 94.1607 186.433C93.7975 186.685 93.566 187.039 93.4664 187.496H91.9898C92.0426 186.682 92.3941 186.014 93.0445 185.492C93.7008 184.965 94.5563 184.701 95.6109 184.701C96.6832 184.701 97.5328 184.971 98.1598 185.51C98.7926 186.049 99.109 186.772 99.109 187.681V194H97.6588V192.427H97.6236C97.3482 192.948 96.9439 193.367 96.4107 193.684C95.8775 194 95.3033 194.158 94.6881 194.158ZM102.491 194V184.859H103.933V186.318H103.968C104.232 185.809 104.61 185.413 105.102 185.132C105.594 184.845 106.183 184.701 106.868 184.701C107.864 184.701 108.641 185.003 109.197 185.606C109.754 186.204 110.032 187.024 110.032 188.067V194H108.503V188.34C108.503 187.596 108.327 187.03 107.976 186.644C107.624 186.251 107.1 186.055 106.403 186.055C105.682 186.055 105.105 186.289 104.671 186.758C104.237 187.227 104.021 187.848 104.021 188.621V194H102.491ZM117.141 192.726C117.938 192.726 118.58 192.421 119.066 191.812C119.552 191.202 119.796 190.396 119.796 189.395C119.796 188.387 119.552 187.578 119.066 186.969C118.58 186.354 117.938 186.046 117.141 186.046C116.35 186.046 115.717 186.351 115.243 186.96C114.774 187.563 114.54 188.375 114.54 189.395C114.54 190.414 114.774 191.226 115.243 191.829C115.717 192.427 116.35 192.726 117.141 192.726ZM117.194 197.445C116.192 197.445 115.331 197.19 114.61 196.681C113.889 196.177 113.465 195.535 113.336 194.756H114.909C115.061 195.178 115.348 195.515 115.77 195.767C116.192 196.019 116.687 196.145 117.256 196.145C118.041 196.145 118.659 195.937 119.11 195.521C119.567 195.104 119.796 194.554 119.796 193.868V192.427H119.76C119.473 192.931 119.072 193.332 118.556 193.631C118.041 193.924 117.467 194.07 116.834 194.07C115.668 194.07 114.733 193.646 114.03 192.796C113.327 191.946 112.975 190.812 112.975 189.395C112.975 187.965 113.327 186.825 114.03 185.976C114.739 185.126 115.685 184.701 116.869 184.701C117.513 184.701 118.093 184.851 118.609 185.149C119.125 185.448 119.535 185.864 119.84 186.397H119.866V184.859H121.325V193.815C121.325 194.911 120.95 195.79 120.2 196.452C119.45 197.114 118.448 197.445 117.194 197.445ZM128.548 194.158C127.271 194.158 126.245 193.733 125.472 192.884C124.699 192.028 124.312 190.877 124.312 189.43C124.312 187.982 124.699 186.834 125.472 185.984C126.245 185.129 127.271 184.701 128.548 184.701C129.82 184.701 130.842 185.129 131.616 185.984C132.389 186.834 132.776 187.982 132.776 189.43C132.776 190.871 132.389 192.02 131.616 192.875C130.842 193.73 129.82 194.158 128.548 194.158ZM126.588 191.917C127.074 192.515 127.728 192.813 128.548 192.813C129.368 192.813 130.019 192.518 130.499 191.926C130.98 191.328 131.22 190.496 131.22 189.43C131.22 188.363 130.98 187.534 130.499 186.942C130.019 186.345 129.368 186.046 128.548 186.046C127.728 186.046 127.074 186.345 126.588 186.942C126.108 187.54 125.867 188.369 125.867 189.43C125.867 190.49 126.108 191.319 126.588 191.917ZM136.281 196.522H135.007L135.859 192.049H137.485L136.281 196.522ZM144.874 191.021H146.447C146.465 191.56 146.658 191.999 147.027 192.339C147.402 192.673 147.877 192.84 148.451 192.84C149.148 192.84 149.682 192.638 150.051 192.233C150.42 191.823 150.604 191.231 150.604 190.458V181.317H152.186V190.467C152.186 191.668 151.858 192.608 151.202 193.288C150.546 193.962 149.632 194.299 148.46 194.299C147.405 194.299 146.544 193.994 145.876 193.385C145.208 192.77 144.874 191.981 144.874 191.021ZM158.865 192.857C159.585 192.857 160.189 192.635 160.675 192.189C161.167 191.738 161.414 191.185 161.414 190.528V189.781L158.97 189.931C158.355 189.972 157.877 190.121 157.538 190.379C157.204 190.637 157.037 190.982 157.037 191.416C157.037 191.85 157.204 192.198 157.538 192.462C157.872 192.726 158.314 192.857 158.865 192.857ZM158.522 194.158C157.614 194.158 156.878 193.906 156.316 193.402C155.759 192.898 155.481 192.236 155.481 191.416C155.481 190.631 155.768 190.004 156.342 189.535C156.922 189.066 157.74 188.803 158.794 188.744L161.414 188.595V187.83C161.414 187.273 161.238 186.837 160.886 186.521C160.535 186.204 160.042 186.046 159.41 186.046C158.83 186.046 158.358 186.175 157.995 186.433C157.631 186.685 157.4 187.039 157.3 187.496H155.824C155.876 186.682 156.228 186.014 156.878 185.492C157.535 184.965 158.39 184.701 159.445 184.701C160.517 184.701 161.367 184.971 161.994 185.51C162.626 186.049 162.943 186.772 162.943 187.681V194H161.493V192.427H161.458C161.182 192.948 160.778 193.367 160.245 193.684C159.711 194 159.137 194.158 158.522 194.158ZM173.822 184.859L170.465 194H168.9L165.534 184.859H167.143L169.665 192.374H169.7L172.232 184.859H173.822ZM179.305 192.857C180.026 192.857 180.63 192.635 181.116 192.189C181.608 191.738 181.854 191.185 181.854 190.528V189.781L179.411 189.931C178.796 189.972 178.318 190.121 177.978 190.379C177.644 190.637 177.477 190.982 177.477 191.416C177.477 191.85 177.644 192.198 177.978 192.462C178.312 192.726 178.755 192.857 179.305 192.857ZM178.963 194.158C178.054 194.158 177.319 193.906 176.756 193.402C176.2 192.898 175.922 192.236 175.922 191.416C175.922 190.631 176.209 190.004 176.783 189.535C177.363 189.066 178.18 188.803 179.235 188.744L181.854 188.595V187.83C181.854 187.273 181.678 186.837 181.327 186.521C180.975 186.204 180.483 186.046 179.85 186.046C179.27 186.046 178.798 186.175 178.435 186.433C178.072 186.685 177.84 187.039 177.741 187.496H176.264C176.317 186.682 176.669 186.014 177.319 185.492C177.975 184.965 178.831 184.701 179.885 184.701C180.958 184.701 181.807 184.971 182.434 185.51C183.067 186.049 183.383 186.772 183.383 187.681V194H181.933V192.427H181.898C181.623 192.948 181.218 193.367 180.685 193.684C180.152 194 179.578 194.158 178.963 194.158ZM186.608 187.382C186.608 186.597 186.924 185.955 187.557 185.457C188.196 184.953 189.016 184.701 190.018 184.701C190.961 184.701 191.746 184.953 192.373 185.457C193 185.961 193.331 186.6 193.366 187.373H191.907C191.855 186.928 191.655 186.579 191.31 186.327C190.97 186.075 190.522 185.949 189.965 185.949C189.408 185.949 188.96 186.075 188.62 186.327C188.28 186.573 188.111 186.898 188.111 187.303C188.111 187.924 188.617 188.363 189.631 188.621L191.046 188.964C191.966 189.198 192.613 189.503 192.988 189.878C193.369 190.247 193.56 190.769 193.56 191.442C193.56 192.239 193.22 192.893 192.54 193.402C191.861 193.906 190.988 194.158 189.921 194.158C188.925 194.158 188.102 193.912 187.451 193.42C186.807 192.922 186.444 192.266 186.362 191.451H187.891C188.061 192.424 188.77 192.91 190.018 192.91C190.633 192.91 191.119 192.79 191.477 192.55C191.84 192.304 192.022 191.973 192.022 191.557C192.022 191.229 191.913 190.968 191.696 190.774C191.486 190.581 191.125 190.417 190.615 190.282L189.007 189.869C187.407 189.459 186.608 188.63 186.608 187.382ZM204.184 187.856H202.69C202.573 187.329 202.312 186.896 201.908 186.556C201.51 186.216 200.991 186.046 200.352 186.046C199.555 186.046 198.914 186.354 198.428 186.969C197.941 187.578 197.698 188.398 197.698 189.43C197.698 190.479 197.941 191.305 198.428 191.908C198.92 192.512 199.567 192.813 200.37 192.813C200.985 192.813 201.492 192.661 201.89 192.356C202.295 192.046 202.564 191.612 202.699 191.056H204.202C204.085 191.97 203.672 192.717 202.963 193.297C202.26 193.871 201.392 194.158 200.361 194.158C199.084 194.158 198.061 193.736 197.294 192.893C196.526 192.043 196.142 190.889 196.142 189.43C196.142 187.994 196.526 186.849 197.294 185.993C198.061 185.132 199.078 184.701 200.344 184.701C201.433 184.701 202.318 185.009 202.998 185.624C203.683 186.239 204.079 186.983 204.184 187.856ZM207.048 194V184.859H208.49V186.354H208.525C208.677 185.844 208.95 185.442 209.342 185.149C209.741 184.851 210.206 184.701 210.74 184.701C210.863 184.701 211.068 184.722 211.355 184.763V186.248C211.191 186.189 210.918 186.16 210.537 186.16C209.946 186.16 209.471 186.356 209.114 186.749C208.756 187.142 208.577 187.66 208.577 188.305V194H207.048ZM214.122 194V184.859H215.651V194H214.122ZM214.887 183.321C214.629 183.321 214.406 183.228 214.219 183.04C214.031 182.853 213.937 182.63 213.937 182.372C213.937 182.108 214.031 181.886 214.219 181.704C214.406 181.517 214.629 181.423 214.887 181.423C215.15 181.423 215.376 181.517 215.563 181.704C215.751 181.886 215.845 182.108 215.845 182.372C215.845 182.63 215.751 182.853 215.563 183.04C215.376 183.228 215.15 183.321 214.887 183.321ZM223.595 184.701C224.767 184.701 225.71 185.132 226.425 185.993C227.146 186.854 227.506 188 227.506 189.43C227.506 190.854 227.149 191.999 226.434 192.866C225.719 193.728 224.785 194.158 223.63 194.158C222.986 194.158 222.409 194.012 221.899 193.719C221.389 193.426 220.997 193.024 220.721 192.515H220.686V197.05H219.157V184.859H220.607V186.406H220.642C220.929 185.879 221.331 185.463 221.846 185.158C222.362 184.854 222.945 184.701 223.595 184.701ZM223.296 192.813C224.111 192.813 224.755 192.509 225.23 191.899C225.705 191.29 225.942 190.467 225.942 189.43C225.942 188.393 225.705 187.569 225.23 186.96C224.755 186.351 224.111 186.046 223.296 186.046C222.511 186.046 221.878 186.356 221.398 186.978C220.917 187.599 220.677 188.416 220.677 189.43C220.677 190.449 220.917 191.27 221.398 191.891C221.878 192.506 222.511 192.813 223.296 192.813ZM230.985 182.653H232.515V184.859H234.29V186.116H232.515V191.548C232.515 191.964 232.605 192.271 232.787 192.471C232.969 192.664 233.256 192.761 233.648 192.761C233.895 192.761 234.105 192.746 234.281 192.717V194C234.082 194.047 233.76 194.07 233.314 194.07C232.477 194.07 231.879 193.883 231.521 193.508C231.164 193.133 230.985 192.506 230.985 191.627V186.116H229.623V184.859H230.985V182.653ZM245.511 192.857C246.232 192.857 246.835 192.635 247.321 192.189C247.814 191.738 248.06 191.185 248.06 190.528V189.781L245.616 189.931C245.001 189.972 244.524 190.121 244.184 190.379C243.85 190.637 243.683 190.982 243.683 191.416C243.683 191.85 243.85 192.198 244.184 192.462C244.518 192.726 244.96 192.857 245.511 192.857ZM245.168 194.158C244.26 194.158 243.525 193.906 242.962 193.402C242.405 192.898 242.127 192.236 242.127 191.416C242.127 190.631 242.414 190.004 242.988 189.535C243.568 189.066 244.386 188.803 245.441 188.744L248.06 188.595V187.83C248.06 187.273 247.884 186.837 247.532 186.521C247.181 186.204 246.689 186.046 246.056 186.046C245.476 186.046 245.004 186.175 244.641 186.433C244.277 186.685 244.046 187.039 243.946 187.496H242.47C242.523 186.682 242.874 186.014 243.525 185.492C244.181 184.965 245.036 184.701 246.091 184.701C247.163 184.701 248.013 184.971 248.64 185.51C249.273 186.049 249.589 186.772 249.589 187.681V194H248.139V192.427H248.104C247.828 192.948 247.424 193.367 246.891 193.684C246.358 194 245.783 194.158 245.168 194.158ZM252.971 194V184.859H254.413V186.318H254.448C254.712 185.809 255.09 185.413 255.582 185.132C256.074 184.845 256.663 184.701 257.348 184.701C258.344 184.701 259.121 185.003 259.677 185.606C260.234 186.204 260.512 187.024 260.512 188.067V194H258.983V188.34C258.983 187.596 258.807 187.03 258.456 186.644C258.104 186.251 257.58 186.055 256.883 186.055C256.162 186.055 255.585 186.289 255.151 186.758C254.717 187.227 254.501 187.848 254.501 188.621V194H252.971ZM267.366 194.158C266.195 194.158 265.248 193.728 264.528 192.866C263.813 192.005 263.455 190.859 263.455 189.43C263.455 188.006 263.813 186.863 264.528 186.002C265.242 185.135 266.177 184.701 267.331 184.701C267.976 184.701 268.553 184.848 269.063 185.141C269.573 185.434 269.965 185.835 270.24 186.345H270.276V181.317H271.805V194H270.346V192.453H270.32C270.021 192.986 269.616 193.405 269.107 193.71C268.597 194.009 268.017 194.158 267.366 194.158ZM267.656 186.046C266.848 186.046 266.206 186.354 265.732 186.969C265.257 187.578 265.02 188.398 265.02 189.43C265.02 190.467 265.257 191.29 265.732 191.899C266.206 192.509 266.848 192.813 267.656 192.813C268.448 192.813 269.083 192.506 269.564 191.891C270.044 191.27 270.284 190.449 270.284 189.43C270.284 188.41 270.041 187.593 269.555 186.978C269.074 186.356 268.442 186.046 267.656 186.046ZM282.261 182.724V187.584H285.293C286.108 187.584 286.735 187.373 287.174 186.951C287.62 186.529 287.842 185.929 287.842 185.149C287.842 184.388 287.611 183.793 287.148 183.365C286.685 182.938 286.043 182.724 285.223 182.724H282.261ZM282.261 188.981V194H280.679V181.317H285.434C286.659 181.317 287.637 181.663 288.37 182.354C289.108 183.04 289.477 183.954 289.477 185.097C289.477 185.981 289.251 186.746 288.8 187.391C288.349 188.035 287.725 188.483 286.928 188.735L289.864 194H288.009L285.293 188.981H282.261ZM296.34 186.028C295.631 186.028 295.042 186.274 294.573 186.767C294.11 187.253 293.855 187.88 293.809 188.647H298.774C298.757 187.874 298.525 187.244 298.08 186.758C297.635 186.271 297.055 186.028 296.34 186.028ZM298.739 191.381H300.242C300.107 192.189 299.685 192.854 298.977 193.376C298.273 193.897 297.427 194.158 296.436 194.158C295.13 194.158 294.102 193.736 293.352 192.893C292.602 192.049 292.227 190.906 292.227 189.465C292.227 188.035 292.602 186.884 293.352 186.011C294.107 185.138 295.112 184.701 296.366 184.701C297.597 184.701 298.569 185.114 299.284 185.94C299.999 186.767 300.356 187.874 300.356 189.263V189.843H293.8V189.931C293.8 190.81 294.04 191.513 294.52 192.04C295.001 192.567 295.651 192.831 296.472 192.831C297.046 192.831 297.535 192.699 297.939 192.436C298.344 192.172 298.61 191.82 298.739 191.381ZM306.358 192.857C307.079 192.857 307.682 192.635 308.168 192.189C308.661 191.738 308.907 191.185 308.907 190.528V189.781L306.463 189.931C305.848 189.972 305.371 190.121 305.031 190.379C304.697 190.637 304.53 190.982 304.53 191.416C304.53 191.85 304.697 192.198 305.031 192.462C305.365 192.726 305.807 192.857 306.358 192.857ZM306.015 194.158C305.107 194.158 304.372 193.906 303.809 193.402C303.252 192.898 302.974 192.236 302.974 191.416C302.974 190.631 303.261 190.004 303.835 189.535C304.415 189.066 305.233 188.803 306.288 188.744L308.907 188.595V187.83C308.907 187.273 308.731 186.837 308.379 186.521C308.028 186.204 307.536 186.046 306.903 186.046C306.323 186.046 305.851 186.175 305.488 186.433C305.124 186.685 304.893 187.039 304.793 187.496H303.317C303.37 186.682 303.721 186.014 304.372 185.492C305.028 184.965 305.883 184.701 306.938 184.701C308.01 184.701 308.86 184.971 309.487 185.51C310.12 186.049 310.436 186.772 310.436 187.681V194H308.986V192.427H308.951C308.675 192.948 308.271 193.367 307.738 193.684C307.205 194 306.63 194.158 306.015 194.158ZM321.412 187.856H319.918C319.801 187.329 319.54 186.896 319.136 186.556C318.737 186.216 318.219 186.046 317.58 186.046C316.783 186.046 316.142 186.354 315.655 186.969C315.169 187.578 314.926 188.398 314.926 189.43C314.926 190.479 315.169 191.305 315.655 191.908C316.147 192.512 316.795 192.813 317.598 192.813C318.213 192.813 318.72 192.661 319.118 192.356C319.522 192.046 319.792 191.612 319.927 191.056H321.43C321.313 191.97 320.899 192.717 320.19 193.297C319.487 193.871 318.62 194.158 317.589 194.158C316.312 194.158 315.289 193.736 314.522 192.893C313.754 192.043 313.37 190.889 313.37 189.43C313.37 187.994 313.754 186.849 314.522 185.993C315.289 185.132 316.306 184.701 317.571 184.701C318.661 184.701 319.546 185.009 320.226 185.624C320.911 186.239 321.307 186.983 321.412 187.856ZM324.768 182.653H326.297V184.859H328.073V186.116H326.297V191.548C326.297 191.964 326.388 192.271 326.57 192.471C326.752 192.664 327.039 192.761 327.431 192.761C327.677 192.761 327.888 192.746 328.064 192.717V194C327.865 194.047 327.543 194.07 327.097 194.07C326.259 194.07 325.662 193.883 325.304 193.508C324.947 193.133 324.768 192.506 324.768 191.627V186.116H323.406V184.859H324.768V182.653Z" fill="white"/>
<g clip-path="url(#clip0_216_542)">
<path d="M0 4.63089C0.156535 4.10911 0.273937 3.56123 0.469606 3.05249C1.05661 1.55236 2.56979 5.32212e-05 4.98304 0.0130978C17.1145 0.0522317 29.233 0.0652763 41.3645 5.32213e-05C44.3908 -0.0129914 46.1649 2.37417 46.3866 4.65698C46.4258 5.06136 46.4388 5.46575 46.4388 5.88317C46.4388 12.549 46.4388 19.2278 46.4519 25.8936C46.4519 26.1545 46.5562 26.4937 46.7388 26.6632C47.8998 27.7068 47.8215 29.3243 46.791 30.1983C46.7519 30.2244 46.7388 30.2766 46.7258 30.3027C46.9345 30.8114 47.1171 31.3202 47.3519 31.7898C47.4172 31.9202 47.6128 32.0637 47.7694 32.0768C49.2173 32.2202 50.013 33.0551 50.013 34.5031C50.013 35.0248 50.0261 35.5466 50.013 36.0684C49.987 37.2946 49.0869 38.2469 47.8607 38.2729C47.5215 38.286 47.3519 38.3773 47.2867 38.7034C47.2606 38.8078 47.2215 38.9252 47.1693 39.0295C46.8171 39.6426 46.6997 40.1514 47.2737 40.8166C47.8737 41.521 47.6911 42.6298 47.065 43.3343C46.6084 43.843 46.1258 44.3256 45.617 44.7952C44.7561 45.5779 43.5038 45.5779 42.6559 44.7692C42.395 44.5213 42.1863 44.4822 41.9123 44.6648C41.8993 44.6778 41.8862 44.6778 41.8732 44.6778C41.0644 44.9127 40.4774 45.2388 40.3861 46.2823C40.3079 47.1694 39.3295 47.7564 38.4033 47.7825C37.8033 47.7955 37.2032 47.7955 36.6032 47.7825C35.377 47.7694 34.4639 46.9346 34.3856 45.6953C34.3595 45.2779 34.1899 45.1344 33.8377 44.9909C33.1072 44.6909 32.5202 44.3648 31.7375 45.0692C31.0984 45.6562 29.9896 45.4083 29.3112 44.7952C28.8025 44.3387 28.3199 43.856 27.8633 43.3473C27.0806 42.4733 27.0937 41.2341 27.9024 40.3731C28.1503 40.1122 28.1764 39.9166 27.9937 39.6165C27.8763 39.4209 27.7981 39.1991 27.7198 38.9904C27.4328 38.2729 27.4328 38.2599 26.6371 38.2599C24.1978 38.2599 21.7584 38.2599 19.3191 38.2599C18.6929 38.2599 18.2885 37.9468 18.2103 37.4381C18.1059 36.7859 18.5494 36.2902 19.2669 36.2902C20.9496 36.2771 22.6194 36.2902 24.3021 36.2902C24.4717 36.2902 24.6543 36.2902 24.8891 36.2902C24.8891 35.664 24.8891 35.077 24.8891 34.5031C24.9022 33.016 25.6718 32.1811 27.1589 32.0507C27.3024 32.0376 27.498 31.8941 27.5633 31.7506C27.785 31.281 27.9546 30.7853 28.1633 30.2766C28.059 30.1592 27.9416 30.0418 27.8242 29.8983C27.0806 29.0243 27.0937 27.7981 27.8763 26.9502C28.2938 26.4937 28.7373 26.0632 29.1808 25.6327C30.0809 24.7718 31.3332 24.7326 32.2593 25.5936C32.5072 25.8284 32.7028 25.8806 32.9768 25.6849C33.0681 25.6197 33.1724 25.5675 33.2898 25.5414C33.9943 25.3718 34.4117 25.0457 34.4769 24.1978C34.5421 23.3238 35.377 22.6716 36.264 22.5933C36.9554 22.5281 37.6598 22.5281 38.3642 22.5672C39.6165 22.6194 40.4513 23.4282 40.5427 24.6935C40.5687 25.0196 40.6601 25.1762 40.9731 25.2675C41.3645 25.3849 41.7167 25.5936 42.095 25.724C42.2254 25.7632 42.4602 25.7632 42.5515 25.6719C43.0864 25.1501 43.7125 24.9153 44.4952 24.9544C44.4952 21.6541 44.4952 18.3669 44.4952 15.0405C30.3548 15.0405 16.2275 15.0405 2.03496 15.0405C2.03496 15.2231 2.03496 15.4057 2.03496 15.5753C2.03496 21.2628 2.02191 26.9633 2.048 32.6507C2.048 33.2769 2.16541 33.9291 2.40021 34.5031C2.86981 35.6771 3.75685 36.3163 5.0874 36.2902C6.80929 36.251 8.54422 36.2771 10.2661 36.2771C11.0097 36.2771 11.4662 36.6554 11.4532 37.2685C11.4401 37.8816 10.9966 38.2469 10.24 38.2469C8.55727 38.2469 6.88756 38.1816 5.2048 38.2599C2.21758 38.3903 0.521784 36.0945 0.156535 33.9682C0.143491 33.8639 0.0913123 33.7595 0.0652231 33.6552C0 24.0021 0 14.31 0 4.63089ZM1.98278 13.0316C16.1492 13.0316 30.2765 13.0316 44.456 13.0316C44.456 12.6011 44.456 12.1968 44.456 11.7924C44.456 9.56175 44.4821 7.31808 44.43 5.08745C44.3778 3.1438 43.1385 1.99588 41.221 1.99588C39.6295 1.99588 38.025 1.99588 36.4336 1.99588C25.9327 1.99588 15.4318 1.99588 4.94391 1.98283C4.03079 1.98283 3.30029 2.29591 2.73937 3.01336C2.17845 3.74386 1.95669 4.57871 1.95669 5.47879C1.95669 7.83987 1.95669 10.214 1.95669 12.5751C1.96974 12.7185 1.98278 12.862 1.98278 13.0316ZM45.6431 41.8733C45.5648 41.7689 45.4996 41.6776 45.4213 41.5993C45.2387 41.4167 45.0561 41.2341 44.8735 41.0384C44.3908 40.5427 44.3908 40.2035 44.6908 39.5905C45.043 38.873 45.3692 38.1425 45.617 37.399C45.917 36.5119 46.0866 36.3293 47.0258 36.3293C48.1607 36.3293 48.0433 36.4076 48.0433 35.2988C48.0433 34.1117 48.0433 34.1117 46.8432 34.0726C46.1518 34.0465 45.904 33.8117 45.6692 33.1334C45.4083 32.3637 45.1083 31.6071 44.743 30.8897C44.3647 30.1331 44.3647 29.8331 44.9517 29.2461C45.7214 28.4764 45.7214 28.4764 44.9517 27.7068C44.143 26.885 44.143 26.885 43.3081 27.6938C42.7733 28.2155 42.4341 28.2286 41.7819 27.9025C41.0253 27.5372 40.2426 27.2111 39.4469 26.9372C38.7425 26.6893 38.5077 26.4415 38.4947 25.6719C38.4816 24.5761 38.4816 24.5761 37.4119 24.5761C36.251 24.5761 36.251 24.5761 36.2379 25.724C36.2249 26.4676 36.0031 26.7154 35.3118 26.9502C34.5682 27.2111 33.8247 27.4981 33.1072 27.8633C32.3246 28.2547 32.0376 28.2547 31.4245 27.6416C30.5635 26.7937 30.7853 26.7937 29.9243 27.6546C29.1025 28.4764 29.1025 28.4764 29.8983 29.2983C30.4461 29.8592 30.4461 30.1592 30.107 30.8636C29.7548 31.5941 29.4417 32.3507 29.1808 33.1073C28.946 33.8117 28.6721 34.0595 27.9155 34.0726C26.7936 34.0856 26.7936 34.0856 26.8067 35.1814C26.8197 36.4989 26.6632 36.3163 27.9416 36.3293C28.7112 36.3423 28.946 36.5641 29.1938 37.2946C29.4417 38.0251 29.7287 38.7556 30.0809 39.46C30.4853 40.2688 30.4853 40.5427 29.8461 41.1819C28.9982 42.0298 29.0243 41.808 29.8591 42.6429C30.694 43.4908 30.694 43.4908 31.568 42.6559C32.0637 42.1733 32.4028 42.1602 33.0159 42.4603C33.7334 42.8125 34.4508 43.1386 35.2074 43.3995C36.1205 43.6995 36.3032 43.8821 36.3032 44.8474C36.3032 45.9562 36.1988 45.8388 37.2945 45.8388C38.5338 45.8388 38.5338 45.8388 38.5599 44.6126C38.5599 44.5604 38.5599 44.5213 38.5599 44.4691C38.5729 43.9604 38.8338 43.6734 39.3034 43.4908C40.1904 43.1386 41.0775 42.7864 41.9515 42.395C42.4341 42.1733 42.8255 42.2124 43.2038 42.5777C43.4255 42.7864 43.6473 43.0081 43.856 43.2299C44.0386 43.4125 44.1951 43.4517 44.3908 43.2429C44.743 42.8777 45.1083 42.5255 45.4605 42.1602C45.5257 42.082 45.5779 41.9776 45.6431 41.8733Z" fill="url(#paint0_linear_216_542)"/>
<path d="M22.0188 25.6719C21.2753 24.837 20.5578 24.0283 19.8404 23.2065C19.7491 23.1021 19.6447 22.9847 19.5534 22.8673C19.2664 22.4499 19.3447 21.915 19.6969 21.5759C20.0621 21.2498 20.6491 21.2106 20.9753 21.5759C21.9927 22.6716 22.9841 23.7935 23.9494 24.9283C24.3277 25.3719 24.2886 26.011 23.8972 26.4676C22.9711 27.5503 22.0188 28.62 21.0535 29.6766C20.6752 30.081 20.0752 30.081 19.6969 29.7418C19.2925 29.3766 19.2403 28.7895 19.6317 28.346C20.2187 27.6547 20.8448 26.9763 21.4449 26.298C21.6405 26.1154 21.8232 25.9067 22.0188 25.6719Z" fill="url(#paint1_linear_216_542)"/>
<path d="M7.74845 25.685C8.55722 26.5982 9.32685 27.4591 10.0965 28.3331C10.4226 28.6983 10.4878 29.1158 10.24 29.5462C9.99213 29.9637 9.60079 30.1072 9.14423 29.9637C8.93551 29.8984 8.73985 29.755 8.59635 29.5854C7.72237 28.6201 6.84838 27.6417 6.00048 26.6634C5.42651 26.0111 5.42651 25.3328 5.98743 24.6936C6.84838 23.7153 7.70932 22.737 8.58331 21.7717C9.03987 21.2629 9.61383 21.1977 10.0443 21.576C10.5009 21.9673 10.5009 22.5674 10.0443 23.0892C9.28772 23.9501 8.53113 24.798 7.74845 25.685Z" fill="url(#paint2_linear_216_542)"/>
<path d="M16.8278 21.7585C16.6191 22.6195 16.3973 23.5848 16.1625 24.5501C15.7581 26.2589 15.3407 27.9677 14.9363 29.6766C14.9102 29.7809 14.8841 29.8983 14.845 30.0027C14.6754 30.5506 14.1928 30.8506 13.684 30.7332C13.1492 30.6158 12.8231 30.1201 12.9535 29.5331C13.3188 27.9156 13.7101 26.298 14.0884 24.6805C14.3363 23.6239 14.5971 22.5542 14.845 21.4976C14.9494 21.028 15.1972 20.6889 15.6929 20.5975C16.319 20.4932 16.8669 21.0019 16.8278 21.7585Z" fill="url(#paint3_linear_216_542)"/>
<path d="M14.753 36.3284C15.314 36.3154 15.7575 36.7458 15.7575 37.2937C15.7575 37.8416 15.314 38.2851 14.7661 38.2851C14.2443 38.2851 13.8008 37.8546 13.7747 37.3329C13.7617 36.798 14.2052 36.3284 14.753 36.3284Z" fill="url(#paint4_linear_216_542)"/>
<path d="M33.6808 10.8786C32.1807 10.8786 30.6805 10.9047 29.1935 10.8656C27.5237 10.8265 26.1801 9.53504 25.9975 7.86533C25.8279 6.31302 26.8715 4.81289 28.4108 4.38242C28.7369 4.2911 29.0891 4.25197 29.4152 4.25197C32.2459 4.23893 35.0766 4.23893 37.9073 4.25197C39.3422 4.26502 40.4249 4.89116 41.0249 6.20866C41.5858 7.4479 41.4032 8.63496 40.5423 9.69158C39.89 10.5003 39.003 10.8656 37.9725 10.8786C36.5376 10.8917 35.1027 10.8786 33.6808 10.8786ZM33.6938 6.23475C32.2459 6.23475 30.7979 6.22171 29.35 6.23475C28.5282 6.2478 27.9542 6.82176 27.9542 7.5653C27.9542 8.30885 28.5412 8.89585 29.35 8.89585C32.2068 8.9089 35.0766 8.9089 37.9333 8.89585C38.4943 8.89585 38.9508 8.66105 39.1987 8.13927C39.6552 7.22614 39.016 6.2478 37.9203 6.22171C36.5245 6.22171 35.1027 6.23475 33.6938 6.23475Z" fill="url(#paint5_linear_216_542)"/>
<path d="M21.0023 7.59137C20.9892 9.40458 19.5021 10.8786 17.702 10.8786C15.8888 10.8786 14.3756 9.3524 14.4017 7.5392C14.4278 5.72599 15.9149 4.25195 17.702 4.25195C19.5282 4.25195 21.0153 5.76513 21.0023 7.59137ZM19.0325 7.56528C19.0325 6.83479 18.4064 6.23473 17.6759 6.24778C16.9584 6.26082 16.3845 6.83479 16.3714 7.56528C16.3714 8.30883 16.9584 8.92192 17.6889 8.92192C18.4194 8.90888 19.0456 8.28274 19.0325 7.56528Z" fill="url(#paint6_linear_216_542)"/>
<path d="M5.84384 7.57841C5.83079 5.73912 7.31788 4.23899 9.14412 4.25204C10.9573 4.26508 12.4183 5.73912 12.4314 7.55232C12.4444 9.39161 10.9573 10.8787 9.13108 10.8787C7.31788 10.8787 5.85688 9.40466 5.84384 7.57841ZM10.4616 7.56537C10.4616 6.82183 9.86158 6.23482 9.11803 6.24786C8.40058 6.26091 7.81357 6.84792 7.81357 7.56537C7.80053 8.29587 8.41362 8.92201 9.13108 8.92201C9.86158 8.90896 10.4616 8.29587 10.4616 7.56537Z" fill="url(#paint7_linear_216_542)"/>
<path d="M31.4111 35.1946C31.4111 31.8682 34.0983 29.168 37.4247 29.168C40.738 29.168 43.4513 31.8812 43.4383 35.2076C43.4252 38.4949 40.7119 41.2081 37.4377 41.2212C34.1244 41.2212 31.4111 38.5079 31.4111 35.1946ZM33.3809 35.1815C33.3809 37.4122 35.168 39.2254 37.3986 39.2384C39.6162 39.2515 41.4816 37.3861 41.4685 35.1685C41.4555 32.9379 39.6423 31.1377 37.4117 31.1377C35.181 31.1377 33.3809 32.9379 33.3809 35.1815Z" fill="url(#paint8_linear_216_542)"/>
</g>
<defs>
<linearGradient id="paint0_linear_216_542" x1="25.0094" y1="0" x2="25.0094" y2="47.7923" gradientUnits="userSpaceOnUse">
<stop stop-color="#20D4FE"/>
<stop offset="1" stop-color="#B722FF"/>
</linearGradient>
<linearGradient id="paint1_linear_216_542" x1="21.7886" y1="21.3164" x2="21.7886" y2="29.9886" gradientUnits="userSpaceOnUse">
<stop stop-color="#20D4FE"/>
<stop offset="1" stop-color="#B722FF"/>
</linearGradient>
<linearGradient id="paint2_linear_216_542" x1="7.97945" y1="21.334" x2="7.97945" y2="30.0177" gradientUnits="userSpaceOnUse">
<stop stop-color="#20D4FE"/>
<stop offset="1" stop-color="#B722FF"/>
</linearGradient>
<linearGradient id="paint3_linear_216_542" x1="14.8773" y1="20.584" x2="14.8773" y2="30.7585" gradientUnits="userSpaceOnUse">
<stop stop-color="#20D4FE"/>
<stop offset="1" stop-color="#B722FF"/>
</linearGradient>
<linearGradient id="paint4_linear_216_542" x1="14.7659" y1="36.3281" x2="14.7659" y2="38.2851" gradientUnits="userSpaceOnUse">
<stop stop-color="#20D4FE"/>
<stop offset="1" stop-color="#B722FF"/>
</linearGradient>
<linearGradient id="paint5_linear_216_542" x1="33.6627" y1="4.24219" x2="33.6627" y2="10.8872" gradientUnits="userSpaceOnUse">
<stop stop-color="#20D4FE"/>
<stop offset="1" stop-color="#B722FF"/>
</linearGradient>
<linearGradient id="paint6_linear_216_542" x1="17.7019" y1="4.25195" x2="17.7019" y2="10.8786" gradientUnits="userSpaceOnUse">
<stop stop-color="#20D4FE"/>
<stop offset="1" stop-color="#B722FF"/>
</linearGradient>
<linearGradient id="paint7_linear_216_542" x1="9.1376" y1="4.25195" x2="9.1376" y2="10.8787" gradientUnits="userSpaceOnUse">
<stop stop-color="#20D4FE"/>
<stop offset="1" stop-color="#B722FF"/>
</linearGradient>
<linearGradient id="paint8_linear_216_542" x1="37.4247" y1="29.168" x2="37.4247" y2="41.2212" gradientUnits="userSpaceOnUse">
<stop stop-color="#20D4FE"/>
<stop offset="1" stop-color="#B722FF"/>
</linearGradient>
<clipPath id="clip0_216_542">
<rect width="50" height="47.7955" fill="white"/>
</clipPath>
</defs>
</svg>
